<svg xmlns="http://www.w3.org/2000/svg" style="display:none;">
<symbol id="airplane" viewBox="0 0 16 16"><title>finite-icons</title><path d="M14.16406,1.83624A2.83933,2.83933,0,0,0,12.14276,1H12.1427a2.83879,2.83879,0,0,0-1.98425.7998L8.90234,2.95874,5.07281,2.95862,1.83191,2.95856a0.5,0.5,0,0,0-.38123.82355L3.512,6.21051a0.5,0.5,0,0,1-.28314.8139l-1.5423.30841a0.5,0.5,0,0,0-.25549.84381L3.75,10.5,3,12.24487A0.75512,0.75512,0,0,0,3.75513,13L5.5,12.20831l2.17694,2.21436a0.5,0.5,0,0,0,.8407-0.24091l0.34528-1.493a0.5,0.5,0,0,1,.81342-0.26624l2.51453,2.1651a0.5,0.5,0,0,0,.82623-0.37512l0.02435-3.23865L13.071,7.03943l1.12-1.188A2.86172,2.86172,0,0,0,14.16406,1.83624ZM12.74982,4.46466L11.077,6.239,11.0415,10.95874,8.46985,8.74451l-0.97241.97241L7.17853,11.09576l-0.95111-.95111-0.77429.27722,0.34607-.70551-0.972-.972L6.345,8.44086l0.91064-.91058L5.07275,4.95862,9.68408,4.95874l1.8515-1.70831A0.85859,0.85859,0,0,1,12.74982,4.46466Z" />
</symbol>
<symbol id="alert-circle" viewBox="0 0 16 16"><title>finite-icons</title><path d="M8,1a7,7,0,1,0,7,7A7.00818,7.00818,0,0,0,8,1ZM8,13a5,5,0,1,1,5-5A5.00589,5.00589,0,0,1,8,13Z" /><rect x="7" y="4" width="2" height="5" rx="0.5" ry="0.5" /><circle cx="8" cy="11" r="1" />
</symbol>
<symbol id="align-center" viewBox="0 0 16 16"><title>finite-icons</title><rect x="3" y="3" width="10" height="2" rx="0.5" ry="0.5" /><rect x="5" y="6" width="6" height="2" rx="0.5" ry="0.5" /><rect x="4" y="9" width="8" height="2" rx="0.5" ry="0.5" /><rect x="6" y="12" width="4" height="2" rx="0.5" ry="0.5" />
</symbol>
<symbol id="align-justify" viewBox="0 0 16 16"><title>finite-icons</title><rect x="3" y="3" width="10" height="2" rx="0.5" ry="0.5" /><rect x="3" y="6" width="10" height="2" rx="0.5" ry="0.5" /><rect x="3" y="9" width="10" height="2" rx="0.5" ry="0.5" /><rect x="3" y="12" width="10" height="2" rx="0.5" ry="0.5" />
</symbol>
<symbol id="align-left" viewBox="0 0 16 16"><title>finite-icons</title><rect x="3" y="3" width="10" height="2" rx="0.5" ry="0.5" /><rect x="3" y="6" width="6" height="2" rx="0.5" ry="0.5" /><rect x="3" y="9" width="8" height="2" rx="0.5" ry="0.5" /><rect x="3" y="12" width="4" height="2" rx="0.5" ry="0.5" />
</symbol>
<symbol id="align-right" viewBox="0 0 16 16"><title>finite-icons</title><rect x="3" y="3" width="10" height="2" rx="0.5" ry="0.5" /><rect x="7" y="6" width="6" height="2" rx="0.5" ry="0.5" /><rect x="5" y="9" width="8" height="2" rx="0.5" ry="0.5" /><rect x="9" y="12" width="4" height="2" rx="0.5" ry="0.5" />
</symbol>
<symbol id="arrow-e" viewBox="0 0 16 16"><title>finite-icons</title><path d="M2.5,9h7.73519l-0.76045.76411a0.50228,0.50228,0,0,0,0,.70894l0.70715,0.70807a0.5,0.5,0,0,0,.70711.00046L14.071,7.99978l-1.41421-1.4141L10.88895,4.81792a0.5,0.5,0,0,0-.70711,0l-0.70711.70712a0.49561,0.49561,0,0,0,0,.70344L10.2499,7H2.5a0.50629,0.50629,0,0,0-.5.50729l0,1A0.49382,0.49382,0,0,0,2.5,9Z" />
</symbol>
<symbol id="arrow-expand" viewBox="0 0 16 16"><title>finite-icons</title><path d="M13.49994,6H14.5A0.5,0.5,0,0,0,15,5.5V1H10.49988A0.49992,0.49992,0,0,0,10,1.5v1a0.49992,0.49992,0,0,0,.49988.5h1.09625L8,6.596l-0.48-.48c-0.01025-.01025-0.0238-0.01385-0.03467-0.023L4.38385,3H5.45929A0.5625,0.5625,0,0,0,6,2.47009V1.47A0.512,0.512,0,0,0,5.45929,1H1V5.47015A0.49355,0.49355,0,0,0,1.45929,6h1A0.56244,0.56244,0,0,0,3,5.47015V4.3739L6.02838,7.41364a0.48467,0.48467,0,0,0,.07745.1167L6.58575,8.01025l-0.46967.46967C6.10583,8.49017,6.10223,8.50378,6.093,8.51471L3,11.61615V10.54071A0.5625,0.5625,0,0,0,2.47009,10H1.47a0.512,0.512,0,0,0-.47.54065V15H5.47015A0.49355,0.49355,0,0,0,6,14.54071v-1A0.56244,0.56244,0,0,0,5.47015,13H4.3739L7.41364,9.97162a0.48467,0.48467,0,0,0,.1167-0.07745L8,9.4245,11.57544,13H10.5a0.5,0.5,0,0,0-.5.49994V14.5a0.5,0.5,0,0,0,.5.5l4.5-.00006V10.49988A0.49992,0.49992,0,0,0,14.5,10h-1a0.49992,0.49992,0,0,0-.5.49988v1.09625L9.41425,8.01031,13,4.42456V5.5A0.5,0.5,0,0,0,13.49994,6Z" />
</symbol>
<symbol id="arrow-n" viewBox="0 0 16 16"><title>finite-icons</title><path d="M9,13.5V5.76478L9.76411,6.52523a0.50228,0.50228,0,0,0,.70894,0l0.70806-.70715A0.5,0.5,0,0,0,11.18157,5.111L7.99977,1.929,6.58567,3.34325,4.81792,5.11106a0.5,0.5,0,0,0,0,.70711L5.52507,6.52527a0.4956,0.4956,0,0,0,.70344,0L7,5.7501V13.5a0.5063,0.5063,0,0,0,.50731.5l1,0A0.49381,0.49381,0,0,0,9,13.5Z" />
</symbol>
<symbol id="arrow-ne" viewBox="0 0 16 16"><title>finite-icons</title><path d="M4.53032,11.89415L9.99993,6.42456V7.5a0.50007,0.50007,0,0,0,.5.5H11.5A0.5,0.5,0,0,0,12,7.5L11.99994,3H7.49987A0.49991,0.49991,0,0,0,7,3.5v1a0.49991,0.49991,0,0,0,.49987.5H8.59612L3.11607,10.48a0.5,0.5,0,0,0,0,.70709l0.70716,0.70709A0.5,0.5,0,0,0,4.53032,11.89415Z" />
</symbol>
<symbol id="arrow-nw" viewBox="0 0 16 16"><title>finite-icons</title><path d="M11.89411,10.46971L6.42457,5.00006H7.5a0.50005,0.50005,0,0,0,.5-0.5V3.5A0.5,0.5,0,0,0,7.5,3L3,3V7.5001A0.49994,0.49994,0,0,0,3.5,8h1A0.49993,0.49993,0,0,0,5,7.50011V6.40386l5.47992,5.48009a0.5,0.5,0,0,0,.70709,0l0.7071-.70715A0.5,0.5,0,0,0,11.89411,10.46971Z" />
</symbol>
<symbol id="arrow-resize-h" viewBox="0 0 16 16"><title>finite-icons</title><path d="M13.58575,6.58606L11.81787,4.8183a0.50008,0.50008,0,0,0-.70715,0l-0.70715.70709a0.49559,0.49559,0,0,0,0,.70343L11.17841,7H4.76483l0.76044-.7641a0.50234,0.50234,0,0,0,0-.709L4.81812,4.81885A0.5,0.5,0,0,0,4.111,4.81842L0.92908,8.00018,2.34326,9.41431l1.76782,1.76776a0.5,0.5,0,0,0,.70709,0l0.70715-.70715a0.49574,0.49574,0,0,0,0-.70355L4.75037,9h6.41376l-0.7605.76428a0.50238,0.50238,0,0,0,0,.709l0.70715,0.70811a0.50013,0.50013,0,0,0,.70715.00051L15,8.00017Z" />
</symbol>
<symbol id="arrow-resize-v" viewBox="0 0 16 16"><title>finite-icons</title><path d="M10.43933,10.43921a0.49567,0.49567,0,0,0-.70349,0L9,11.17859V4.80048L9.74646,5.56091a0.4917,0.4917,0,0,0,.70013,0l0.70367-.70715a0.5,0.5,0,0,0-.00177-0.70709L7.96564,0.96472,6.551,2.37891,4.7829,4.14673a0.5,0.5,0,0,0-.00006.70709l0.707,0.70709a0.5391,0.5391,0,0,0,.73877,0L7,4.82068v6.379l-0.78192-.76044a0.51307,0.51307,0,0,0-.71783,0l-0.71252.70715a0.50008,0.50008,0,0,0-.00272.70715l3.18065,3.18207,1.41357-1.41431,1.76748-1.76788a0.5,0.5,0,0,0-.00014-0.70709Z" />
</symbol>
<symbol id="arrow-s" viewBox="0 0 16 16"><title>finite-icons</title><path d="M7,2.5v7.73519L6.23589,9.47477a0.50228,0.50228,0,0,0-.70894,0l-0.70807.70715a0.5,0.5,0,0,0-.00046.70711L8.00022,14.071l1.41411-1.41421,1.76776-1.76781a0.5,0.5,0,0,0,0-.70711l-0.70712-.70711a0.49561,0.49561,0,0,0-.70344,0L9,10.24989V2.5A0.50628,0.50628,0,0,0,8.49272,2l-1,0A0.49383,0.49383,0,0,0,7,2.5Z" />
</symbol>
<symbol id="arrow-se" viewBox="0 0 16 16"><title>finite-icons</title><path d="M3.10585,4.53035L8.57543,10H7.5a0.5,0.5,0,0,0-.5.49993V11.5a0.5,0.5,0,0,0,.5.5l4.5-.00006V7.49987A0.49991,0.49991,0,0,0,11.5,7h-1a0.49991,0.49991,0,0,0-.5.49987V8.59612L4.52,3.11606a0.5,0.5,0,0,0-.70709,0l-0.70709.70717A0.5,0.5,0,0,0,3.10585,4.53035Z" />
</symbol>
<symbol id="arrow-sw" viewBox="0 0 16 16"><title>finite-icons</title><path d="M10.46966,3.10587L5,8.57543V7.5A0.5,0.5,0,0,0,4.50007,7H3.5a0.5,0.5,0,0,0-.5.5L3,12H7.50011A0.49992,0.49992,0,0,0,8,11.5v-1A0.49992,0.49992,0,0,0,7.50012,10H6.40387l5.48007-5.47994a0.5,0.5,0,0,0,0-.70709l-0.70717-.70709A0.5,0.5,0,0,0,10.46966,3.10587Z" />
</symbol>
<symbol id="arrow-w" viewBox="0 0 16 16"><title>finite-icons</title><path d="M13.5,7H5.76481l0.76045-.76411a0.50228,0.50228,0,0,0,0-.70894L5.81811,4.81889A0.5,0.5,0,0,0,5.111,4.81843L1.92906,8.00022l1.41422,1.4141,1.76781,1.76776a0.5,0.5,0,0,0,.70711,0l0.70711-.70712a0.49561,0.49561,0,0,0,0-.70344L5.75014,9h7.74991A0.50624,0.50624,0,0,0,14,8.49271v-1A0.49382,0.49382,0,0,0,13.5,7Z" />
</symbol>
<symbol id="astronaut" viewBox="0 0 16 16"><title>finite-icons</title><path d="M12.5,14h-9a0.5,0.5,0,0,0,0,1h9A0.5,0.5,0,0,0,12.5,14Z" /><path d="M14.5,7H13.90778a6.00273,6.00273,0,0,0-6.6972-4.94928A5.87816,5.87816,0,0,0,3,4.80884V2A1,1,0,1,0,2,3V7H1.5a0.5,0.5,0,0,0-.5.5v2a0.5,0.5,0,0,0,.5.5H2v2.5a0.5,0.5,0,0,0,.5.5h11a0.5,0.5,0,0,0,.5-0.5V10h0.5A0.5,0.5,0,0,0,15,9.5v-2A0.5,0.5,0,0,0,14.5,7ZM9,11H7V10a1,1,0,0,1,2,0v1Zm3,0H11V10A3.00488,3.00488,0,0,0,7.4021,7.05811,3.07986,3.07986,0,0,0,5,10.11841V11H4V8a4,4,0,0,1,8,0v3Z" />
</symbol>
<symbol id="ban" viewBox="0 0 16 16"><title>finite-icons</title><path d="M8,1a7,7,0,1,0,7,7A7.00794,7.00794,0,0,0,8,1ZM8,13a5,5,0,1,1,5-5A5.00589,5.00589,0,0,1,8,13Z" /><path d="M6.71564,5.30145l3.98285,3.98279A2.98287,2.98287,0,0,0,6.71564,5.30145Z" /><path d="M5.87866,10.12128a2.99107,2.99107,0,0,0,3.40558.57721L5.30145,6.71564A2.99118,2.99118,0,0,0,5.87866,10.12128Z" />
</symbol>
<symbol id="bell" viewBox="0 0 16 16"><title>finite-icons</title><path d="M14.386,11.24164L12,7.8V6A3.99626,3.99626,0,0,0,9,2.142V2.02081a1.02084,1.02084,0,0,0-2.04169,0V2.155A3.99465,3.99465,0,0,0,4,6V7.801L1.61407,11.24158A0.47312,0.47312,0,0,0,2,12H14A0.47312,0.47312,0,0,0,14.386,11.24164ZM4.83588,10L6,8.382V6a2,2,0,0,1,4,0V8.41626L11.164,10H4.83588Z" /><path d="M8,15a2,2,0,0,0,2-2H6A2,2,0,0,0,8,15Z" />
</symbol>
<symbol id="bill-dollar" viewBox="0 0 16 16"><title>finite-icons</title><path d="M12,2.5A0.5,0.5,0,0,0,11.5,2H1.5a0.5,0.5,0,0,0-.5.5v9a0.5,0.5,0,0,0,.5.5H12V2.5ZM5,10H3V4H6V5.07629a1.53279,1.53279,0,0,0-.55835.26276,1.06133,1.06133,0,0,0-.43256.87543,0.89422,0.89422,0,0,0,.43964.81079,2.70969,2.70969,0,0,0,.38574.20917q0.16928,0.07224.48969,0.17279a1.91646,1.91646,0,0,1,.49017.21631,0.31773,0.31773,0,0,1,.16949.25214,0.25422,0.25422,0,0,1-.12274.22,0.58412,0.58412,0,0,1-.33154.08264A2.07109,2.07109,0,0,1,5.2395,7.71L4.764,8.38751a2.65966,2.65966,0,0,0,.84332.45758A3.16635,3.16635,0,0,0,6,8.9444V10H5Zm5,0H7V8.9281a1.47745,1.47745,0,0,0,.57831-0.27423A1.12876,1.12876,0,0,0,8,7.73541a0.88149,0.88149,0,0,0-.40375-0.8183,2.59377,2.59377,0,0,0-.37115-0.1908Q7.07,6.6647,6.70288,6.54974a3.16119,3.16119,0,0,1-.52606-0.20209,0.26343,0.26343,0,0,1-.15863-0.23755q0-.27411.501-0.27386a1.77188,1.77188,0,0,1,1.00531.34564L7.92773,5.4613A2.66819,2.66819,0,0,0,7,5.05389V4h3v6Z" /><path d="M14.5,4H13v9H3v1.5a0.5,0.5,0,0,0,.5.5h11a0.5,0.5,0,0,0,.5-0.5V4.5A0.5,0.5,0,0,0,14.5,4Z" />
</symbol>
<symbol id="bold" viewBox="0 0 16 16"><title>finite-icons</title><path d="M10.94171,8a3.48869,3.48869,0,0,0,1.05221-2.29324A3.632,3.632,0,0,0,8.30254,2H3.5a0.5,0.5,0,0,0-.5.5v11a0.5,0.5,0,0,0,.5.5H8.30254a3.632,3.632,0,0,0,3.69138-3.70676A3.48869,3.48869,0,0,0,10.94171,8ZM5,4H8.5a1.5,1.5,0,0,1,0,3H5V4Zm3.5,8H5V9H8.5A1.5,1.5,0,0,1,8.5,12Z" />
</symbol>
<symbol id="book" viewBox="0 0 16 16"><title>finite-icons</title><path d="M13.85358,2.43933L12.56067,1.14642A0.50015,0.50015,0,0,0,12.20709,1H2.5a0.5,0.5,0,0,0-.5.5V13.298a0.5,0.5,0,0,0,.14642.35358l1.202,1.202A0.49981,0.49981,0,0,0,3.702,15H13.5a0.5,0.5,0,0,0,.5-0.5V2.79291A0.5,0.5,0,0,0,13.85358,2.43933ZM4,3h6v8H4V3Zm9,11H3.90912L3.09076,13H12V1.99481L12.01807,2,13,3V14Z" /><path d="M8.5,5h-3a0.5,0.5,0,0,0,0,1h3A0.5,0.5,0,0,0,8.5,5Z" /><path d="M8.5,7h-3a0.5,0.5,0,0,0,0,1h3A0.5,0.5,0,0,0,8.5,7Z" />
</symbol>
<symbol id="bookmark" viewBox="0 0 16 16"><title>finite-icons</title><path d="M12.2,14.4L8,11.25,3.8,14.4A0.5,0.5,0,0,1,3,14V1.5A0.5,0.5,0,0,1,3.5,1h9a0.5,0.5,0,0,1,.5.5V14A0.5,0.5,0,0,1,12.2,14.4ZM8,8.75L11,11V3H5v8Z" />
</symbol>
<symbol id="brightness-down" viewBox="0 0 16 16"><title>finite-icons</title><path d="M8,5a3,3,0,1,0,3,3A3.00328,3.00328,0,0,0,8,5ZM8,9A1,1,0,1,1,9,8,1.001,1.001,0,0,1,8,9Z" /><circle cx="8.00012" cy="2.99988" r="0.99989" transform="translate(0.22195 6.53558) rotate(-45)" /><circle cx="8.00012" cy="12.99988" r="0.99989" transform="translate(-6.84912 9.46452) rotate(-45)" /><circle cx="13.00012" cy="7.99988" r="0.99989" transform="translate(-1.84912 11.53558) rotate(-45)" /><circle cx="3.00006" cy="7.99982" r="0.99989" transform="translate(-4.77803 4.46446) rotate(-45)" /><circle cx="11.53552" cy="11.53545" r="0.99989" /><circle cx="4.46448" cy="4.46431" r="0.99989" /><circle cx="11.53555" cy="4.46436" r="0.99989" /><circle cx="4.46442" cy="11.53542" r="0.99989" />
</symbol>
<symbol id="brightness-up" viewBox="0 0 16 16"><title>finite-icons</title><path d="M8,5a3,3,0,1,0,3,3A3.00328,3.00328,0,0,0,8,5ZM8,9A1,1,0,1,1,9,8,1.001,1.001,0,0,1,8,9Z" /><path d="M8,4A1,1,0,0,0,9,3V2A1,1,0,0,0,7,2V3A1,1,0,0,0,8,4Z" /><path d="M8,12a1,1,0,0,0-1,1v1a1,1,0,0,0,2,0V13A1,1,0,0,0,8,12Z" /><path d="M14,7H13a1,1,0,0,0,0,2h1A1,1,0,0,0,14,7Z" /><path d="M4,8A1,1,0,0,0,3,7H2A1,1,0,0,0,2,9H3A1,1,0,0,0,4,8Z" /><path d="M3.75739,5.17157A1,1,0,0,0,5.17157,3.75732L4.46448,3.05023A1,1,0,0,0,3.05023,4.46448Z" /><path d="M12.24268,10.82843a1,1,0,0,0-1.41425,1.41425l0.70709,0.70709a1,1,0,1,0,1.41425-1.41418Z" /><path d="M12.24261,5.17157l0.70715-.70709a1,1,0,1,0-1.41425-1.41425l-0.70709.70709A1,1,0,0,0,12.24261,5.17157Z" /><path d="M3.75739,10.82843l-0.70715.70709a1,1,0,1,0,1.41425,1.41418l0.70709-.70709A1,1,0,0,0,3.75739,10.82843Z" />
</symbol>
<symbol id="bulb" viewBox="0 0 16 16"><title>finite-icons</title><rect x="6" y="13" width="4" height="1" rx="0.5" ry="0.5" /><rect x="7" y="13" width="2" height="2" rx="0.5" ry="0.5" /><path d="M10.5,12h-5A0.5,0.5,0,0,1,5,11.5V9.97949A4.96663,4.96663,0,0,1,3.86206,3.20227,4.8991,4.8991,0,0,1,6.834,1.13269,4.99133,4.99133,0,0,1,11,9.97949V11.5A0.5,0.5,0,0,1,10.5,12ZM7,10H9V8.87012l0.49707-.28906A2.96648,2.96648,0,0,0,11,6,3,3,0,0,0,5,6,2.96648,2.96648,0,0,0,6.50293,8.58105L7,8.87012V10Z" />
</symbol>
<symbol id="bus" viewBox="0 0 16 16"><title>finite-icons</title><circle cx="10" cy="9" r="1" /><circle cx="6" cy="9" r="1" /><path d="M13.5,1H2.5a0.5,0.5,0,0,0-.5.5v11a0.5,0.5,0,0,0,.5.5H4v1.5a0.5,0.5,0,0,0,.5.5h1A0.5,0.5,0,0,0,6,14.5V13h4v1.5a0.5,0.5,0,0,0,.5.5h1a0.5,0.5,0,0,0,.5-0.5V13h1.5a0.5,0.5,0,0,0,.5-0.5V1.5A0.5,0.5,0,0,0,13.5,1Zm-6,1h1a0.5,0.5,0,0,1,0,1h-1A0.5,0.5,0,0,1,7.5,2ZM12,11H4V3H5V6.5a0.5,0.5,0,0,0,.5.5h5A0.5,0.5,0,0,0,11,6.5V3h1v8Z" />
</symbol>
<symbol id="cabinet" viewBox="0 0 16 16"><title>finite-icons</title><path d="M14,1.5A0.5,0.5,0,0,0,13.5,1H2.5a0.5,0.5,0,0,0-.5.5v13a0.5,0.5,0,0,0,.5.5h11a0.5,0.5,0,0,0,.5-0.5V1.5ZM12,3V7H4V3h8ZM4,13V9h8v4H4Z" /><path d="M6.5,5h3a0.5,0.5,0,0,0,0-1h-3A0.5,0.5,0,0,0,6.5,5Z" /><path d="M9.5,10h-3a0.5,0.5,0,0,0,0,1h3A0.5,0.5,0,0,0,9.5,10Z" />
</symbol>
<symbol id="calendar-month" viewBox="0 0 16 16"><title>finite-icons</title><path d="M14.5,2H13V3.5a1.5,1.5,0,0,1-3,0V2H6V3.5a1.5,1.5,0,0,1-3,0V2H1.5a0.5,0.5,0,0,0-.5.5v12a0.5,0.5,0,0,0,.5.5h13a0.5,0.5,0,0,0,.5-0.5V2.5A0.5,0.5,0,0,0,14.5,2ZM13,7v6H3V6H13V7Z" /><rect x="4" y="7" width="2" height="2" /><rect x="7" y="7" width="2" height="2" /><rect x="10" y="7" width="2" height="2" /><rect x="4" y="10" width="2" height="2" /><rect x="7" y="10" width="2" height="2" /><rect x="10" y="10" width="2" height="2" /><rect x="4" y="1" width="1" height="3" rx="0.5" ry="0.5" /><rect x="11" y="1" width="1" height="3" rx="0.5" ry="0.5" />
</symbol>
<symbol id="calendar-year" viewBox="0 0 16 16"><title>finite-icons</title><path d="M7,7H9v5H8V8H7V7Z" /><path d="M14.5,2H13V3.5a1.5,1.5,0,0,1-3,0V2H6V3.5a1.5,1.5,0,0,1-3,0V2H1.5a0.5,0.5,0,0,0-.5.5v12a0.5,0.5,0,0,0,.5.5h13a0.5,0.5,0,0,0,.5-0.5V2.5A0.5,0.5,0,0,0,14.5,2ZM13,7v6H3V6H13V7Z" /><rect x="4" y="1" width="1" height="3" rx="0.5" ry="0.5" /><rect x="11" y="1" width="1" height="3" rx="0.5" ry="0.5" />
</symbol>
<symbol id="camera" viewBox="0 0 16 16"><title>finite-icons</title><path d="M8,11A3,3,0,1,0,5,8,3.00328,3.00328,0,0,0,8,11ZM8,7A1,1,0,1,1,7,8,1.001,1.001,0,0,1,8,7Z" /><path d="M14.5,2H13V1.5A0.5,0.5,0,0,0,12.5,1h-2a0.5,0.5,0,0,0-.5.5V2H1.5a0.5,0.5,0,0,0-.5.5v11a0.5,0.5,0,0,0,.5.5h13a0.5,0.5,0,0,0,.5-0.5V2.5A0.5,0.5,0,0,0,14.5,2ZM13,12H3V4H13v8Z" />
</symbol>
<symbol id="car" viewBox="0 0 16 16"><title>finite-icons</title><circle cx="6" cy="9" r="1" /><circle cx="10" cy="9" r="1" /><path d="M6.51306,7H9.35962a0.5,0.5,0,0,0,.485-0.62128l-0.25-1A0.49992,0.49992,0,0,0,9.10962,5H6.85681a0.5001,0.5001,0,0,0-.47284.33746l-0.34375,1A0.5,0.5,0,0,0,6.51306,7Z" /><path d="M13.5,5H12.78076L11.87543,2.37872A0.49992,0.49992,0,0,0,11.39038,2H4.60962a0.49992,0.49992,0,0,0-.485.37872L3.21924,5H2.5a0.5,0.5,0,0,0-.5.5v7a0.5,0.5,0,0,0,.5.5H4v1.5a0.5,0.5,0,0,0,.5.5h1A0.5,0.5,0,0,0,6,14.5V13h4v1.5a0.5,0.5,0,0,0,.5.5h1a0.5,0.5,0,0,0,.5-0.5V13h1.5a0.5,0.5,0,0,0,.5-0.5v-7A0.5,0.5,0,0,0,13.5,5ZM12,11H4V7H4.78076l1-3h4.43848l1,3H12v4Z" />
</symbol>
<symbol id="caret-down" viewBox="0 0 16 16"><title>finite-icons</title><path d="M10.09121,6H6.23986A0.83656,0.83656,0,0,0,5.7235,7.31263L7.64919,9.72855a0.67393,0.67393,0,0,0,1.03272.05254l1.92567-2.49474A0.81439,0.81439,0,0,0,10.09121,6Z" />
</symbol>
<symbol id="caret-left" viewBox="0 0 16 16"><title>finite-icons</title><path d="M10,9.92495V6.07362a0.837,0.837,0,0,0-1.31313-.51636L6.27069,7.48293A0.67393,0.67393,0,0,0,6.218,8.51564L8.71319,10.4413A0.81476,0.81476,0,0,0,10,9.92495Z" />
</symbol>
<symbol id="caret-right" viewBox="0 0 16 16"><title>finite-icons</title><path d="M6,6.07394V9.92526a0.83726,0.83726,0,0,0,1.31344.51636L9.72978,8.516a0.67393,0.67393,0,0,0,.05275-1.03271L7.28708,5.55759A0.815,0.815,0,0,0,6,6.07394Z" />
</symbol>
<symbol id="caret-up" viewBox="0 0 16 16"><title>finite-icons</title><path d="M6.24,10h3.85136a0.83216,0.83216,0,0,0,.51635-1.30746L8.682,6.27921A0.67384,0.67384,0,0,0,7.6493,6.228L5.72363,8.71816A0.81062,0.81062,0,0,0,6.24,10Z" />
</symbol>
<symbol id="cart" viewBox="0 0 16 16"><title>finite-icons</title><path d="M14.49951,3H6V1.5A0.5,0.5,0,0,0,5.5,1h-3a0.5,0.5,0,0,0-.5.5v1a0.5,0.5,0,0,0,.5.5H4V9.50574a2.49494,2.49494,0,0,0-.98676,2.25464A2.5386,2.5386,0,0,0,5,13.913V14a1,1,0,0,0,2,0h3a1,1,0,0,0,2,0V12.5a0.5,0.5,0,0,0-.5-0.5h-6a0.5,0.5,0,0,1,0-1h6.83875a0.50007,0.50007,0,0,0,.46423-0.31433l2.16077-7A0.5,0.5,0,0,0,14.49951,3ZM11.32275,9H6V5h6.28387Z" />
</symbol>
<symbol id="chart-bar" viewBox="0 0 16 16"><title>finite-icons</title><path d="M13.5,15H1V2.5A0.5,0.5,0,0,1,1.5,2h1a0.5,0.5,0,0,1,.5.5V13H13.5a0.5,0.5,0,0,1,.5.5v1A0.5,0.5,0,0,1,13.5,15Z" /><path d="M4.5,9h1a0.5,0.5,0,0,1,.5.5V12a0,0,0,0,1,0,0H4a0,0,0,0,1,0,0V9.5A0.5,0.5,0,0,1,4.5,9Z" /><path d="M7.5,3h1a0.5,0.5,0,0,1,.5.5V12a0,0,0,0,1,0,0H7a0,0,0,0,1,0,0V3.5A0.5,0.5,0,0,1,7.5,3Z" /><path d="M10.5,6h1a0.5,0.5,0,0,1,.5.5V12a0,0,0,0,1,0,0H10a0,0,0,0,1,0,0V6.5A0.5,0.5,0,0,1,10.5,6Z" />
</symbol>
<symbol id="chart-line" viewBox="0 0 16 16"><title>finite-icons</title><path d="M12.5,7h1A0.5,0.5,0,0,0,14,6.5V2H9.5a0.5,0.5,0,0,0-.5.5v1a0.5,0.5,0,0,0,.5.5h1.08594L7,7.58594l-2-2-2,2V2.5A0.5,0.5,0,0,0,2.5,2h-1a0.5,0.5,0,0,0-.5.5V15H13.5a0.5,0.5,0,0,0,.5-0.5v-1a0.5,0.5,0,0,0-.5-0.5H3V10.41406l2-2,2,2,5-5V6.5A0.5,0.5,0,0,0,12.5,7Z" />
</symbol>
<symbol id="chart-pie" viewBox="0 0 16 16"><title>finite-icons</title><path d="M7.00977,15a6.00977,6.00977,0,0,1,0-12.01953h1V7.99023h5.00977v1A6.017,6.017,0,0,1,7.00977,15Zm-1-9.89355a4.01017,4.01017,0,1,0,4.88379,4.88379H6.00977V5.10645Z" /><path d="M9,1a6,6,0,0,1,6,6L9,7Z" />
</symbol>
<symbol id="chat" viewBox="0 0 16 16"><title>finite-icons</title><path d="M1,13.99909V2.48438a0.5,0.5,0,0,1,.5-0.5h13a0.5,0.5,0,0,1,.5.5v8.0147a0.5,0.5,0,0,1-.5.5H6.3335L1.8,14.3991A0.5,0.5,0,0,1,1,13.99909ZM3,3.98438v7.0147l2.6665-2H13V3.98438H3Z" />
</symbol>
<symbol id="check" viewBox="0 0 16 16"><title>finite-icons</title><path d="M6.24268,13L2.35359,9.11137a0.5,0.5,0,0,1,0-.70713l0.707-.707a0.5,0.5,0,0,1,.70708,0l2.47506,2.47463,6.935-6.935a0.5,0.5,0,0,1,.70711,0l0.707,0.707a0.5,0.5,0,0,1,0,.70711Z" />
</symbol>
<symbol id="check-box" viewBox="0 0 16 16"><title>finite-icons</title><path d="M8.03555,12L4.14647,8.11137a0.5,0.5,0,0,1,0-.70713l0.707-.707a0.5,0.5,0,0,1,.70708,0L8.03555,9.17188l5.56816-5.56816a0.5,0.5,0,0,1,.70711,0l0.707,0.707a0.5,0.5,0,0,1,0,.70711Z" /><path d="M12.5,15H1.5A0.5,0.5,0,0,1,1,14.5V3.5A0.5,0.5,0,0,1,1.5,3H12L10,5H3v8h8V11l2-2v5.5A0.5,0.5,0,0,1,12.5,15Z" />
</symbol>
<symbol id="chevron-down" viewBox="0 0 16 16"><title>finite-icons</title><path d="M13.60851,6.08611L8.35425,11.339,3.06908,6.05389a0.5,0.5,0,0,1,0-.70711l0.539-.539a0.5,0.5,0,0,1,.70711,0l4.03907,4.039L12.36249,4.8399a0.5,0.5,0,0,1,.70705.00006l0.539,0.539A0.5,0.5,0,0,1,13.60851,6.08611Z" />
</symbol>
<symbol id="chevron-left" viewBox="0 0 16 16"><title>finite-icons</title><path d="M10.25289,13.26989L5,8.01563l5.28512-5.28512a0.5,0.5,0,0,1,.70711,0l0.539,0.539a0.5,0.5,0,0,1,0,.70711l-4.039,4.039,4.00692,4.00826a0.5,0.5,0,0,1-.00006.707l-0.539.539A0.5,0.5,0,0,1,10.25289,13.26989Z" />
</symbol>
<symbol id="chevron-right" viewBox="0 0 16 16"><title>finite-icons</title><path d="M6.42475,2.73055l5.25289,5.25426L6.39253,13.26994a0.5,0.5,0,0,1-.70711,0l-0.539-.539a0.5,0.5,0,0,1,0-.70711l4.039-4.039L5.17854,3.97655a0.5,0.5,0,0,1,.00006-0.707l0.539-.539A0.5,0.5,0,0,1,6.42475,2.73055Z" />
</symbol>
<symbol id="chevron-up" viewBox="0 0 16 16"><title>finite-icons</title><path d="M3.06911,9.91425L8.32337,4.66137l5.28518,5.28511a0.5,0.5,0,0,1,0,.70711l-0.539.539a0.5,0.5,0,0,1-.70711,0l-4.03907-4.039L4.31512,11.16046a0.5,0.5,0,0,1-.70705-0.00006l-0.539-.539A0.5,0.5,0,0,1,3.06911,9.91425Z" />
</symbol>
<symbol id="clipboard" viewBox="0 0 16 16"><title>finite-icons</title><path d="M10.5,9h-5a0.5,0.5,0,0,0,0,1h5A0.5,0.5,0,0,0,10.5,9Z" /><path d="M10.5,11h-5a0.5,0.5,0,0,0,0,1h5A0.5,0.5,0,0,0,10.5,11Z" /><path d="M10.5,7h-5a0.5,0.5,0,0,0,0,1h5A0.5,0.5,0,0,0,10.5,7Z" /><path d="M13.5,3H12V2.5A0.5,0.5,0,0,0,11.5,2H10A1,1,0,0,0,9,1H7A1,1,0,0,0,6,2H4.5a0.5,0.5,0,0,0-.5.5V3H2.5a0.5,0.5,0,0,0-.5.5v11a0.5,0.5,0,0,0,.5.5h11a0.5,0.5,0,0,0,.5-0.5V3.5A0.5,0.5,0,0,0,13.5,3Zm-6-1h1a0.5,0.5,0,0,1,0,1h-1A0.5,0.5,0,0,1,7.5,2ZM12,7v6H4V5H5V5.50012A0.49984,0.49984,0,0,0,5.49982,6h5.00037A0.49984,0.49984,0,0,0,11,5.50012V5h1V7Z" />
</symbol>
<symbol id="clock" viewBox="0 0 16 16"><title>finite-icons</title><path d="M8,15a7,7,0,1,1,7-7A7.00849,7.00849,0,0,1,8,15ZM8,3a5,5,0,1,0,5,5A5.00589,5.00589,0,0,0,8,3Z" /><path d="M11.27209,7H8.4436L6.61523,5.1655A0.99836,0.99836,0,1,0,5.201,6.57508L7.32239,8.69565,7.32831,8.69917A1.01575,1.01575,0,0,0,8.02948,9h3.24268A1,1,0,0,0,11.27209,7Z" />
</symbol>
<symbol id="cloud" viewBox="0 0 16 16"><title>finite-icons</title><path d="M8.45454,5.5A2.62106,2.62106,0,0,1,11.18182,8c0,0.02706-.00777.05213-0.00871,0.079A1.46106,1.46106,0,0,1,11.63637,8,1.31053,1.31053,0,0,1,13,9.25a1.31053,1.31053,0,0,1-1.36363,1.25H4.81818A1.7474,1.7474,0,0,1,3,8.83333,1.74736,1.74736,0,0,1,4.81818,7.16667a1.92592,1.92592,0,0,1,.98506.26891A2.68393,2.68393,0,0,1,8.45454,5.5m0-2A4.79972,4.79972,0,0,0,4.78172,5.16684,3.74744,3.74744,0,0,0,1,8.83333,3.749,3.749,0,0,0,4.81818,12.5h6.81819A3.312,3.312,0,0,0,15,9.25a3.26377,3.26377,0,0,0-2.21519-3.0549A4.74751,4.74751,0,0,0,8.45454,3.5h0Z" />
</symbol>
<symbol id="cloud-download" viewBox="0 0 16 16"><title>finite-icons</title><path d="M12.78479,3.69507A4.74744,4.74744,0,0,0,8.45453,1,4.79965,4.79965,0,0,0,4.78174,2.66681,3.74748,3.74748,0,0,0,1,6.33331,3.65959,3.65959,0,0,0,3.22424,9.65442L4.87866,8H4.81818A1.74739,1.74739,0,0,1,3,6.33331,1.74735,1.74735,0,0,1,4.81818,4.66663a1.926,1.926,0,0,1,.985.26892A2.68393,2.68393,0,0,1,8.45453,3a2.621,2.621,0,0,1,2.72729,2.5c0,0.027-.00775.05212-0.00873,0.079A1.46057,1.46057,0,0,1,11.63635,5.5,1.31054,1.31054,0,0,1,13,6.75,1.31054,1.31054,0,0,1,11.63635,8h-0.515l1.76245,1.76245A3.25422,3.25422,0,0,0,15,6.75,3.2638,3.2638,0,0,0,12.78479,3.69507Z" /><path d="M10.47491,8.85672a0.49559,0.49559,0,0,0-.70343,0L9,9.63193V6.882a0.4773,0.4773,0,0,0-.50732-0.46448h-1A0.46472,0.46472,0,0,0,7,6.882V9.61722L6.2359,8.85678a0.50227,0.50227,0,0,0-.70892,0l-0.70807.70715a0.5,0.5,0,0,0-.00049.70709L8.00024,13.453l1.41406-1.41418L11.18207,10.271a0.5,0.5,0,0,0,0-.70709Z" />
</symbol>
<symbol id="cloud-upload" viewBox="0 0 16 16"><title>finite-icons</title><path d="M12.78479,3.69507A4.74744,4.74744,0,0,0,8.45453,1,4.79965,4.79965,0,0,0,4.78174,2.66681,3.74748,3.74748,0,0,0,1,6.33331a3.68793,3.68793,0,0,0,2.78864,3.514L5.636,8H4.81818A1.74739,1.74739,0,0,1,3,6.33331,1.74735,1.74735,0,0,1,4.81818,4.66663a1.926,1.926,0,0,1,.985.26892A2.68393,2.68393,0,0,1,8.45453,3a2.621,2.621,0,0,1,2.72729,2.5c0,0.027-.00775.05212-0.00873,0.079A1.46057,1.46057,0,0,1,11.63635,5.5,1.31054,1.31054,0,0,1,13,6.75,1.31054,1.31054,0,0,1,11.63635,8H10.364l1.93524,1.93524A3.28486,3.28486,0,0,0,15,6.75,3.2638,3.2638,0,0,0,12.78479,3.69507Z" /><path d="M9,13.53545V10.80026l0.76411,0.76045a0.50228,0.50228,0,0,0,.70894,0l0.70806-.70715a0.5,0.5,0,0,0,.00046-0.70711L7.99977,6.96452,6.58567,8.37873,4.81792,10.14654a0.5,0.5,0,0,0,0,.70711l0.70712,0.70711a0.4956,0.4956,0,0,0,.70344,0L7,10.78559v2.74991A0.4773,0.4773,0,0,0,7.50731,14h1A0.46471,0.46471,0,0,0,9,13.53545Z" />
</symbol>
<symbol id="code" viewBox="0 0 16 16"><title>finite-icons</title><path d="M4.35348,11.35348L1,8,4.35348,4.64652a0.5,0.5,0,0,1,.70711,0l0.707,0.707a0.5,0.5,0,0,1,0,.70711L3.82813,8,5.76754,9.93942a0.5,0.5,0,0,1,0,.70711l-0.707.707A0.5,0.5,0,0,1,4.35348,11.35348Z" /><path d="M10.93942,11.35348l-0.707-.707a0.5,0.5,0,0,1,0-.70711L12.17188,8,10.23246,6.06058a0.5,0.5,0,0,1,0-.70711l0.707-.707a0.5,0.5,0,0,1,.70711,0L15,8l-3.35348,3.35348A0.5,0.5,0,0,1,10.93942,11.35348Z" /><path d="M7.56276,14H6.6039a0.5,0.5,0,0,1-.4932-0.5822l1.83333-11A0.5,0.5,0,0,1,8.43724,2H9.3961a0.5,0.5,0,0,1,.4932.5822l-1.83333,11A0.5,0.5,0,0,1,7.56276,14Z" />
</symbol>
<symbol id="cog" viewBox="0 0 16 16"><title>finite-icons</title><circle cx="8" cy="8" r="2" /><path d="M9.96027,15H6.03973a0.5,0.5,0,0,1-.49828-0.45856l-0.166-1.99554-1.81143.8537a0.5,0.5,0,0,1-.64615-0.20225L0.95764,9.80276A0.5,0.5,0,0,1,1.10555,9.142L2.751,8,1.10555,6.858A0.5,0.5,0,0,1,.95764,6.19724L2.91791,2.80265A0.5,0.5,0,0,1,3.56406,2.6004L5.37549,3.4541l0.166-1.99554A0.5,0.5,0,0,1,6.03973,1H9.96027a0.5,0.5,0,0,1,.49828.45856l0.166,1.99554,1.81143-.8537a0.5,0.5,0,0,1,.64615.20225l1.96027,3.39459a0.5,0.5,0,0,1-.14791.66081L13.249,8l1.64543,1.142a0.5,0.5,0,0,1,.14791.66081l-1.96027,3.39459a0.5,0.5,0,0,1-.64615.20225l-1.81143-.8537-0.166,1.99554A0.5,0.5,0,0,1,9.96027,15ZM5.51551,5.731l-1.556-.733L3.4837,6.002,5,6.98259V9.01741L3.4837,9.998,4.01138,11.002l1.53008-.733,1.7491,1.0176L7.42041,13H8.57959l0.14282-1.71341,1.76208-1.0176,1.556,0.733L12.5163,9.998,11,9.01741V6.98259L12.5163,6.002,11.98862,4.998l-1.53008.733-1.7491-1.0176L8.57959,3H7.42041L7.27759,4.71341Z" />
</symbol>
<symbol id="coin" viewBox="0 0 16 16"><title>finite-icons</title><path d="M8,10V9.49408a1.98235,1.98235,0,0,0,1.35352-.58l-0.707-.707a1.02353,1.02353,0,0,1-1.41406,0,0.99964,0.99964,0,0,1,0-1.41406,1.02353,1.02353,0,0,1,1.41406,0l0.707-.707A1.98362,1.98362,0,0,0,8,5.5246V5H7V5.75256a1.863,1.863,0,0,0-.47461.33337A1.975,1.975,0,0,0,7,9.25586V10H8Z" /><path d="M13.85895,6.15509a6.49827,6.49827,0,0,1-7.7038,7.70386A5.49317,5.49317,0,0,0,13.85895,6.15509Z" /><path d="M13,7.5A5.5,5.5,0,1,0,7.5,13,5.50622,5.50622,0,0,0,13,7.5Zm-9,0A3.5,3.5,0,1,1,7.5,11,3.50425,3.50425,0,0,1,4,7.5Z" />
</symbol>
<symbol id="compass" viewBox="0 0 16 16"><title>finite-icons</title><path d="M8,15a7,7,0,1,1,7-7A7.00849,7.00849,0,0,1,8,15ZM8,3a5,5,0,1,0,5,5A5.00589,5.00589,0,0,0,8,3Z" /><path d="M6.82288,6.50665a0.50006,0.50006,0,0,0-.31622.31622L5.17145,10.82831,9.17694,9.49316a0.50006,0.50006,0,0,0,.31622-0.31622l1.33521-4.00543ZM8,8.5A0.5,0.5,0,1,1,8.5,8,0.5,0.5,0,0,1,8,8.5Z" />
</symbol>
<symbol id="conversation" viewBox="0 0 16 16"><title>finite-icons</title><path d="M1,14V4.5A0.5,0.5,0,0,1,1.5,4h10a0.5,0.5,0,0,1,.5.5v6a0.5,0.5,0,0,1-.5.5H6.3335L1.8,14.4A0.5,0.5,0,0,1,1,14ZM3,6v5L5.6665,9H10V6H3Z" /><path d="M14.5,8H13V3H4V1.5A0.5,0.5,0,0,1,4.5,1h10a0.5,0.5,0,0,1,.5.5v6A0.5,0.5,0,0,1,14.5,8Z" />
</symbol>
<symbol id="copy" viewBox="0 0 16 16"><title>finite-icons</title><path d="M3,11V3H13V1.5A0.5,0.5,0,0,0,12.5,1H1.5a0.5,0.5,0,0,0-.5.5v11a0.5,0.5,0,0,0,.5.5H3V11Z" /><path d="M14.5,4H4.5a0.5,0.5,0,0,0-.5.5v10a0.5,0.5,0,0,0,.5.5H9.46875L15,8.3623V4.5A0.5,0.5,0,0,0,14.5,4ZM10,11.23755V9h1.86469ZM13,7H8.5a0.5,0.5,0,0,0-.5.5V13H6V6h7V7Z" />
</symbol>
<symbol id="credit-card" viewBox="0 0 16 16"><title>finite-icons</title><path d="M14.5,2H1.5a0.5,0.5,0,0,0-.5.5v11a0.5,0.5,0,0,0,.5.5h13a0.5,0.5,0,0,0,.5-0.5V2.5A0.5,0.5,0,0,0,14.5,2ZM13,4V9H3V4H13ZM3,12V11H13v1H3Z" /><path d="M4.5,6h3a0.5,0.5,0,0,0,0-1h-3A0.5,0.5,0,0,0,4.5,6Z" /><path d="M4.5,8h5a0.5,0.5,0,0,0,0-1h-5A0.5,0.5,0,0,0,4.5,8Z" />
</symbol>
<symbol id="desktop" viewBox="0 0 16 16"><title>finite-icons</title><path d="M14.5,2H1.5a0.5,0.5,0,0,0-.5.5v9a0.5,0.5,0,0,0,.5.5H7v1H3.5a0.5,0.5,0,0,0,0,1h9a0.5,0.5,0,0,0,0-1H9V12h5.5a0.5,0.5,0,0,0,.5-0.5v-9A0.5,0.5,0,0,0,14.5,2ZM13,10H3V4H13v6Z" />
</symbol>
<symbol id="document" viewBox="0 0 16 16"><title>finite-icons</title><path d="M12.51062,1H3.5a0.5,0.5,0,0,0-.5.5v13a0.50916,0.50916,0,0,0,.51062.5h9A0.491,0.491,0,0,0,13,14.5V1.5A0.49107,0.49107,0,0,0,12.51062,1ZM11,13H5V6L8,3h3V13Z" />
</symbol>
<symbol id="document-stack" viewBox="0 0 16 16"><title>finite-icons</title><path d="M13,5v8H4v1.5a0.50915,0.50915,0,0,0,.51061.5h10A0.491,0.491,0,0,0,15,14.5V3.5A0.49107,0.49107,0,0,0,14.51062,3H13V5Z" /><path d="M11.51062,1H2.5a0.5,0.5,0,0,0-.5.5v10a0.50916,0.50916,0,0,0,.51062.5h9A0.491,0.491,0,0,0,12,11.5V1.5A0.49107,0.49107,0,0,0,11.51062,1ZM10,10H4V6L7,3h3v7Z" />
</symbol>
<symbol id="envelope" viewBox="0 0 16 16"><title>finite-icons</title><path d="M13.5,4H2.5a0.5,0.5,0,0,0-.5.5V5.414L2.293,5.707,2.293,5.707l5.35345,5.35345a0.50008,0.50008,0,0,0,.70715,0L12,7.41406l1.707-1.707L14,5.41406V4.5A0.5,0.5,0,0,0,13.5,4ZM8,8.58594L5.41406,6h5.17188Z" /><path d="M12,12H4V8.82825l-2-2V13.5a0.5,0.5,0,0,0,.5.5h11a0.5,0.5,0,0,0,.5-0.5V6.82825l-2,2V12Z" />
</symbol>
<symbol id="envelope-open" viewBox="0 0 16 16"><title>finite-icons</title><path d="M13.81232,5.36938l-5.5-3.39984a0.5,0.5,0,0,0-.62463,0l-5.5,3.39984A0.4999,0.4999,0,0,0,2,5.75983V13.5a0.5,0.5,0,0,0,.5.5h11a0.5,0.5,0,0,0,.5-0.5V5.75983A0.4999,0.4999,0,0,0,13.81232,5.36938ZM12,12H4V6.48047l4-2.2002,4,2.2002V12Z" /><polygon points="8 10 11 7 5 7 8 10" />
</symbol>
<symbol id="external" viewBox="0 0 16 16"><title>finite-icons</title><path d="M13.5,14H2.46875a0.5,0.5,0,0,1-.5-0.5V2.5a0.5,0.5,0,0,1,.5-0.5H7.5a0.5,0.5,0,0,1,.5.5v1a0.5,0.5,0,0,1-.5.5H3.96875v8H12V8.5A0.5,0.5,0,0,1,12.5,8h1a0.5,0.5,0,0,1,.5.5v5A0.5,0.5,0,0,1,13.5,14Z"/><path d="M9.5,2a0.5,0.5,0,0,0-.5.5v1a0.5,0.5,0,0,0,.5.5h1.08594L6.14645,8.43949A0.5,0.5,0,0,0,6,8.793V10H7.207a0.5,0.5,0,0,0,.35355-0.14645L12,5.41406V6.5a0.5,0.5,0,0,0,.5.5h1A0.5,0.5,0,0,0,14,6.5V2H9.5Z" />
</symbol>
<symbol id="eye" viewBox="0 0 16 16"><title>finite-icons</title><path d="M8,6a2,2,0,1,0,2,2A2,2,0,0,0,8,6H8Z" /><path d="M14.99762,7.64642l-0.61591-.78455c-0.0072-.0072-0.01886-0.008-0.02667-0.01447-4.11237-5.07959-8.59772-5.07959-12.71008,0-0.00781.00647-.01947,0.00726-0.02667,0.01447l-0.61591.78455a0.50145,0.50145,0,0,0,0,.70709L1.705,9.24561a0.23115,0.23115,0,0,0,.02283.01111C3.75653,11.73114,5.86328,13,8,13s4.24347-1.26886,6.27216-3.74329A0.23115,0.23115,0,0,0,14.295,9.24561l0.70264-.89209A0.50145,0.50145,0,0,0,14.99762,7.64642ZM3.26953,8c3.25586-3.98242,6.20508-3.98242,9.46094,0C9.47461,11.98242,6.52539,11.98242,3.26953,8Z" />
</symbol>
<symbol id="eye-hide" viewBox="0 0 16 16"><title>finite-icons</title><path d="M14.75934,12.07245L1.906,3.092a0.5,0.5,0,0,0-.51886.85492l12.85333,8.98041a0.4998,0.4998,0,0,0,.68689-0.16809h0.00006A0.50005,0.50005,0,0,0,14.75934,12.07245Z" /><path d="M6.72937,5.24213C8.71088,4.55121,10.65869,5.46588,12.73047,8c-0.26514.32428-.52759,0.61224-0.789,0.88373L13.58936,10.035c0.22839-.24615.45624-0.502,0.6828-0.77832A0.23115,0.23115,0,0,0,14.295,9.24561l0.70264-.89209a0.50145,0.50145,0,0,0,0-.70709l-0.61591-.78455c-0.0072-.0072-0.01886-0.008-0.02667-0.01447-3.05664-3.77557-6.31915-4.73914-9.48163-2.902Z" /><path d="M8,10a1.9738,1.9738,0,0,0,.26624-0.02686L6.04663,8.42236A1.9994,1.9994,0,0,0,8,10Z" /><path d="M9.34613,10.72766C7.33862,11.46881,5.36761,10.56628,3.26953,8c0.28156-.34436.56018-0.64795,0.83752-0.9328L2.45929,5.916C2.18646,6.20551,1.91479,6.5141,1.645,6.84741c-0.00781.00647-.01947,0.00726-0.02667,0.01447l-0.61591.78455a0.50145,0.50145,0,0,0,0,.70709L1.705,9.24561a0.23115,0.23115,0,0,0,.02283.01111C3.75653,11.73114,5.86328,13,8,13a6.16221,6.16221,0,0,0,3.21277-.96814Z" /><path d="M8,6c-0.05566,0-.108.0119-0.16248,0.01636L9.92047,7.47168A1.99444,1.99444,0,0,0,8,6Z" />
</symbol>
<symbol id="facebook" viewBox="0 0 16 16"><title>finite-icons</title><path d="M14.5,1H1.5a0.5,0.5,0,0,0-.5.5v13a0.5,0.5,0,0,0,.5.5h13a0.5,0.5,0,0,0,.5-0.5V1.5A0.5,0.5,0,0,0,14.5,1ZM13,13H8V10h2V8H8V7A1.001,1.001,0,0,1,9,6h1V4H9A3.00328,3.00328,0,0,0,6,7V8H5v2H6v3H3V3H13V13Z" />
</symbol>
<symbol id="feed" viewBox="0 0 16 16"><title>finite-icons</title><path d="M5,14a3,3,0,1,1,3-3A3.00328,3.00328,0,0,1,5,14Zm0-4a1,1,0,1,0,1,1A1.0013,1.0013,0,0,0,5,10Z" /><path d="M6.96017,1.18947A10.07478,10.07478,0,0,0,2.364,1.35395,0.50361,0.50361,0,0,0,2,1.84122v1.059a0.48951,0.48951,0,0,0,.6485.45678A7.989,7.989,0,0,1,12.643,13.3515,0.48951,0.48951,0,0,0,13.09975,14h1.059a0.50361,0.50361,0,0,0,.48727-0.364,10.07478,10.07478,0,0,0,.16448-4.59618A9.99857,9.99857,0,0,0,6.96017,1.18947Z" /><path d="M6.21861,4.61317a6.47689,6.47689,0,0,0-3.933.48564A0.50519,0.50519,0,0,0,2,5.5583V6.68976a0.50034,0.50034,0,0,0,.768.41825,4.47949,4.47949,0,0,1,6.124,6.124A0.50034,0.50034,0,0,0,9.31024,14H10.4417a0.50519,0.50519,0,0,0,.45949-0.28561A6.49085,6.49085,0,0,0,6.21861,4.61317Z" />
</symbol>
<symbol id="film" viewBox="0 0 16 16"><title>finite-icons</title><path d="M13.5,1H12V2H11V1H10V4H6V1H5V2H4V1H2.5a0.5,0.5,0,0,0-.5.5v12a0.5,0.5,0,0,0,.5.5H4V13H5v1H6V11h4v3h1V13h1v1h1.5a0.5,0.5,0,0,0,.5-0.5V1.5A0.5,0.5,0,0,0,13.5,1ZM5,12H4V11H5v1Zm0-2H4V9H5v1ZM5,8H4V7H5V8ZM5,6H4V5H5V6ZM5,4H4V3H5V4Zm5,6H6V5h4v5Zm2,2H11V11h1v1Zm0-2H11V9h1v1Zm0-2H11V7h1V8Zm0-2H11V5h1V6Zm0-2H11V3h1V4Z" />
</symbol>
<symbol id="fire" viewBox="0 0 16 16"><title>finite-icons</title><path d="M12.12659,5.551L9.9743,3.42578l0.22705-1.86a0.49986,0.49986,0,0,0-.777-0.46167S1.79346,4.1875,3.16016,11.19574a4.71653,4.71653,0,0,0,4.20978,3.74194C7.84717,14.98022,8.24976,15,8.637,15a5.08927,5.08927,0,0,0,3.85828-1.30542A5.90055,5.90055,0,0,0,12.12659,5.551Zm-1.07178,6.75616a1.83319,1.83319,0,0,1-.60583.38885,1.95553,1.95553,0,0,0-1.49927-1.72485c-1.625-.50562-1.91663-2.96228-1.91663-2.96228-0.73492,2.49689-.16412,4.0733.68091,4.94891-0.0542-.00433-0.11542-0.00763-0.16663-0.01221C4.01935,12.63141,4.03192,6.61426,7.91089,4c0,0-.30328,3.20038,1.90649,4.94708a2.4908,2.4908,0,0,0,.904-1.973A3.92338,3.92338,0,0,1,11.05481,12.30713Z" />
</symbol>
<symbol id="flag" viewBox="0 0 16 16"><title>finite-icons</title><path d="M13.5,3H10V2H5V1.5A0.5,0.5,0,0,0,4.5,1h-1a0.5,0.5,0,0,0-.5.5v13a0.5,0.5,0,0,0,.5.5h1A0.5,0.5,0,0,0,5,14.5V11H8v1h5.5a0.5,0.5,0,0,0,.5-0.5v-8A0.5,0.5,0,0,0,13.5,3ZM5,9V4H8V9H5Zm7,1H10V5h2v5Z" />
</symbol>
<symbol id="flask" viewBox="0 0 16 16"><title>finite-icons</title><path d="M14.4,14.2L11,9.334V6h1V4.5A0.5,0.5,0,0,0,11.5,4H8A1,1,0,0,0,6,4H4.5a0.5,0.5,0,0,0-.5.5V6H5V9.334L1.6,14.2a0.5,0.5,0,0,0,.4.8H13.99994A0.5,0.5,0,0,0,14.4,14.2ZM7,13a0.99889,0.99889,0,0,0-1.38513-.9223L7,10V6H9V8a1,1,0,0,0,0,2l2,3H7Z" /><circle cx="9" cy="2" r="1" /><circle cx="8.5" cy="11.5" r="0.5" />
</symbol>
<symbol id="folder" viewBox="0 0 16 16"><title>finite-icons</title><path d="M14.5,4H9V1.5A0.5,0.5,0,0,0,8.5,1h-7a0.5,0.5,0,0,0-.5.5v13a0.5,0.5,0,0,0,.5.5h13a0.5,0.5,0,0,0,.5-0.5V4.5A0.5,0.5,0,0,0,14.5,4ZM3,3H7V4H3V3ZM13,13H3V6H13v7Z" />
</symbol>
<symbol id="folder-archive" viewBox="0 0 16 16"><title>finite-icons</title><path d="M5,7.5a0.5,0.5,0,0,0,.5.5H8V7H5.5A0.5,0.5,0,0,0,5,7.5Z" /><path d="M5,9.5a0.5,0.5,0,0,0,.5.5H8V9H5.5A0.5,0.5,0,0,0,5,9.5Z" /><path d="M10.5,9a0.5,0.5,0,0,0,0-1H8V9h2.5Z" /><path d="M5.5,11a0.5,0.5,0,0,0-.5.5v3a0.5,0.5,0,0,0,.5.5h5a0.5,0.5,0,0,0,.5-0.5v-4a0.5,0.5,0,0,0-.5-0.5H8v1H5.5ZM9,13H7V12H9v1Z" /><path d="M14.5,4H9V1.5A0.5,0.5,0,0,0,8.5,1h-7a0.5,0.5,0,0,0-.5.5v12a0.5,0.5,0,0,0,.5.5H4V12H3V6H8V7h2.5A0.5,0.5,0,0,0,11,6.5V6h2v6H12v2h2.5a0.5,0.5,0,0,0,.5-0.5v-9A0.5,0.5,0,0,0,14.5,4ZM7,4H3V3H7V4Z" />
</symbol>
<symbol id="font" viewBox="0 0 16 16"><title>finite-icons</title><path d="M13.63818,13.27637l-5.191-11a0.5,0.5,0,0,0-.89441,0l-5.191,11A0.5,0.5,0,0,0,2.809,14H3.691a0.49989,0.49989,0,0,0,.4472-0.27643L5.5,11h5l1.36182,2.72357A0.49989,0.49989,0,0,0,12.309,14h0.882A0.5,0.5,0,0,0,13.63818,13.27637ZM6.5,9L8,5.2764,9.5,9h-3Z" />
</symbol>
<symbol id="frown" viewBox="0 0 16 16"><title>finite-icons</title><path d="M8,1a7,7,0,1,0,7,7A7.00818,7.00818,0,0,0,8,1ZM8,13a5,5,0,1,1,5-5A5.00589,5.00589,0,0,1,8,13Z" /><circle cx="6" cy="6" r="1" /><circle cx="10" cy="6" r="1" /><path d="M7.99994,8a2.76859,2.76859,0,0,0-2.95726,2.4064A0.51093,0.51093,0,0,0,5.53937,11h4.9212a0.51093,0.51093,0,0,0,.49669-0.59363A2.7687,2.7687,0,0,0,7.99994,8Z" />
</symbol>
<symbol id="gauge" viewBox="0 0 16 16"><title>finite-icons</title><path d="M8,3a7.00786,7.00786,0,0,0-7,7v4H15V10A7.00786,7.00786,0,0,0,8,3Zm5,9H3V10a5,5,0,0,1,10,0v2Z" /><circle cx="4.5" cy="8.5" r="0.5" /><circle cx="6.5" cy="6.5" r="0.5" /><circle cx="11.5" cy="8.5" r="0.5" /><circle cx="9.5" cy="6.5" r="0.5" /><path d="M9.10535,8.05957L6.92969,11H9.61926L10,8.4295A0.499,0.499,0,0,0,9.10535,8.05957Z" />
</symbol>
<symbol id="github" viewBox="0 0 16 16"><title>finite-icons</title><ellipse cx="5" cy="10.5" rx="1" ry="1.5" /><ellipse cx="11" cy="10.5" rx="1" ry="1.5" /><path d="M14.5,4H14L12.41394,1.62091a0.49747,0.49747,0,0,0-.82788,0L10,4H6L4.41394,1.62091a0.49747,0.49747,0,0,0-.82788,0L2,4H1.5a0.5,0.5,0,0,0-.5.5v10a0.5,0.5,0,0,0,.5.5h13a0.5,0.5,0,0,0,.5-0.5V4.5A0.5,0.5,0,0,0,14.5,4ZM13,13H3V8H13v5Z" />
</symbol>
<symbol id="globe" viewBox="0 0 16 16"><title>finite-icons</title><path d="M8,1a7,7,0,1,0,7,7A7.00849,7.00849,0,0,0,8,1ZM6.34521,12.69647l0.50836-.50836A0.50015,0.50015,0,0,0,7,11.83453V10.53625a0.5,0.5,0,0,0-.45074-0.49756L5.15918,9.90106a0.5,0.5,0,0,1-.38989-0.25848L4.05011,8.32166A0.5,0.5,0,0,1,4.12885,7.736L4.7771,7.06183a0.50011,0.50011,0,0,0,.13959-0.34656V5.24188a0.5,0.5,0,0,1,.18964-0.392L5.727,4.35846a0.5,0.5,0,0,0,.1897-0.392V3.46912A4.94845,4.94845,0,0,1,8,3a4.97066,4.97066,0,0,1,.875.08844V4.54163a0.5,0.5,0,0,0,.5.5h1.04169a0.5,0.5,0,0,1,.5.5V6.606a0.5001,0.5001,0,0,1-.33185.47089l-1.0451.5813a0.5,0.5,0,0,0-.10223.89148l1.2674,1.18921a0.5,0.5,0,0,1,.22852.38733l0.12024,1.804A4.8139,4.8139,0,0,1,6.34521,12.69647Z" />
</symbol>
<symbol id="globe-alt" viewBox="0 0 16 16"><title>finite-icons</title><path d="M8,1a7,7,0,1,0,7,7A7.00818,7.00818,0,0,0,8,1Zm2.94769,6h1.95123a4.9974,4.9974,0,0,1,0,2H10.90411A7.56633,7.56633,0,0,0,11,7.85254,7.59659,7.59659,0,0,0,10.94769,7Zm1.62848-1H10.76111A7.45925,7.45925,0,0,0,9.38788,3.22046,5.00426,5.00426,0,0,1,12.57617,6ZM8,12.59088a0.492,0.492,0,0,0-.09473-0.14264A6.47515,6.47515,0,0,1,6.37012,10H9.62988a6.47515,6.47515,0,0,1-1.53516,2.44824A0.492,0.492,0,0,0,8,12.59088ZM6.10571,9a6.10355,6.10355,0,0,1-.04358-2H9.93787a6.10355,6.10355,0,0,1-.04358,2H6.10571ZM8,3.11322a0.492,0.492,0,0,0,.09473.14264A6.46978,6.46978,0,0,1,9.7312,6H6.2688A6.46978,6.46978,0,0,1,7.90527,3.25586,0.492,0.492,0,0,0,8,3.11322Zm-1.38788.10724A7.45925,7.45925,0,0,0,5.23889,6H3.42383A5.00426,5.00426,0,0,1,6.61212,3.22046ZM3,8a5.00013,5.00013,0,0,1,.10107-1H5.05231A7.59659,7.59659,0,0,0,5,7.85254,7.56633,7.56633,0,0,0,5.09589,9H3.10107A5.00013,5.00013,0,0,1,3,8Zm0.42383,2H5.31262a7.44693,7.44693,0,0,0,1.64984,2.88855A5.0136,5.0136,0,0,1,3.42383,10Zm5.61371,2.88855A7.44693,7.44693,0,0,0,10.68738,10h1.88879A5.0136,5.0136,0,0,1,9.03754,12.88855Z" />
</symbol>
<symbol id="google" viewBox="0 0 16 16"><title>finite-icons</title><path d="M8,14A6,6,0,1,1,12.001,3.52881L10.667,5.019A3.99959,3.99959,0,1,0,11.87354,9H8V7h6V8A6.00656,6.00656,0,0,1,8,14Z" />
</symbol>
<symbol id="grid-4" viewBox="0 0 16 16"><title>finite-icons</title><rect x="1" y="1" width="6" height="6" /><rect x="9" y="1" width="6" height="6" /><rect x="1" y="9" width="6" height="6" /><rect x="9" y="9" width="6" height="6" />
</symbol>
<symbol id="grid-9" viewBox="0 0 16 16"><title>finite-icons</title><rect x="1" y="1" width="4" height="4" /><rect x="6" y="1" width="4" height="4" /><rect x="11" y="1" width="4" height="4" /><rect x="1" y="6" width="4" height="4" /><rect x="6" y="6" width="4" height="4" /><rect x="11" y="6" width="4" height="4" /><rect x="1" y="11" width="4" height="4" /><rect x="6" y="11" width="4" height="4" /><rect x="11" y="11" width="4" height="4" />
</symbol>
<symbol id="heading" viewBox="0 0 16 16"><title>finite-icons</title><path d="M12.5,2h-1a0.5,0.5,0,0,0-.5.5V7H5V2.5A0.5,0.5,0,0,0,4.5,2h-1a0.5,0.5,0,0,0-.5.5v11a0.5,0.5,0,0,0,.5.5h1A0.5,0.5,0,0,0,5,13.5V9h6v4.5a0.5,0.5,0,0,0,.5.5h1a0.5,0.5,0,0,0,.5-0.5V2.5A0.5,0.5,0,0,0,12.5,2Z" />
</symbol>
<symbol id="heart" viewBox="0 0 16 16"><title>finite-icons</title><path d="M8.01123,13.84473L2.28076,8.69141a3.66188,3.66188,0,0,1-.00049-5.53418,4.50534,4.50534,0,0,1,5.731-.21289,4.41718,4.41718,0,0,1,5.66113.1499l0.07031,0.063a3.66234,3.66234,0,0,1,0,5.53418ZM5.269,4.00342a2.36884,2.36884,0,0,0-1.58154.57813,1.78688,1.78688,0,0,0-.67041,1.34277A1.71757,1.71757,0,0,0,3.61816,7.2041l4.39307,3.95117,4.394-3.95117a1.6634,1.6634,0,0,0-.00049-2.55957l-0.0708-.064a2.453,2.453,0,0,0-3.16211.001L8.01221,5.625,6.85107,4.58154A2.36919,2.36919,0,0,0,5.269,4.00342Z" />
</symbol>
<symbol id="heart-filled" viewBox="0 0 16 16"><title>finite-icons</title><path d="M8.01123,13.84473L2.28076,8.69141a3.66188,3.66188,0,0,1-.00049-5.53418,4.50534,4.50534,0,0,1,5.731-.21289,4.41718,4.41718,0,0,1,5.66113.1499l0.07031,0.063a3.66234,3.66234,0,0,1,0,5.53418Z" />
</symbol>
<symbol id="help" viewBox="0 0 16 16"><title>finite-icons</title><path d="M8,1a7,7,0,1,0,7,7A7.00786,7.00786,0,0,0,8,1ZM6,8a2,2,0,1,1,2,2A2,2,0,0,1,6,8Zm5.43329,2.019a3.88,3.88,0,0,0,0-4.03809l0.73376-.73376a4.96535,4.96535,0,0,1,0,5.50562Zm-0.68048-6.1861L10.019,4.56671a3.88,3.88,0,0,0-4.03809,0L5.24719,3.83295A4.96535,4.96535,0,0,1,10.75281,3.83295ZM3.83295,5.24719L4.56671,5.981a3.88,3.88,0,0,0,0,4.03809l-0.73376.73376A4.96535,4.96535,0,0,1,3.83295,5.24719Zm1.41425,6.91986L5.981,11.43329a3.87984,3.87984,0,0,0,4.03809-.00006L10.75281,12.167A4.9652,4.9652,0,0,1,5.24719,12.16705Z" />
</symbol>
<symbol id="home" viewBox="0 0 16 16"><title>finite-icons</title><path d="M14.70306,5.94757L8,1.90527,1.29694,5.94757A0.5,0.5,0,0,0,1,6.40448v1.095a0.5,0.5,0,0,0,.70306.45691L3,7.161V13.5a0.5,0.5,0,0,0,.5.5h9a0.5,0.5,0,0,0,.5-0.5V7.161l1.29694,0.79535A0.5,0.5,0,0,0,15,7.49945v-1.095A0.5,0.5,0,0,0,14.70306,5.94757ZM11,12H9V9H7v3H5V5.93451L8,4.09473l3,1.83978V12Z" />
</symbol>
<symbol id="image" viewBox="0 0 16 16"><title>finite-icons</title><path d="M14.5,2H1.5a0.5,0.5,0,0,0-.5.5v11a0.5,0.5,0,0,0,.5.5h13a0.5,0.5,0,0,0,.5-0.5V2.5A0.5,0.5,0,0,0,14.5,2ZM4.41406,12L7,9.41406,9.58594,12H4.41406ZM13,12H12.41406L7.35358,6.93945a0.50008,0.50008,0,0,0-.70715,0L3,10.58594V4H9a4.004,4.004,0,0,0,4,4v4Zm0-6a2.00261,2.00261,0,0,1-2-2h2V6Z" />
</symbol>
<symbol id="image-gallery" viewBox="0 0 16 16"><title>finite-icons</title><path d="M14.5,1H4.5a0.5,0.5,0,0,0-.5.5V3h9v8h1.5a0.5,0.5,0,0,0,.5-0.5v-9A0.5,0.5,0,0,0,14.5,1Z" /><path d="M1,4.5v9a0.5,0.5,0,0,0,.5.5h10a0.5,0.5,0,0,0,.5-0.5V4H1.5A0.5,0.5,0,0,0,1,4.5ZM4.41406,12L6,10.41406,7.58594,12H4.41406ZM10,7.17993A1.39433,1.39433,0,0,1,8.82007,6H10V7.17993ZM6.82007,6A3.38645,3.38645,0,0,0,10,9.17993v2.406L6.35358,7.93945a0.50008,0.50008,0,0,0-.70715,0L3,10.58594V6H6.82007Z" />
</symbol>
<symbol id="inbox" viewBox="0 0 16 16"><title>finite-icons</title><path d="M14.5,1H1.5a0.5,0.5,0,0,0-.5.5v13a0.5,0.5,0,0,0,.5.5h13a0.5,0.5,0,0,0,.5-0.5V1.5A0.5,0.5,0,0,0,14.5,1ZM13,3v7H11v1.5a0.5,0.5,0,0,1-.5.5h-5A0.5,0.5,0,0,1,5,11.5V10H3V3H13Z" />
</symbol>
<symbol id="indent" viewBox="0 0 16 16"><title>finite-icons</title><rect x="3" y="3" width="10" height="2" rx="0.5" ry="0.5" /><rect x="7" y="6" width="6" height="2" rx="0.5" ry="0.5" /><rect x="7" y="9" width="6" height="2" rx="0.5" ry="0.5" /><rect x="3" y="12" width="10" height="2" rx="0.5" ry="0.5" /><path d="M3,7.06752v2.865a0.5,0.5,0,0,0,.82009.38411l1.719-1.43248a0.5,0.5,0,0,0,0-.76822l-1.719-1.43248A0.5,0.5,0,0,0,3,7.06752Z" />
</symbol>
<symbol id="info-circle" viewBox="0 0 16 16"><title>finite-icons</title><path d="M8,15A7,7,0,1,0,1,8,7.00818,7.00818,0,0,0,8,15ZM8,3A5,5,0,1,1,3,8,5.00588,5.00588,0,0,1,8,3Z" /><rect x="7" y="7" width="2" height="5" rx="0.5" ry="0.5" /><circle cx="8" cy="5" r="1" />
</symbol>
<symbol id="instagram" viewBox="0 0 16 16"><title>finite-icons</title><path d="M14.5,15H1.5A0.5,0.5,0,0,1,1,14.5V1.5A0.5,0.5,0,0,1,1.5,1h13a0.5,0.5,0,0,1,.5.5v13A0.5,0.5,0,0,1,14.5,15ZM3,13H13V3H3V13Z" /><path d="M8,12a4,4,0,1,1,4-4A4.00458,4.00458,0,0,1,8,12ZM8,6a2,2,0,1,0,2,2A2.002,2.002,0,0,0,8,6Z" /><circle cx="11.5" cy="4.5" r="0.5" />
</symbol>
<symbol id="italic" viewBox="0 0 16 16"><title>finite-icons</title><path d="M7.48037,14H6.50017a0.5,0.5,0,0,1-.49029-0.59806l2.01946-11A0.5,0.5,0,0,1,8.51963,2h0.9802a0.5,0.5,0,0,1,.49029.59806l-2.01946,11A0.5,0.5,0,0,1,7.48037,14Z" />
</symbol>
<symbol id="key" viewBox="0 0 16 16"><title>finite-icons</title><path d="M14.5,4H8.32007A4.44165,4.44165,0,0,0,5.5,3a4.50019,4.50019,0,1,0,2.82013,8h1.5083L10,10.82843,10.17157,11h2.44977a0.49981,0.49981,0,0,0,.35352-0.14648l1.87872-1.87866A0.5,0.5,0,0,0,15,8.62134V4.5A0.5,0.5,0,0,0,14.5,4ZM13,7V8L12,9H11L10,8,9,9H7.48871a2.5,2.5,0,1,1,0-3H13V7Z" /><circle cx="5.5" cy="7.5" r="0.5" />
</symbol>
<symbol id="keyboard" viewBox="0 0 16 16"><title>finite-icons</title><path d="M14.5,14H1.5A0.5,0.5,0,0,1,1,13.5V3.5A0.5,0.5,0,0,1,1.5,3h13a0.5,0.5,0,0,1,.5.5v10A0.5,0.5,0,0,1,14.5,14ZM3,12H13V5H3v7Z" /><rect x="4" y="10" width="8" height="1" /><rect x="7" y="6" width="1" height="1" /><rect x="4" y="6" width="2" height="1" /><rect x="9" y="6" width="1" height="1" /><rect x="11" y="6" width="1" height="1" /><rect x="4" y="8" width="1" height="1" /><rect x="6" y="8" width="1" height="1" /><rect x="8" y="8" width="1" height="1" /><rect x="10" y="8" width="2" height="1" />
</symbol>
<symbol id="laptop" viewBox="0 0 16 16"><title>finite-icons</title><path d="M14,2.5A0.5,0.5,0,0,0,13.5,2H2.5a0.5,0.5,0,0,0-.5.5V12H14V2.5ZM12,10H4V4h8v6Z" /><path d="M1,13H15a0,0,0,0,1,0,0v0.5a0.5,0.5,0,0,1-.5.5H1.5A0.5,0.5,0,0,1,1,13.5V13A0,0,0,0,1,1,13Z" />
</symbol>
<symbol id="lightning" viewBox="0 0 16 16"><title>finite-icons</title><path d="M10,3L8,6h2L5,10,6,7H5L7,3h3m0-2H6.07295a0.5,0.5,0,0,0-.44721.27639L2.09,8.20562A0.5,0.5,0,0,0,2.49412,9h0.731l-0.12251.36754L1.49641,14.18623a0.5,0.5,0,0,0,.78669.54855l3.96629-3.173,5-4,3.33912-2.67131A0.5,0.5,0,0,0,14.27617,4H11.737L13.2188,1.77735A0.5,0.5,0,0,0,12.80277,1H10Z" />
</symbol>
<symbol id="link" viewBox="0 0 16 16"><title>finite-icons</title><path d="M10.78531,6.53623l-0.00711.00691a2.96365,2.96365,0,0,0-.59391-0.8374L8.7281,7.11994a0.98069,0.98069,0,0,1,0,1.41421L6.678,10.52513l-0.13421.13034-0.7281.7071a1.05246,1.05246,0,0,1-1.45617,0,0.98069,0.98069,0,0,1,0-1.41421l0.10341-.10043a3.89007,3.89007,0,0,1-.553-2.29127L2.9034,8.53415a2.94238,2.94238,0,0,0-.00009,4.24263,3.15771,3.15771,0,0,0,4.36851,0l2.9124-2.82842,0.00715-.00695A2.93111,2.93111,0,0,0,10.78531,6.53623Z" /><path d="M8.72819,2.87732L5.81579,5.70573a2.931,2.931,0,0,0-.59373,3.40566,3.28009,3.28009,0,0,0,.25.42826,3.00238,3.00238,0,0,0,.34359.40871L7.2719,8.53415a0.98069,0.98069,0,0,1,0-1.41421l2.05013-1.991,0.13416-.13029,0.7281-.7071a1.05246,1.05246,0,0,1,1.45617,0,0.98069,0.98069,0,0,1,0,1.41421l-0.0963.09352a3.89007,3.89007,0,0,1,.553,2.29127l0.9994-.97058a2.94238,2.94238,0,0,0,.00009-4.24263A3.15771,3.15771,0,0,0,8.72819,2.87732Z" />
</symbol>
<symbol id="link-broken" viewBox="0 0 16 16"><title>finite-icons</title><path d="M5.25966,6.8696a0.5,0.5,0,0,0-.69933.00761L2.9034,8.53415a2.94238,2.94238,0,0,0-.00009,4.24263,3.15771,3.15771,0,0,0,4.36851,0l1.94549-1.875a0.50421,0.50421,0,0,0-.00039-0.72647L8.47727,9.464a0.5,0.5,0,0,0-.69272-0.00043L6.678,10.52513l-0.13421.13034-0.7281.7071a1.05246,1.05246,0,0,1-1.45617,0,0.98069,0.98069,0,0,1,0-1.41421L6.01136,8.29653a0.5,0.5,0,0,0-.00778-0.71472Z" /><path d="M10.70077,8.80968a0.5,0.5,0,0,0,.7066-0.0005L13.0966,7.11995a2.94238,2.94238,0,0,0,.00009-4.24263,3.15771,3.15771,0,0,0-4.36851,0L6.90558,4.63021a0.5,0.5,0,0,0-.00176.71906L7.64328,6.06744a0.5,0.5,0,0,0,.6938.0028l0.985-.94131,0.13416-.13029,0.7281-.7071a1.05246,1.05246,0,0,1,1.45617,0,0.98069,0.98069,0,0,1,0,1.41421L9.97117,7.375a0.5,0.5,0,0,0,.0005.70761Z" /><rect x="3.16669" y="1.81878" width="1.03125" height="3.72702" rx="0.51562" ry="0.51562" transform="translate(-1.52525 3.68232) rotate(-45.00011)" /><rect x="5.96875" y="1" width="1" height="2" rx="0.5" ry="0.5" /><rect x="1" y="6" width="2" height="1" rx="0.5" ry="0.5" /><rect x="11.77081" y="10.4542" width="1.03125" height="3.72702" rx="0.51563" ry="0.51563" transform="translate(29.6842 12.33987) rotate(135.00014)" /><rect x="8.99999" y="13" width="1" height="2" rx="0.5" ry="0.5" transform="translate(18.99996 28) rotate(-179.99995)" /><rect x="13" y="9" width="2" height="1" rx="0.5" ry="0.5" />
</symbol>
<symbol id="linkedin" viewBox="0 0 16 16"><title>finite-icons</title><path d="M9,12V9.5a0.5,0.5,0,0,1,1,0V12h2V9a2,2,0,0,0-2-2H7v5H9Z" /><circle cx="5" cy="5" r="1" /><path d="M14.5,1H1.5a0.5,0.5,0,0,0-.5.5v13a0.5,0.5,0,0,0,.5.5h13a0.5,0.5,0,0,0,.5-0.5V1.5A0.5,0.5,0,0,0,14.5,1ZM13,12v1H3V3H13v9Z" /><rect x="4" y="7" width="2" height="5" />
</symbol>
<symbol id="list-ol" viewBox="0 0 16 16"><title>finite-icons</title><rect x="5" y="3" width="9" height="2" rx="0.5" ry="0.5" /><rect x="5" y="7" width="9" height="2" rx="0.5" ry="0.5" /><rect x="5" y="11" width="9" height="2" rx="0.5" ry="0.5" /><path d="M2.43844,1.99608H3.64156V4.99216H3.00387V2.58688H2.43844V1.99608Z" /><path d="M3.15234,7.1875a0.53606,0.53606,0,0,0,.1123-0.30811A0.33978,0.33978,0,0,0,3.167,6.63086a0.33473,0.33473,0,0,0-.251-0.1001,0.68292,0.68292,0,0,0-.53125.39941L1.85352,6.61572a1.6386,1.6386,0,0,1,.457-0.48877,1.12077,1.12077,0,0,1,.63281-0.16553,1.019,1.019,0,0,1,.67578.24414,0.82292,0.82292,0,0,1,.292.665,0.89053,0.89053,0,0,1-.11719.43994,2.87918,2.87918,0,0,1-.43164.5376l-0.53516.55664H4V9H1.9043V8.50684l0.87207-.89258A3.90321,3.90321,0,0,0,3.15234,7.1875Z" /><path d="M2.04,10.56055V9.99512H3.85938v0.459L3.252,11.14746A0.84687,0.84687,0,0,1,4,12.001a0.90244,0.90244,0,0,1-.31738.7334A1.21725,1.21725,0,0,1,2.873,13a1.75524,1.75524,0,0,1-.998-0.34863L2.14648,12.124a1.34788,1.34788,0,0,0,.75293.29785,0.531,0.531,0,0,0,.3291-0.09766A0.33367,0.33367,0,0,0,3.3584,12.042,0.34392,0.34392,0,0,0,3.209,11.748a0.68668,0.68668,0,0,0-.41211-0.1084,1.42638,1.42638,0,0,0-.39551.08105V11.23145l0.56934-.6709H2.04Z" />
</symbol>
<symbol id="list-ul" viewBox="0 0 16 16"><title>finite-icons</title><rect x="5" y="3" width="9" height="2" rx="0.5" ry="0.5" /><rect x="5" y="7" width="9" height="2" rx="0.5" ry="0.5" /><rect x="5" y="11" width="9" height="2" rx="0.5" ry="0.5" /><circle cx="3" cy="4" r="1" /><circle cx="3" cy="8" r="1" /><circle cx="3" cy="12" r="1" />
</symbol>
<symbol id="lock" viewBox="0 0 16 16"><title>finite-icons</title><path d="M12.5,6H12V5A4,4,0,0,0,4,5V6H3.5A1.50164,1.50164,0,0,0,2,7.5v6A1.50164,1.50164,0,0,0,3.5,15h9A1.50164,1.50164,0,0,0,14,13.5v-6A1.50164,1.50164,0,0,0,12.5,6ZM6,5a2,2,0,0,1,4,0V6H6V5Zm6,8H4V8h8v5Z" />
</symbol>
<symbol id="lock-open" viewBox="0 0 16 16"><title>finite-icons</title><path d="M12.5,6H12V5.17731A4.12165,4.12165,0,0,0,8.586,1.04187a3.98122,3.98122,0,0,0-4.181,2.245A0.50671,0.50671,0,0,0,4.87,4H6.01263a0.5249,0.5249,0,0,0,.41174-0.21924,1.992,1.992,0,0,1,2.04016-.72809A2.07885,2.07885,0,0,1,10,5.11334V6H3.5A1.50164,1.50164,0,0,0,2,7.5v6A1.50164,1.50164,0,0,0,3.5,15h9A1.50164,1.50164,0,0,0,14,13.5v-6A1.50164,1.50164,0,0,0,12.5,6ZM12,13H4V8h8v5Z" />
</symbol>
<symbol id="logout" viewBox="0 0 16 16"><title>finite-icons</title><path d="M7.42906,9h3.73519l-0.76045.76411a0.50228,0.50228,0,0,0,0,.70894L11.111,11.18111a0.5,0.5,0,0,0,.70711.00046L15,7.99978l-1.41421-1.4141L11.818,4.81792a0.5,0.5,0,0,0-.70711,0l-0.70711.70712a0.49561,0.49561,0,0,0,0,.70344L11.17893,7H7.429A0.45071,0.45071,0,0,0,7,7.50729v1A0.438,0.438,0,0,0,7.42906,9Z" /><path d="M9,6V2.5A0.5,0.5,0,0,0,8.5,2h-7a0.5,0.5,0,0,0-.5.5v11a0.5,0.5,0,0,0,.5.5h7A0.5,0.5,0,0,0,9,13.5V10H7v2H3V4H7V6H9Z" />
</symbol>
<symbol id="map" viewBox="0 0 16 16"><title>finite-icons</title><path d="M9.77639,0.99364L6,2.88184,1.72361,0.74364A0.5,0.5,0,0,0,1,1.19085V12.30915a0.5,0.5,0,0,0,.27639.44721l4.5,2.25a0.5,0.5,0,0,0,.44721,0L10,13.11816l4.27639,2.1382A0.5,0.5,0,0,0,15,14.80915V3.69085a0.5,0.5,0,0,0-.27639-0.44721l-4.5-2.25A0.5,0.5,0,0,0,9.77639.99364ZM5,12.38184l-2-1V3.61816l2,1v7.76367ZM7,4.61816l2-1v7.76367l-2,1V4.61816Zm6,7.76367-2-1V3.61816l2,1v7.76367Z" />
</symbol>
<symbol id="marker" viewBox="0 0 16 16"><title>finite-icons</title><path d="M8.39077,14.673a0.49548,0.49548,0,0,1-.78154,0C6.432,13.174,3,8.02754,3,6A5,5,0,0,1,13,6C13,8.02754,9.568,13.174,8.39077,14.673ZM8,3A3.00328,3.00328,0,0,0,5,6c0,1.0752,1.56934,4.13281,3,6,1.43018-1.86816,3-4.92676,3-6A3.00328,3.00328,0,0,0,8,3Z" /><circle cx="8" cy="6" r="1" />
</symbol>
<symbol id="megaphone" viewBox="0 0 16 16"><title>finite-icons</title><path d="M14.43451,7H14V1.93115c0-.40155-0.72333-0.57758-1.05524-0.35162L9.20624,4H5V4.01416a3.9817,3.9817,0,0,0-1,7.80023V14.5a0.5,0.5,0,0,0,.5.5h2A0.5,0.5,0,0,0,7,14.5V12H9.20721l3.73749,2.35144A0.74069,0.74069,0,0,0,14,13.93115V9h0.43451a0.5,0.5,0,0,0,.5-0.5v-1A0.5,0.5,0,0,0,14.43451,7ZM12,11.09528L9.78827,10H7V6H9.82251L12,4.76715v6.32813Z" />
</symbol>
<symbol id="menu" viewBox="0 0 16 16"><title>finite-icons</title><rect x="3" y="3" width="10" height="2" rx="0.5" ry="0.5" /><rect x="3" y="7" width="10" height="2" rx="0.5" ry="0.5" /><rect x="3" y="11" width="10" height="2" rx="0.5" ry="0.5" />
</symbol>
<symbol id="minus" viewBox="0 0 16 16"><title>finite-icons</title><rect x="3" y="7" width="10" height="2" rx="0.5" ry="0.5" />
</symbol>
<symbol id="mobile" viewBox="0 0 16 16"><title>finite-icons</title><path d="M11.5,2h-7a0.5,0.5,0,0,0-.5.5v11a0.5,0.5,0,0,0,.5.5h7a0.5,0.5,0,0,0,.5-0.5V2.5A0.5,0.5,0,0,0,11.5,2Zm-3,11h-1a0.5,0.5,0,0,1,0-1h1A0.5,0.5,0,0,1,8.5,13ZM10,11H6V4h4v7Z" />
</symbol>
<symbol id="mouse" viewBox="0 0 16 16"><title>finite-icons</title><path d="M8.74359,3.02863A3.018,3.018,0,0,0,7.418,1.37891a2.81639,2.81639,0,0,0-2.6416.17383,2.20711,2.20711,0,0,1-1.897.33105A1.1486,1.1486,0,0,1,2.5,1.00977l-1-.02344a2.12183,2.12183,0,0,0,.83936,1.73828c0.68115,0.43457,1.65186.34082,2.88428-.27734a1.9004,1.9004,0,0,1,1.72754-.18359,1.80341,1.80341,0,0,1,.73547.83148A4.65127,4.65127,0,0,0,4,7.70013V14.5a0.5,0.5,0,0,0,.5.5h8a0.5,0.5,0,0,0,.5-0.5v-7A4.49016,4.49016,0,0,0,8.74359,3.02863ZM11,13H6V7.5a2.5,2.5,0,0,1,5,0V13Z" /><path d="M8.5,6a0.5,0.5,0,0,0-.5.5v2a0.5,0.5,0,0,0,1,0v-2A0.5,0.5,0,0,0,8.5,6Z" />
</symbol>
<symbol id="network" viewBox="0 0 16 16"><title>finite-icons</title><path d="M10.18463,3.084a1.84358,1.84358,0,0,0-.46991,1.787l-0.48963.48963A2.81044,2.81044,0,0,0,5.57295,6.385L4.948,6.22067A1.8267,1.8267,0,0,0,4.506,5.4862a1.84965,1.84965,0,1,0-.06534,2.66909L5.17,8.34712A2.8284,2.8284,0,0,0,5.4288,9.157L4.83968,9.7461a1.85756,1.85756,0,1,0,1.41572,1.4127L6.879,10.53525a2.83426,2.83426,0,0,0,.74573.18761l0.22,0.83641A1.84643,1.84643,0,1,0,10.5138,11.494a1.8267,1.8267,0,0,0-.73447-0.442l-0.207-.78678A2.84677,2.84677,0,0,0,10.60582,6.8084l0.59554-.59554A1.8473,1.8473,0,1,0,10.18463,3.084ZM2.59731,7.39488a0.84964,0.84964,0,1,1,1.20153,0A0.84959,0.84959,0,0,1,2.59731,7.39488ZM5.05051,12.151a0.84961,0.84961,0,1,1,0-1.20153A0.84965,0.84965,0,0,1,5.05051,12.151Zm4.75618,1.25164a0.84964,0.84964,0,1,1,0-1.20153A0.84961,0.84961,0,0,1,9.80669,13.40265ZM8.57707,8.509a0.84964,0.84964,0,1,1,0-1.20157A0.84959,0.84959,0,0,1,8.57707,8.509Zm3.51624-3.51624a0.84964,0.84964,0,1,1,0-1.20153A0.84965,0.84965,0,0,1,12.09331,4.99272Z" />
</symbol>
<symbol id="outdent" viewBox="0 0 16 16"><title>finite-icons</title><rect x="3" y="3" width="10" height="2" rx="0.5" ry="0.5" /><rect x="7" y="6" width="6" height="2" rx="0.5" ry="0.5" /><rect x="7" y="9" width="6" height="2" rx="0.5" ry="0.5" /><rect x="3" y="12" width="10" height="2" rx="0.5" ry="0.5" /><path d="M6,9.93248v-2.865a0.50376,0.50376,0,0,0-.82535-0.38411L3.453,8.11588a0.5,0.5,0,0,0-.00131.76822l1.72357,1.43248A0.50328,0.50328,0,0,0,6,9.93248Z" />
</symbol>
<symbol id="paperclip" viewBox="0 0 16 16"><title>finite-icons</title><path d="M6.60017,14.98045A4.12114,4.12114,0,0,1,3,10.82212V6.74528A5.66715,5.66715,0,0,1,7.95073,1.02685,5.50638,5.50638,0,0,1,14,6.5v6a0.5,0.5,0,0,1-.5.5h-1a0.5,0.5,0,0,1-.5-0.5V6.60071A3.56477,3.56477,0,0,0,9.23514,3.07537,3.50626,3.50626,0,0,0,5,6.5v4.38761a2.07917,2.07917,0,0,0,1.66245,2.08457A2.00283,2.00283,0,0,0,9,11V6.5a0.5,0.5,0,0,0-1,0v3a0.5,0.5,0,0,1-.5.5h-1A0.5,0.5,0,0,1,6,9.5V6.64741a2.60205,2.60205,0,0,1,2.23842-2.634A2.50265,2.50265,0,0,1,11,6.5V11A4.00425,4.00425,0,0,1,6.60017,14.98045Z" />
</symbol>
<symbol id="paste" viewBox="0 0 16 16"><title>finite-icons</title><path d="M13.5,3H12V2.5A0.5,0.5,0,0,0,11.5,2H10A1,1,0,0,0,9,1H7A1,1,0,0,0,6,2H4.5a0.5,0.5,0,0,0-.5.5V3H2.5a0.5,0.5,0,0,0-.5.5v11a0.5,0.5,0,0,0,.5.5H8.46875L14,8.3623V3.5A0.5,0.5,0,0,0,13.5,3ZM4,5h8V7H7.5a0.5,0.5,0,0,0-.5.5V13H4V5Zm6.86469,4L9,11.23755V9h1.86469Z" />
</symbol>
<symbol id="pencil" viewBox="0 0 16 16"><title>finite-icons</title><path d="M14.37438,5.16125L10.83887,1.62573a0.5,0.5,0,0,0-.70709,0L9.60852,2.149,9.60846,2.149l-7.462,7.462a0.5,0.5,0,0,0-.14645.35355L2,13.497A0.503,0.503,0,0,0,2.5,14l3.51174,0.02085a0.5,0.5,0,0,0,.35652-0.14644l6.37735-6.37735,0.00006,0.00006,1.62872-1.62878A0.5,0.5,0,0,0,14.37438,5.16125Zm-9.546,7.42457L3.41425,11.17163l6.503-6.503,1.41418,1.41418Z" />
</symbol>
<symbol id="pencil-box" viewBox="0 0 16 16"><title>finite-icons</title><path d="M12.5,15H1.5A0.5,0.5,0,0,1,1,14.5V3.5A0.5,0.5,0,0,1,1.5,3H7L5,5H3v8h8V11l2-2v5.5A0.5,0.5,0,0,1,12.5,15Z" /><path d="M14.79937,4.7154L11.26385,1.17988a0.5,0.5,0,0,0-.70709,0l-0.52325.52332-0.00006-.00006L4.1465,7.59008a0.5,0.5,0,0,0-.14645.35355L4,11.47616a0.503,0.503,0,0,0,.5.503L8.01174,12a0.5,0.5,0,0,0,.35652-0.14644L14.79938,5.4225A0.5,0.5,0,0,0,14.79937,4.7154ZM6.82843,10.565L5.41425,9.15077l4.928-4.928L11.75641,5.637Z" />
</symbol>
<symbol id="phone" viewBox="0 0 16 16"><title>finite-icons</title><path d="M4.29944,3.76831L3.9687,4.099l0.33073-.33073L6.42076,5.88963,5.379,6.93137a0.5,0.5,0,0,0-.00034.70677l2.82368,2.83318a0.5,0.5,0,0,0,.70745.00034L9.95629,9.42517l2.12132,2.12132-0.77493.77492c-1.09286,1.09286-2.777.59958-3.79715-.42317L3.97022,8.34858a3.00835,3.00835,0,0,1-.00431-4.24676M3.2721,1.96721l-0.71762.71762A5.0038,5.0038,0,0,0,2.55,9.75679l3.5271,3.54145a4.84415,4.84415,0,0,0,6.36568.64569l0.15263-.0868,0.12149-.12149,1.1411-1.1411,0.69448-.69448a0.5,0.5,0,0,0,0-.70711L10.30985,6.9503a0.5,0.5,0,0,0-.70711,0l-0.69158.69158a0.5,0.5,0,0,1-.70745-0.00034l0.002-.002a0.5,0.5,0,0,1,.00034-0.70677l0.68955-.68954a0.5,0.5,0,0,0,0-.70711L4.653,1.29344a0.5,0.5,0,0,0-.70711,0Z" />
</symbol>
<symbol id="pin" viewBox="0 0 16 16"><title>finite-icons</title><path d="M14.7021,7.75319L9.04573,2.09639a0.50008,0.50008,0,0,0-.70715,0L7.27827,4.57094l0.707,0.707L5.84065,7.42305l-3.144-.184a0.5,0.5,0,0,0-.38275.85266l2.84265,2.84314L2.14644,13.945a0.5,0.5,0,0,0,.70709.70709L5.8636,11.642l3.17554,3.17609a0.5,0.5,0,0,0,.84967-0.41571l-0.44073-3.517,2.07239-2.07184,0.707,0.707L14.702,8.46029A0.5,0.5,0,0,0,14.7021,7.75319Zm-7.4079,2.428L6.58711,9.47408,10.12263,5.9385l0.70715,0.70715Z" />
</symbol>
<symbol id="planet" viewBox="0 0 16 16"><title>finite-icons</title><path d="M12.59619,2.69666C12.05865,2.15912,11.2467,2.13116,10.183,2.6134a8.80886,8.80886,0,0,0-1.009.56281,4.92678,4.92678,0,0,0-5.9986,5.99323A8.6556,8.6556,0,0,0,2.61346,10.183c-0.4823,1.06372-.45428,1.87567.08325,2.41321,0.70575,0.70575,1.833.42761,2.98059-.20807a4.95064,4.95064,0,0,0,6.71082-6.71082C13.0238,4.52966,13.30194,3.4024,12.59619,2.69666ZM3.40381,11.8891a1.24825,1.24825,0,0,1,.12042-1.29321c0.03162-.0697.07574-0.14777,0.11334-0.2215a4.99142,4.99142,0,0,0,.40936.64966A8.95916,8.95916,0,0,0,5.76746,9.985,2.98666,2.98666,0,0,1,9.985,5.76746a8.95439,8.95439,0,0,0,1.039-1.72058,4.99172,4.99172,0,0,0-.64368-0.40552c0.06927-.035.14972-0.08728,0.21552-0.11713a1.24811,1.24811,0,0,1,1.29321-.12042c0.2804,0.2804.09009,0.977-.43109,1.87744-0.03137.05353-.05859,0.10681-0.09131,0.16034-0.116.19092-.25067,0.3927-0.394,0.59882-0.0517.07379-.1026,0.14728-0.15576,0.22009A20.72177,20.72177,0,0,1,8.70709,8.70709a20.72455,20.72455,0,0,1-2.44653,2.10974c-0.07288.05328-.14642,0.10419-0.22028,0.15594-0.20593.14319-.40747,0.27783-0.59827,0.39368-0.054.033-.10767,0.06049-0.16168,0.0921C4.38043,11.97925,3.68414,12.16937,3.40381,11.8891Zm6.71753-1.76782A2.95943,2.95943,0,0,1,7.71,10.96509c0.73029-.60205,1.34772-1.1944,1.70422-1.5509S10.363,8.44031,10.96509,7.71A2.95926,2.95926,0,0,1,10.12134,10.12128Z" />
</symbol>
<symbol id="player-backward" viewBox="0 0 16 16"><title>finite-icons</title><path d="M1.87328,8.37885L7.997,12.30322A0.714,0.714,0,0,0,9,11.875V9.74622l4.24188,2.557A0.5,0.5,0,0,0,14,11.875V4.11469a0.5,0.5,0,0,0-.75385-0.43079L9,6.18579V4.11469A0.71484,0.71484,0,0,0,8.00125,3.6839L2,7.51984A0.50963,0.50963,0,0,0,1.87328,8.37885ZM12,6.73969V9.21918L9.91943,7.96527Zm-5,0V9.21918L4.91943,7.96527Z" />
</symbol>
<symbol id="player-forward" viewBox="0 0 16 16"><title>finite-icons</title><path d="M14.00427,7.61084L7.75812,3.68646A0.5,0.5,0,0,0,7,4.11469V6.24347l-4.24188-2.557A0.5,0.5,0,0,0,2,4.11469V11.875a0.5,0.5,0,0,0,.75385.43079L7,9.80389V11.875a0.5,0.5,0,0,0,.75385.43079L14,8.46985A0.5,0.5,0,0,0,14.00427,7.61084ZM4,9.25V6.77051L6.08057,8.02441Zm5,0V6.77051l2.08057,1.25391Z" />
</symbol>
<symbol id="player-mute" viewBox="0 0 16 16"><title>finite-icons</title><path d="M11,3.05463a0.602,0.602,0,0,0-.90936-0.41333L6.49786,5H6.32928L11,7.83484V3.05463Z" /><path d="M2.80212,8.5979A3.07974,3.07974,0,0,0,5.86237,11H6.49884l3.59174,2.35852A0.602,0.602,0,0,0,11,12.94525v-1.601l-7.88049-4.783A2.99836,2.99836,0,0,0,2.80212,8.5979Z" /><path d="M12.75934,10.07245L2.906,4.092a0.5,0.5,0,0,0-.51886.85492l1.367,0.82971h0l2.75641,1.673,5.72992,3.47772a0.4998,0.4998,0,0,0,.68689-0.16809h0.00006A0.50005,0.50005,0,0,0,12.75934,10.07245Z" />
</symbol>
<symbol id="player-pause" viewBox="0 0 16 16"><title>finite-icons</title><path d="M7.5,13h-4A0.5,0.5,0,0,1,3,12.5v-9A0.5,0.5,0,0,1,3.5,3h4a0.5,0.5,0,0,1,.5.5v9A0.5,0.5,0,0,1,7.5,13ZM5,11H6V5H5v6Z" /><path d="M13.5,13h-4A0.5,0.5,0,0,1,9,12.5v-9A0.5,0.5,0,0,1,9.5,3h4a0.5,0.5,0,0,1,.5.5v9A0.5,0.5,0,0,1,13.5,13ZM11,11h1V5H11v6Z" />
</symbol>
<symbol id="player-play" viewBox="0 0 16 16"><title>finite-icons</title><path d="M3,12.80913V3.19087a0.5,0.5,0,0,1,.72361-0.44721L12.5773,7.55279a0.5,0.5,0,0,1,0,.89442L3.72361,13.25634A0.5,0.5,0,0,1,3,12.80913Zm2-7.191v4.76367L9,8Z" />
</symbol>
<symbol id="player-skip-backward" viewBox="0 0 16 16"><title>finite-icons</title><path d="M13,6V4.125a0.5,0.5,0,0,0-.75385-0.43079L6,7.53015a0.5,0.5,0,0,0-.00427.859l6.24615,3.92438A0.5,0.5,0,0,0,13,11.88531V6Zm-2,.75V9.22949L8.91943,7.97559Z" /><rect x="3" y="3" width="2" height="10" rx="0.5" ry="0.5" transform="translate(8 16) rotate(180)" />
</symbol>
<symbol id="player-skip-forward" viewBox="0 0 16 16"><title>finite-icons</title><path d="M3,10v1.875a0.5,0.5,0,0,0,.75385.43079L10,8.46985a0.5,0.5,0,0,0,.00427-0.859L3.75812,3.68646A0.5,0.5,0,0,0,3,4.11469V10Zm2-.75V6.77051L7.08057,8.02441Z" /><rect x="11" y="3" width="2" height="10" rx="0.5" ry="0.5" />
</symbol>
<symbol id="player-stop" viewBox="0 0 16 16"><title>finite-icons</title><path d="M12.5,13h-9A0.5,0.5,0,0,1,3,12.5v-9A0.5,0.5,0,0,1,3.5,3h9a0.5,0.5,0,0,1,.5.5v9A0.5,0.5,0,0,1,12.5,13ZM5,11h6V5H5v6Z" />
</symbol>
<symbol id="player-volume-down" viewBox="0 0 16 16"><title>finite-icons</title><path d="M8.2186,2.6413L4.75388,5H4A3.00484,3.00484,0,0,0,1.05814,8.5979,3.07974,3.07974,0,0,0,4.11838,11H4.75485l3.46368,2.35852A0.5,0.5,0,0,0,9,12.94525V3.05463A0.5,0.5,0,0,0,8.2186,2.6413ZM7,10.10938L5.33591,9H4A1,1,0,1,1,4,7H5.37015L7,5.89063v4.21875Z" /><rect x="9.99997" y="6" width="1" height="4" rx="0.5" ry="0.5" />
</symbol>
<symbol id="player-volume-off" viewBox="0 0 16 16"><title>finite-icons</title><path d="M8.2186,2.6413L4.75388,5H4A3.00484,3.00484,0,0,0,1.05814,8.5979,3.07974,3.07974,0,0,0,4.11838,11H4.75485l3.46368,2.35852A0.5,0.5,0,0,0,9,12.94525V3.05463A0.5,0.5,0,0,0,8.2186,2.6413ZM7,10.10938L5.33591,9H4A1,1,0,1,1,4,7H5.37015L7,5.89063v4.21875Z" />
</symbol>
<symbol id="player-volume-up" viewBox="0 0 16 16"><title>finite-icons</title><path d="M8.21863,2.6413L4.75391,5H4A3.00484,3.00484,0,0,0,1.05817,8.5979,3.07974,3.07974,0,0,0,4.11841,11H4.75488l3.46368,2.35852A0.5,0.5,0,0,0,9,12.94525V3.05463A0.5,0.5,0,0,0,8.21863,2.6413ZM7,10.10938L5.33594,9H4A1,1,0,0,1,4,7H5.37018L7,5.89063v4.21875Z" /><rect x="10" y="6" width="1" height="4" rx="0.5" ry="0.5" /><rect x="12" y="4" width="1" height="8" rx="0.5" ry="0.5" /><rect x="14" y="2" width="1" height="12" rx="0.5" ry="0.5" />
</symbol>
<symbol id="plus" viewBox="0 0 16 16"><title>finite-icons</title><rect x="7" y="3" width="2" height="10" rx="0.5" ry="0.5" /><rect x="3" y="7" width="10" height="2" rx="0.5" ry="0.5" />
</symbol>
<symbol id="pointer" viewBox="0 0 16 16"><title>finite-icons</title><path d="M12.5,6a2.47633,2.47633,0,0,0-.85645.15137A2.49971,2.49971,0,0,0,8.5791,5.11328,2.56652,2.56652,0,0,0,6,4.05029V3.5a2.5,2.5,0,0,0-5,0v8A3.50425,3.50425,0,0,0,4.5,15h7A3.50425,3.50425,0,0,0,15,11.5v-3A2.50263,2.50263,0,0,0,12.5,6ZM13,11.5A1.50164,1.50164,0,0,1,11.5,13h-7A1.50164,1.50164,0,0,1,3,11.5v-8a0.5,0.5,0,0,1,1,0v5a0.5,0.5,0,0,0,.5.5h1A0.5,0.5,0,0,0,6,8.5v-2a0.5,0.5,0,0,1,1,0v2a0.5,0.5,0,0,0,.5.5h1A0.5,0.5,0,0,0,9,8.5V7.4375a0.5,0.5,0,0,1,1,0V8.5a0.5,0.5,0,0,0,.5.5h1A0.5,0.5,0,0,0,12,8.5a0.5,0.5,0,0,1,1,0v3Z" />
</symbol>
<symbol id="printer" viewBox="0 0 16 16"><title>finite-icons</title><path d="M14.5,4H13V1.5A0.5,0.5,0,0,0,12.5,1h-9a0.5,0.5,0,0,0-.5.5V4H1.5a0.5,0.5,0,0,0-.5.5v6a0.5,0.5,0,0,0,.5.5H3v3.5a0.5,0.5,0,0,0,.5.5h9a0.5,0.5,0,0,0,.5-0.5V11h1.5a0.5,0.5,0,0,0,.5-0.5v-6A0.5,0.5,0,0,0,14.5,4ZM5,3h6V4H5V3Zm6,10H5V11h6v2Zm2-4H3V6H13V9Z" /><path d="M4.5,8h2a0.5,0.5,0,0,0,0-1h-2A0.5,0.5,0,0,0,4.5,8Z" />
</symbol>
<symbol id="question-circle" viewBox="0 0 16 16"><title>finite-icons</title><path d="M8,15A7,7,0,1,0,1,8,7.00818,7.00818,0,0,0,8,15ZM8,3A5,5,0,1,1,3,8,5.00588,5.00588,0,0,1,8,3Z" /><path d="M7.29417,11.7104A1.01613,1.01613,0,1,1,8.00457,12,0.96518,0.96518,0,0,1,7.29417,11.7104Z"/><path d="M8.58316,9.51563H7.56829a0.49828,0.49828,0,0,1-.49306-0.603A2.74027,2.74027,0,0,1,8.60156,7.083a0.38665,0.38665,0,0,0,.26563-0.49023A0.859,0.859,0,0,0,8.00439,6a1.00163,1.00163,0,0,0-.94263.66587A0.49443,0.49443,0,0,1,6.59677,7H5.56136a0.50613,0.50613,0,0,1-.49616-0.60262A3.005,3.005,0,0,1,8.00439,4a2.82774,2.82774,0,0,1,2.84717,2.34473A2.36023,2.36023,0,0,1,9.39893,8.917a0.69751,0.69751,0,0,0-.32727.32913A0.53752,0.53752,0,0,1,8.58316,9.51563Z"/>
</symbol>
<symbol id="reddit" viewBox="0 0 16 16"><title>finite-icons</title><circle cx="6" cy="10" r="1" /><circle cx="10" cy="10" r="1" /><path d="M12,6a2.94676,2.94676,0,0,0-1.34766.3252A10.35664,10.35664,0,0,0,9,6.06085V3.21973l2.10529,0.39038a1.99938,1.99938,0,1,0,.43182-1.96381L7.70746,0.89984A0.59853,0.59853,0,0,0,7,1.39014v4.672a10.34015,10.34015,0,0,0-1.70605.27576A2.95958,2.95958,0,0,0,4,6.0415a3.00328,3.00328,0,0,0-3,3,2.92825,2.92825,0,0,0,.09082.72119A3.0603,3.0603,0,0,0,1,10.5C1,13.02344,4.0752,15,8,15s7-1.97656,7-4.5a3.02316,3.02316,0,0,0-.09668-0.75342A2.93036,2.93036,0,0,0,15,9,3.00328,3.00328,0,0,0,12,6Zm1-4a1,1,0,1,1-1,1A1.001,1.001,0,0,1,13,2Zm-0.08008,8.0957A1.14108,1.14108,0,0,1,13,10.5c0,1.18262-2.05371,2.5-5,2.5s-5-1.31738-5-2.5a1.1113,1.1113,0,0,1,.0752-0.39355L3.207,9.752l-0.13574-.353A0.98067,0.98067,0,0,1,3,9.0415a1.001,1.001,0,0,1,1-1A0.99,0.99,0,0,1,4.57715,8.23L4.98242,8.52051,5.459,8.37109a9.031,9.031,0,0,1,5.04883-.00928l0.4873,0.15039,0.4082-.30615A0.99155,0.99155,0,0,1,13,9a0.97906,0.97906,0,0,1-.07422.36963l-0.14453.36182Z" />
</symbol>
<symbol id="redo" viewBox="0 0 16 16"><title>finite-icons</title><path d="M3.83295,4.09558A5.15211,5.15211,0,0,1,10.69074,4.59l0.31085,0.31085,0.01074-1.40436A0.5,0.5,0,0,1,11.51575,3l0.99384,0.00684A0.496,0.496,0,0,1,13,3.51031V8H8.51033a0.50005,0.50005,0,0,1-.50348-0.49658L8,6.50336a0.5,0.5,0,0,1,.49652-0.50342L9.263,5.99036,9.11865,5.846a3.00958,3.00958,0,0,0-4.81274.77966A2.92253,2.92253,0,0,0,4.30634,9.3111,3.01244,3.01244,0,0,0,8.79,10.37354a0.48159,0.48159,0,0,1,.636.02295l0.73212,0.73218a0.49547,0.49547,0,0,1-.01959.72943A5.00043,5.00043,0,0,1,3.83295,4.09558Z" />
</symbol>
<symbol id="refresh" viewBox="0 0 16 16"><title>finite-icons</title><path d="M9.00682,6.50342L9,5.50336a0.5,0.5,0,0,1,.49652-0.50342l0.75415-.00958L10.10631,4.846a3.00958,3.00958,0,0,0-4.81274.77966A5.023,5.023,0,0,0,4.97081,7H3.00743A5.67985,5.67985,0,0,1,4.82061,3.09558,5.15211,5.15211,0,0,1,11.67839,3.59l0.31085,0.31085L12,2.49652A0.5,0.5,0,0,1,12.50341,2l1,0.00684A0.5,0.5,0,0,1,14,2.51031V7H9.5103A0.50005,0.50005,0,0,1,9.00682,6.50342Z" /><path d="M6.64917,9.51129L6.656,10.51871a0.5032,0.5032,0,0,1-.49652.5071l-0.75415.01142,0.14435,0.14527a3.012,3.012,0,0,0,4.81275-.79391A5.08563,5.08563,0,0,0,10.68519,9h1.96338a5.71076,5.71076,0,0,1-1.81318,3.91914A5.15134,5.15134,0,0,1,3.9776,12.432l-0.31085-.30718L3.656,13.53107a0.50077,0.50077,0,0,1-.50342.49744l-0.828-.00638C2.04839,14.02025,2,13.7953,2,13.51912V9H6.1457A0.514,0.514,0,0,1,6.64917,9.51129Z" />
</symbol>
<symbol id="robot" viewBox="0 0 16 16"><title>finite-icons</title><circle cx="6" cy="9" r="1" /><circle cx="10" cy="9" r="1" /><path d="M14.5,7H14V5.5A0.5,0.5,0,0,0,13.5,5H9V4.5A0.5,0.5,0,0,0,8.5,4h-1a0.5,0.5,0,0,0-.5.5V5H2.5a0.5,0.5,0,0,0-.5.5V7H1.5a0.5,0.5,0,0,0-.5.5v3a0.5,0.5,0,0,0,.5.5H2v3.5a0.5,0.5,0,0,0,.5.5h11a0.5,0.5,0,0,0,.5-0.5V11h0.5a0.5,0.5,0,0,0,.5-0.5v-3A0.5,0.5,0,0,0,14.5,7ZM7,7h5v4H4V7H7ZM4,13V12H6v1H4Zm3,0V12H9v1H7Zm3,0V12h2v1H10Z" /><circle cx="7.91669" cy="2" r="1" /><path d="M11.70709,3.70709L12.5,2.91418A1,1,0,1,0,11.08582,1.5l-0.79291.79291A1,1,0,0,0,11.70709,3.70709Z" /><path d="M4.29285,3.70709A1,1,0,0,0,5.70709,2.29285L4.91418,1.5A1,1,0,0,0,3.5,2.91418Z" />
</symbol>
<symbol id="rocket" viewBox="0 0 16 16"><title>finite-icons</title><path d="M13.5,2H9.97052a0.49989,0.49989,0,0,0-.34607.1391L5.74274,5.8609A0.50016,0.50016,0,0,1,5.39667,6H1.793a0.5,0.5,0,0,0-.35352.85352L3.251,8.665,1.52521,13.84235a0.5,0.5,0,0,0,.63245.63245L7.335,12.749l1.81146,1.81146A0.5,0.5,0,0,0,10,14.207V10.60333a0.49978,0.49978,0,0,1,.1391-0.34607l3.7218-3.88171A0.5,0.5,0,0,0,14,6.02948V2.5A0.5,0.5,0,0,0,13.5,2ZM2.791,13.209L4.042,9.45605l0.60449,0.60449-0.33026.99078a0.5,0.5,0,0,0,.63245.63245l0.99078-.33026L6.54395,11.958ZM12,5.42578L8,9.59766v0.98828L5.41406,8H6.40234L9.01117,5.49866a1.09331,1.09331,0,0,0,1.5152-.02509l0.72351-.72351-0.71362-.71362L10.57422,4H12V5.42578Z" />
</symbol>
<symbol id="save" viewBox="0 0 16 16"><title>finite-icons</title><path d="M14.5,1H1.5a0.5,0.5,0,0,0-.5.5v13a0.5,0.5,0,0,0,.5.5h13a0.5,0.5,0,0,0,.5-0.5V1.5A0.5,0.5,0,0,0,14.5,1ZM10,13H8V10h2v3Zm3,0H12V8.5A0.5,0.5,0,0,0,11.5,8h-7a0.5,0.5,0,0,0-.5.5V13H3V3H13V13Z" />
</symbol>
<symbol id="scissors" viewBox="0 0 16 16"><title>finite-icons</title><path d="M7.22333,5.944L2.82119,1.51064A0.47814,0.47814,0,0,0,2,1.86373v1.6226L5.84058,7.35815Z" /><path d="M12.77876,9.10855a2.88257,2.88257,0,0,0-2.15144.23947L9.35156,8.06738,14,3.42383V1.80123a0.50273,0.50273,0,0,0-.85732-0.35309L7.93506,6.65332,7.9317,6.65118,6.517,8.06525,6.51886,8.06738,5.28549,9.3006A2.899,2.899,0,0,0,3.19,9.11632a3.038,3.038,0,0,0-2.15162,2.39851,3.0047,3.0047,0,0,0,3.44684,3.44686,3.0379,3.0379,0,0,0,2.3985-2.15158,2.89879,2.89879,0,0,0-.18429-2.09544L7.93262,9.48145,9.25318,10.802A2.97267,2.97267,0,0,0,9.073,12.65839,3.00034,3.00034,0,1,0,12.77876,9.10855ZM4,13a1,1,0,1,1,1-1A1.00068,1.00068,0,0,1,4,13Zm8,0a1,1,0,1,1,1-1A1.00068,1.00068,0,0,1,12,13Z" />
</symbol>
<symbol id="search" viewBox="0 0 16 16"><title>finite-icons</title><rect x="3" y="8.46447" width="2.00001" height="7.07107" rx="0.5" ry="0.5" transform="translate(9.65687 0.6863) rotate(45.00008)" /><path d="M9.5,12A5.5,5.5,0,1,1,15,6.5,5.50654,5.50654,0,0,1,9.5,12Zm0-9A3.5,3.5,0,1,0,13,6.5,3.50425,3.50425,0,0,0,9.5,3Z" />
</symbol>
<symbol id="server" viewBox="0 0 16 16"><title>finite-icons</title><path d="M14.5,2H1.5a0.5,0.5,0,0,0-.5.5v11a0.5,0.5,0,0,0,.5.5h13a0.5,0.5,0,0,0,.5-0.5V2.5A0.5,0.5,0,0,0,14.5,2ZM13,12H4V11.5A0.5,0.5,0,0,0,3.5,11H3V10H9v1h1V10h1v1h1V10h1v2Zm0-3H4V8.5A0.5,0.5,0,0,0,3.5,8H3V7H9V8h1V7h1V8h1V7h1V9Zm0-3H4V5.5A0.5,0.5,0,0,0,3.5,5H3V4H9V5h1V4h1V5h1V4h1V6Z" />
</symbol>
<symbol id="share" viewBox="0 0 16 16"><title>finite-icons</title><path d="M12,9a2.98506,2.98506,0,0,0-2.07672.84357l-2.96-1.47992A2.94221,2.94221,0,0,0,7,8a2.94221,2.94221,0,0,0-.03674-0.36365l2.96-1.47992A2.994,2.994,0,1,0,9,4a2.95106,2.95106,0,0,0,.03674.36346l-2.96014,1.48a3,3,0,1,0,0,4.313l2.96014,1.48A2.95106,2.95106,0,0,0,9,12,3,3,0,1,0,12,9Zm0-6a1,1,0,1,1-1,1A1.001,1.001,0,0,1,12,3ZM4,9A1,1,0,1,1,5,8,1.001,1.001,0,0,1,4,9Zm8,4a1,1,0,1,1,1-1A1.001,1.001,0,0,1,12,13Z" />
</symbol>
<symbol id="shield" viewBox="0 0 16 16"><title>finite-icons</title><path d="M7.7,15.025L3.2,11.65a0.5,0.5,0,0,1-.2-0.4V1.5A0.5,0.5,0,0,1,3.5,1h9a0.5,0.5,0,0,1,.5.5v9.75a0.5,0.5,0,0,1-.2.4L8.3,15.025A0.5,0.5,0,0,1,7.7,15.025ZM5,10.5l3,2.25,3-2.25V3H5v7.5Z" /><path d="M8,11.5L6,10V4H8v7.5Z" />
</symbol>
<symbol id="smile" viewBox="0 0 16 16"><title>finite-icons</title><path d="M8,1a7,7,0,1,0,7,7A7.00818,7.00818,0,0,0,8,1ZM8,13a5,5,0,1,1,5-5A5.00589,5.00589,0,0,1,8,13Z" /><circle cx="6" cy="6" r="1" /><circle cx="10" cy="6" r="1" /><path d="M8,11a3.001,3.001,0,0,0,2.9395-2.3976A0.50619,0.50619,0,0,0,10.4433,8H5.5567a0.50619,0.50619,0,0,0-.4962.6024A3.001,3.001,0,0,0,8,11Z" />
</symbol>
<symbol id="star" viewBox="0 0 16 16"><title>finite-icons</title><path d="M4.21875,14.001A1.505,1.505,0,0,1,2.7832,12.06641L3.73828,8.88623l-1.998-1.41064a1.31987,1.31987,0,0,1-.56641-1.55347A1.39123,1.39123,0,0,1,2.60449,5H5.42578L6.623,2.10229A1.55941,1.55941,0,0,1,8,1.13416,1.59087,1.59087,0,0,1,9.377,2.134L10.57422,5h2.82129a1.39123,1.39123,0,0,1,1.43066.92212,1.40641,1.40641,0,0,1-.56641,1.61682l-1.998,1.37848,0.95508,3.16507a1.4957,1.4957,0,0,1-2.24609,1.68215L8,11.85937,5.02832,13.76172A1.4932,1.4932,0,0,1,4.21875,14.001ZM4.18066,7l1.8877,1.20728L5.08789,11.41052,8,9.51361l2.91211,1.85013L9.93164,8.21507,11.81934,7H9.25977L8,4.083,6.74023,7H4.18066Z" />
</symbol>
<symbol id="star-filled" viewBox="0 0 16 16"><title>finite-icons</title><path d="M4.21875,14.001A1.505,1.505,0,0,1,2.7832,12.06641L3.73828,8.88623l-1.998-1.41064a1.31987,1.31987,0,0,1-.56641-1.55347A1.39123,1.39123,0,0,1,2.60449,5H5.42578L6.623,2.10229A1.55941,1.55941,0,0,1,8,1.13416,1.59087,1.59087,0,0,1,9.377,2.134L10.57422,5h2.82129a1.39123,1.39123,0,0,1,1.43066.92212,1.40641,1.40641,0,0,1-.56641,1.61682l-1.998,1.37848,0.95508,3.16507a1.4957,1.4957,0,0,1-2.24609,1.68215L8,11.85937,5.02832,13.76172A1.4932,1.4932,0,0,1,4.21875,14.001Z" />
</symbol>
<symbol id="strikethrough" viewBox="0 0 16 16"><title>finite-icons</title><path d="M13,8.5a0.5,0.5,0,0,1-.5.5h-9A0.5,0.5,0,0,1,3,8.5H3A0.5,0.5,0,0,1,3.5,8h9a0.5,0.5,0,0,1,.5.5h0Z" /><path d="M9.228,10a0.31315,0.31315,0,0,1,.08453.155,1.311,1.311,0,0,1-.27734,1.2157c-0.90013,1.18155-2.88336.4718-4.08752-.2195a0.49758,0.49758,0,0,0-.66252.16133l-0.55.8276a0.50458,0.50458,0,0,0,.153.71184,7.58078,7.58078,0,0,0,3.72666,1.14749A3.61874,3.61874,0,0,0,10.625,12.58275,3.17122,3.17122,0,0,0,11.30634,10H9.228Z" /><path d="M8.13666,7a2.625,2.625,0,0,1-1.9223-.94653,1.30956,1.30956,0,0,1,.10352-1.67688,2.10945,2.10945,0,0,1,1.86768-.28668A5.4163,5.4163,0,0,1,9.981,4.97449a0.509,0.509,0,0,0,.69556-0.0814l0.62615-.76955a0.50471,0.50471,0,0,0-.09343-0.72832A7.45876,7.45876,0,0,0,8.65723,2.147a3.94748,3.94748,0,0,0-3.74316.804A3.33243,3.33243,0,0,0,4.46179,7H8.13666Z" />
</symbol>
<symbol id="table" viewBox="0 0 16 16"><title>finite-icons</title><path d="M13.5,1H2.5a0.5,0.5,0,0,0-.5.5v13a0.5,0.5,0,0,0,.5.5h11a0.5,0.5,0,0,0,.5-0.5V1.5A0.5,0.5,0,0,0,13.5,1ZM7,10V8H9v2H7Zm2,1v2H7V11H9ZM9,5V7H7V5H9ZM6,5V7H4V5H6ZM6,8v2H4V8H6Zm4,0h2v2H10V8Zm0-1V5h2V7H10ZM4,11H6v2H4V11Zm6,2V11h2v2H10Z" />
</symbol>
<symbol id="tablet" viewBox="0 0 16 16"><title>finite-icons</title><path d="M14.5,2H1.5a0.5,0.5,0,0,0-.5.5v11a0.5,0.5,0,0,0,.5.5h13a0.5,0.5,0,0,0,.5-0.5V2.5A0.5,0.5,0,0,0,14.5,2Zm-6,11h-1a0.5,0.5,0,0,1,0-1h1A0.5,0.5,0,0,1,8.5,13ZM13,11H3V4H13v7Z" />
</symbol>
<symbol id="tag" viewBox="0 0 16 16"><title>finite-icons</title><path d="M8.01069,15.08147L1.14691,8.21723a0.5,0.5,0,0,1-.14643-0.35351L1,1.5A0.5,0.5,0,0,1,1.5,1H7.86418a0.5,0.5,0,0,1,.35355.14645l6.86378,6.86378a0.5,0.5,0,0,1,0,.70709L8.71782,15.08147A0.5,0.5,0,0,1,8.01069,15.08147ZM3.00049,7.24268l5.36377,5.36426,4.24268-4.24316L7.24316,3H3Z" /><circle cx="5" cy="5" r="1" />
</symbol>
<symbol id="target" viewBox="0 0 16 16"><title>finite-icons</title><path d="M8,1a7,7,0,1,0,7,7A7.00794,7.00794,0,0,0,8,1ZM8,13a5,5,0,1,1,5-5A5.00589,5.00589,0,0,1,8,13Z" /><path d="M10.82843,5.17157a4,4,0,1,0,0,5.65686A3.98735,3.98735,0,0,0,10.82843,5.17157ZM9.41418,9.41425a2,2,0,1,1,.00006-2.82849A1.987,1.987,0,0,1,9.41418,9.41425Z" /><circle cx="8" cy="8" r="1" />
</symbol>
<symbol id="terminal" viewBox="0 0 16 16"><title>finite-icons</title><path d="M14.5,1H1.5a0.5,0.5,0,0,0-.5.5v13a0.5,0.5,0,0,0,.5.5h13a0.5,0.5,0,0,0,.5-0.5V1.5A0.5,0.5,0,0,0,14.5,1ZM13,13H3V4H13v9Z" /><path d="M4.8534,11.8534l-0.707-.707a0.5,0.5,0,0,1,0-.70711L6.08586,8.49992,4.14645,6.56051a0.5,0.5,0,0,1,0-.70711l0.707-.707a0.5,0.5,0,0,1,.70711,0L8.914,8.49992,5.56051,11.8534A0.5,0.5,0,0,1,4.8534,11.8534Z" /><rect x="8" y="10" width="4" height="2" rx="0.5" ry="0.5" />
</symbol>
<symbol id="times" viewBox="0 0 16 16"><title>finite-icons</title><rect x="7.05026" y="1.94976" width="2" height="11.99998" rx="0.5" ry="0.5" transform="translate(-3.26345 8.02081) rotate(-44.99991)" /><rect x="7.05025" y="1.94975" width="2.00001" height="11.99998" rx="0.5" ry="0.5" transform="translate(7.97919 -3.36397) rotate(45.00007)" />
</symbol>
<symbol id="train" viewBox="0 0 16 16"><title>finite-icons</title><path d="M13.5,1H2.5a0.5,0.5,0,0,0-.5.5v10a0.5,0.5,0,0,0,.5.5h11a0.5,0.5,0,0,0,.5-0.5V1.5A0.5,0.5,0,0,0,13.5,1ZM12,10H4V3h8v7Z" /><polygon points="4 13 2 15 4 15 6 13 4 13" /><polygon points="10 13 12 15 14 15 12 13 10 13" /><circle cx="6" cy="8" r="1" /><circle cx="10" cy="8" r="1" /><rect x="5" y="4" width="6" height="2" rx="0.5" ry="0.5" /><polygon points="7 14 6 15 10 15 9 14 7 14" />
</symbol>
<symbol id="trash" viewBox="0 0 16 16"><title>finite-icons</title><path d="M11,13H5V5H3v9.5a0.5,0.5,0,0,0,.5.5h9a0.5,0.5,0,0,0,.5-0.5V5H11v8Z" /><path d="M12.5,2H9V1.5A0.5,0.5,0,0,0,8.5,1h-1a0.5,0.5,0,0,0-.5.5V2H3.5a0.5,0.5,0,0,0-.5.5V4H13V2.5A0.5,0.5,0,0,0,12.5,2Z" /><rect x="7" y="5" width="2" height="7" rx="0.5" ry="0.5" />
</symbol>
<symbol id="tumblr" viewBox="0 0 16 16"><title>finite-icons</title><path d="M12,3H11V1.5A0.5,0.5,0,0,0,10.5,1h-6a0.5,0.5,0,0,0-.5.5V2.995L3.995,3H2.467a0.5,0.5,0,0,0-.49988.511L2,4.99841v1L1.99881,7.4996a0.5,0.5,0,0,0,.5.5004H4v2c0,5,4.40649,5,5.85449,5H13.5a0.5,0.5,0,0,0,.5-0.5v-4a0.5,0.5,0,0,0-.5-0.5H11.85449C11.64185,10,11.28857,10,11,9.9859V8h2.5A0.5,0.5,0,0,0,14,7.5v-4A0.5,0.5,0,0,0,13.5,3H12Zm0,3H9v4c0,1.94238.91211,2,2.85449,2H12v1H11.85449C9.36035,13,8,12.49365,8,10V6H6V5H6.00079A1.9467,1.9467,0,0,0,8,3H9V5h3V6Z" />
</symbol>
<symbol id="twitter" viewBox="0 0 16 16"><title>finite-icons</title><path d="M14,2.49976a0.5,0.5,0,0,0-.60748-0.48828L12.23395,2.709A3.998,3.998,0,0,0,6.02441,5.5835,36.74042,36.74042,0,0,1,2.0791,3.29724a0.49719,0.49719,0,0,0-.75189.31183L0.99939,5.03125c-0.53516,2.43457.41418,4.25146,2.149,5.92041-0.16058.07678-.91919,0.39807-1.49707,0.64142a0.49888,0.49888,0,0,0-.15753.8136l0.34375,0.34363a7.402,7.402,0,0,0,4.51465,2.22058,7.00772,7.00772,0,0,0,5.62628-2.03241,6.71519,6.71519,0,0,0,1.99365-4.19482L14,6.02539c0-.01019-0.00293-0.01965-0.003-0.02985L14,6V2.49976ZM12,7.26465l-0.00732.772a4.68416,4.68416,0,0,1-1.42822,3.48779,5.04515,5.04515,0,0,1-5.89648.90234q0.41089-.21533.83057-0.4585l1.48779-.86279-1.48584-.86621a5.021,5.021,0,0,1-2.481-3.89551A15.22737,15.22737,0,0,0,5.52911,7.53333a6.48274,6.48274,0,0,0,2.1781.459c0.26184,0.00177,1.29272.00763,1.29272,0.00763A2.43477,2.43477,0,0,1,8,6.02533a2,2,0,0,1,4,.00006V7.26465Z" /><circle cx="10" cy="6" r="1" />
</symbol>
<symbol id="underline" viewBox="0 0 16 16"><title>finite-icons</title><path d="M7.50018,12.97554A5.152,5.152,0,0,1,3,7.777V2.5A0.5,0.5,0,0,1,3.5,2h1a0.5,0.5,0,0,1,.5.5V7.8816a3.07975,3.07975,0,0,0,2.40207,3.06025A3.00485,3.00485,0,0,0,11,8V2.5A0.5,0.5,0,0,1,11.5,2h1a0.5,0.5,0,0,1,.5.5V8A5.00576,5.00576,0,0,1,7.50018,12.97554Z" /><path d="M12.5,15h-9A0.5,0.5,0,0,1,3,14.5H3A0.5,0.5,0,0,1,3.5,14h9a0.5,0.5,0,0,1,.5.5h0A0.5,0.5,0,0,1,12.5,15Z" />
</symbol>
<symbol id="undo" viewBox="0 0 16 16"><title>finite-icons</title><path d="M11.17938,4.09558A5.15211,5.15211,0,0,0,4.32159,4.59l-0.31085.31085L4,3.49652A0.5,0.5,0,0,0,3.49658,3l-1,.00684A0.5,0.5,0,0,0,2,3.51031V8H6.48967a0.50005,0.50005,0,0,0,.50348-0.49658L7,6.50336a0.5,0.5,0,0,0-.49652-0.50342L5.74933,5.99036,5.89368,5.846a3.00958,3.00958,0,0,1,4.81274.77966A2.92253,2.92253,0,0,1,10.706,9.3111a3.01244,3.01244,0,0,1-4.48364,1.06244,0.48159,0.48159,0,0,0-.636.02295l-0.73212.73218a0.49547,0.49547,0,0,0,.01959.72943A5.00043,5.00043,0,0,0,11.17938,4.09558Z" />
</symbol>
<symbol id="user" viewBox="0 0 16 16"><title>finite-icons</title><path d="M10.17035,8.35107a4,4,0,1,0-4.3407,0,7.01189,7.01189,0,0,0-4.81024,6.12531A0.49957,0.49957,0,0,0,1.523,15H2.52472a0.50763,0.50763,0,0,0,.49768-0.47516,5.00025,5.00025,0,0,1,9.9552,0A0.50763,0.50763,0,0,0,13.47528,15H14.477a0.49957,0.49957,0,0,0,.5036-0.52362A7.01189,7.01189,0,0,0,10.17035,8.35107ZM8,3A2,2,0,1,1,6,5,2.00229,2.00229,0,0,1,8,3Z" />
</symbol>
<symbol id="users" viewBox="0 0 16 16"><title>finite-icons</title><path d="M4.21875,8.5918a3.2959,3.2959,0,1,1,3.2959-3.2959A3.29961,3.29961,0,0,1,4.21875,8.5918Zm0-4.5918a1.2959,1.2959,0,1,0,1.2959,1.2959A1.29732,1.29732,0,0,0,4.21875,4Z" /><path d="M11.78125,10.5918a3.2959,3.2959,0,1,1,3.2959-3.2959A3.29961,3.29961,0,0,1,11.78125,10.5918Zm0-4.5918a1.2959,1.2959,0,1,0,1.2959,1.2959A1.29732,1.29732,0,0,0,11.78125,6Z" /><path d="M4.21875,6.78125a5.14019,5.14019,0,0,0-3.01484.98851A0.504,0.504,0,0,0,1,8.17927V9.47263a0.49778,0.49778,0,0,0,.87166.32706A3.21724,3.21724,0,0,1,7.4375,12H8.2094a1.08221,1.08221,0,0,0,1.05084-1.35086A5.22806,5.22806,0,0,0,4.21875,6.78125Z" /><path d="M15,10.17927a0.504,0.504,0,0,0-.20391-0.40951,5.14019,5.14019,0,0,0-3.01484-.98851,5.226,5.226,0,0,0-5.19247,4.6934A0.49264,0.49264,0,0,0,7.08847,14h1.037a0.48088,0.48088,0,0,0,.4665-0.43608,3.21726,3.21726,0,0,1,5.53638-1.76422A0.49778,0.49778,0,0,0,15,11.47263V10.17927Z" />
</symbol>
<symbol id="video" viewBox="0 0 16 16"><title>finite-icons</title><path d="M9,5V7l3-1V9L9,8v2H4V5H9M2.5,3a0.5,0.5,0,0,0-.5.5v8a0.5,0.5,0,0,0,.5.5H4l6.49857,0.00555A0.5011,0.5011,0,0,0,11,11.50445V10.75l2.34189,0.80549A0.5,0.5,0,0,0,14,11.08114V3.91886a0.5,0.5,0,0,0-.65811-0.47434L11,4.25V3.50381A0.50381,0.50381,0,0,0,10.49619,3H2.5Z" />
</symbol>
<symbol id="water" viewBox="0 0 16 16"><title>finite-icons</title><path d="M8,13.94245A3.70014,3.70014,0,0,1,4.58389,8.78934L7.53577,2.41051a0.5,0.5,0,0,1,.92846,0l2.95187,6.37883A3.70014,3.70014,0,0,1,8,13.94245ZM8,6.63484L6.41406,9.59968a1.68468,1.68468,0,0,0,.17188,1.59277,1.756,1.756,0,0,0,2.82813,0,1.68468,1.68468,0,0,0,.17188-1.59277Z" />
</symbol>
<symbol id="wifi" viewBox="0 0 16 16"><title>finite-icons</title><path d="M13.59851,5.31226a7.91744,7.91744,0,0,0-11.197,0l-1.048,1.048a0.5,0.5,0,0,0,0,.70711l6.29289,6.29289a0.5,0.5,0,0,0,.70711,0l6.2929-6.2929a0.5,0.5,0,0,0,0-.7071Zm-8.36664,2.805a3.93386,3.93386,0,0,1,5.53625,0l-0.66394.66394a3.02672,3.02672,0,0,0-4.20837,0Zm1.371,1.371a2.02531,2.02531,0,0,1,2.79419,0L8,10.88538Zm4.87225-2.07806a4.93346,4.93346,0,0,0-6.95032,0L3.82843,6.71381a5.91745,5.91745,0,0,1,8.34314,0Z" />
</symbol>
<symbol id="window" viewBox="0 0 16 16"><title>finite-icons</title><path d="M14.5,1H1.5a0.5,0.5,0,0,0-.5.5v13a0.5,0.5,0,0,0,.5.5h13a0.5,0.5,0,0,0,.5-0.5V1.5A0.5,0.5,0,0,0,14.5,1Zm-7,2a0.5,0.5,0,1,1-.5.5A0.50144,0.50144,0,0,1,7.5,3Zm-2,0a0.5,0.5,0,1,1-.5.5A0.50144,0.50144,0,0,1,5.5,3Zm-2,0a0.5,0.5,0,1,1-.5.5A0.50144,0.50144,0,0,1,3.5,3ZM13,13H3V5H13v8Z" />
</symbol>
<symbol id="wrench" viewBox="0 0 16 16"><title>finite-icons</title><path d="M10.13953,3a3.28834,3.28834,0,0,1,1.19367.21957L9.42881,5.14,9.45694,6.54556l1.33764-.02837,1.92216-1.9383a2.95076,2.95076,0,0,1-.54927,3.32272,2.85422,2.85422,0,0,1-2.03542.84757,2.90238,2.90238,0,0,1-1.26379-.28949L4.64864,12.71477a0.96006,0.96006,0,0,1-1.36576,0,0.97962,0.97962,0,0,1,0-1.37724L7.51167,7.07321a2.9337,2.9337,0,0,1,.57986-3.28178A2.86079,2.86079,0,0,1,10.13953,3m2.665-1.35-0.73734-.2909A5.30209,5.30209,0,0,0,10.13963,1h0A4.82516,4.82516,0,0,0,6.67141,2.38313,4.95261,4.95261,0,0,0,5.28783,6.47539L1.86275,9.92924a2.98648,2.98648,0,0,0,0,4.19382,2.96,2.96,0,0,0,4.206,0l3.392-3.42051a4.86534,4.86534,0,0,0,4.1268-1.39263,4.95821,4.95821,0,0,0,.94026-5.57943L14.244,3.12461Z" />
</symbol>
<symbol id="youtube" viewBox="0 0 16 16"><title>finite-icons</title><path d="M13.30915,13H2.69085a0.5,0.5,0,0,1-.44721-0.27639l-0.13817-.27634a9.94439,9.94439,0,0,1,0-8.89453l0.13817-.27634A0.5,0.5,0,0,1,2.69085,3H13.30915a0.5,0.5,0,0,1,.44721.27639l0.13817,0.27634a9.94439,9.94439,0,0,1,0,8.89453l-0.13817.27634A0.5,0.5,0,0,1,13.30915,13ZM3.63867,11h8.72266a7.34215,7.34215,0,0,0,0-6H3.63867A7.34215,7.34215,0,0,0,3.63867,11Z" /><polygon points="7 6 10 8 7 10 7 6" />
</symbol></svg>