<svg xmlns="http://www.w3.org/2000/svg" width="16" height="16" viewBox="0 0 16 16"><title>finite-icons</title><path d="M14.16406,1.83624A2.83933,2.83933,0,0,0,12.14276,1H12.1427a2.83879,2.83879,0,0,0-1.98425.7998L8.90234,2.95874,5.07281,2.95862,1.83191,2.95856a0.5,0.5,0,0,0-.38123.82355L3.512,6.21051a0.5,0.5,0,0,1-.28314.8139l-1.5423.30841a0.5,0.5,0,0,0-.25549.84381L3.75,10.5,3,12.24487A0.75512,0.75512,0,0,0,3.75513,13L5.5,12.20831l2.17694,2.21436a0.5,0.5,0,0,0,.8407-0.24091l0.34528-1.493a0.5,0.5,0,0,1,.81342-0.26624l2.51453,2.1651a0.5,0.5,0,0,0,.82623-0.37512l0.02435-3.23865L13.071,7.03943l1.12-1.188A2.86172,2.86172,0,0,0,14.16406,1.83624ZM12.74982,4.46466L11.077,6.239,11.0415,10.95874,8.46985,8.74451l-0.97241.97241L7.17853,11.09576l-0.95111-.95111-0.77429.27722,0.34607-.70551-0.972-.972L6.345,8.44086l0.91064-.91058L5.07275,4.95862,9.68408,4.95874l1.8515-1.70831A0.85859,0.85859,0,0,1,12.74982,4.46466Z" fill="#231f20"/></svg>