<svg xmlns="http://www.w3.org/2000/svg" width="16" height="16" viewBox="0 0 16 16"><title>finite-icons</title><path d="M10.43933,10.43921a0.49567,0.49567,0,0,0-.70349,0L9,11.17859V4.80048L9.74646,5.56091a0.4917,0.4917,0,0,0,.70013,0l0.70367-.70715a0.5,0.5,0,0,0-.00177-0.70709L7.96564,0.96472,6.551,2.37891,4.7829,4.14673a0.5,0.5,0,0,0-.00006.70709l0.707,0.70709a0.5391,0.5391,0,0,0,.73877,0L7,4.82068v6.379l-0.78192-.76044a0.51307,0.51307,0,0,0-.71783,0l-0.71252.70715a0.50008,0.50008,0,0,0-.00272.70715l3.18065,3.18207,1.41357-1.41431,1.76748-1.76788a0.5,0.5,0,0,0-.00014-0.70709Z" fill="#231f20"/></svg>