<svg xmlns="http://www.w3.org/2000/svg" width="16" height="16" viewBox="0 0 16 16"><title>finite-icons</title><path d="M13.49994,6H14.5A0.5,0.5,0,0,0,15,5.5V1H10.49988A0.49992,0.49992,0,0,0,10,1.5v1a0.49992,0.49992,0,0,0,.49988.5h1.09625L8,6.596l-0.48-.48c-0.01025-.01025-0.0238-0.01385-0.03467-0.023L4.38385,3H5.45929A0.5625,0.5625,0,0,0,6,2.47009V1.47A0.512,0.512,0,0,0,5.45929,1H1V5.47015A0.49355,0.49355,0,0,0,1.45929,6h1A0.56244,0.56244,0,0,0,3,5.47015V4.3739L6.02838,7.41364a0.48467,0.48467,0,0,0,.07745.1167L6.58575,8.01025l-0.46967.46967C6.10583,8.49017,6.10223,8.50378,6.093,8.51471L3,11.61615V10.54071A0.5625,0.5625,0,0,0,2.47009,10H1.47a0.512,0.512,0,0,0-.47.54065V15H5.47015A0.49355,0.49355,0,0,0,6,14.54071v-1A0.56244,0.56244,0,0,0,5.47015,13H4.3739L7.41364,9.97162a0.48467,0.48467,0,0,0,.1167-0.07745L8,9.4245,11.57544,13H10.5a0.5,0.5,0,0,0-.5.49994V14.5a0.5,0.5,0,0,0,.5.5l4.5-.00006V10.49988A0.49992,0.49992,0,0,0,14.5,10h-1a0.49992,0.49992,0,0,0-.5.49988v1.09625L9.41425,8.01031,13,4.42456V5.5A0.5,0.5,0,0,0,13.49994,6Z" fill="#231f20"/></svg>