<svg xmlns="http://www.w3.org/2000/svg" width="16" height="16" viewBox="0 0 16 16"><title>finite-icons</title><path d="M13.58575,6.58606L11.81787,4.8183a0.50008,0.50008,0,0,0-.70715,0l-0.70715.70709a0.49559,0.49559,0,0,0,0,.70343L11.17841,7H4.76483l0.76044-.7641a0.50234,0.50234,0,0,0,0-.709L4.81812,4.81885A0.5,0.5,0,0,0,4.111,4.81842L0.92908,8.00018,2.34326,9.41431l1.76782,1.76776a0.5,0.5,0,0,0,.70709,0l0.70715-.70715a0.49574,0.49574,0,0,0,0-.70355L4.75037,9h6.41376l-0.7605.76428a0.50238,0.50238,0,0,0,0,.709l0.70715,0.70811a0.50013,0.50013,0,0,0,.70715.00051L15,8.00017Z" fill="#231f20"/></svg>