<svg xmlns="http://www.w3.org/2000/svg" width="16" height="16" viewBox="0 0 16 16"><title>finite-icons</title><path d="M12.5,14h-9a0.5,0.5,0,0,0,0,1h9A0.5,0.5,0,0,0,12.5,14Z" fill="#231f20"/><path d="M14.5,7H13.90778a6.00273,6.00273,0,0,0-6.6972-4.94928A5.87816,5.87816,0,0,0,3,4.80884V2A1,1,0,1,0,2,3V7H1.5a0.5,0.5,0,0,0-.5.5v2a0.5,0.5,0,0,0,.5.5H2v2.5a0.5,0.5,0,0,0,.5.5h11a0.5,0.5,0,0,0,.5-0.5V10h0.5A0.5,0.5,0,0,0,15,9.5v-2A0.5,0.5,0,0,0,14.5,7ZM9,11H7V10a1,1,0,0,1,2,0v1Zm3,0H11V10A3.00488,3.00488,0,0,0,7.4021,7.05811,3.07986,3.07986,0,0,0,5,10.11841V11H4V8a4,4,0,0,1,8,0v3Z" fill="#231f20"/></svg>