<svg xmlns="http://www.w3.org/2000/svg" width="16" height="16" viewBox="0 0 16 16"><title>finite-icons</title><path d="M12,8a3.01555,3.01555,0,0,0-.604.06091l-0.01166-.03119L13,6.41406V3.5A0.5,0.5,0,0,0,12.5,3H11a1,1,0,0,0,0,2V5.58594L9.58594,7H7V5.5A0.5,0.5,0,0,0,6.5,5H5.00043L5,5.00012V5H3.5a0.5,0.5,0,0,0-.5.5V5.691a0.5,0.5,0,0,0,.27637.4472L5,7,4.49164,8.01672a2.99893,2.99893,0,0,0-.476-0.048A3.04578,3.04578,0,1,0,6.27014,9H9.76367l0.004,0.01324A2.98933,2.98933,0,1,0,12,8ZM4.01563,12a1.01563,1.01563,0,1,1,1.01563-1.01562A1.0168,1.0168,0,0,1,4.01563,12ZM12,12a1,1,0,1,1,1-1A1.00115,1.00115,0,0,1,12,12Z" fill="#231f20"/></svg>