<svg xmlns="http://www.w3.org/2000/svg" width="16" height="16" viewBox="0 0 16 16"><title>finite-icons</title><path d="M12,2.5A0.5,0.5,0,0,0,11.5,2H1.5a0.5,0.5,0,0,0-.5.5v9a0.5,0.5,0,0,0,.5.5H12V2.5ZM5,10H3V4H6V5.07629a1.53279,1.53279,0,0,0-.55835.26276,1.06133,1.06133,0,0,0-.43256.87543,0.89422,0.89422,0,0,0,.43964.81079,2.70969,2.70969,0,0,0,.38574.20917q0.16928,0.07224.48969,0.17279a1.91646,1.91646,0,0,1,.49017.21631,0.31773,0.31773,0,0,1,.16949.25214,0.25422,0.25422,0,0,1-.12274.22,0.58412,0.58412,0,0,1-.33154.08264A2.07109,2.07109,0,0,1,5.2395,7.71L4.764,8.38751a2.65966,2.65966,0,0,0,.84332.45758A3.16635,3.16635,0,0,0,6,8.9444V10H5Zm5,0H7V8.9281a1.47745,1.47745,0,0,0,.57831-0.27423A1.12876,1.12876,0,0,0,8,7.73541a0.88149,0.88149,0,0,0-.40375-0.8183,2.59377,2.59377,0,0,0-.37115-0.1908Q7.07,6.6647,6.70288,6.54974a3.16119,3.16119,0,0,1-.52606-0.20209,0.26343,0.26343,0,0,1-.15863-0.23755q0-.27411.501-0.27386a1.77188,1.77188,0,0,1,1.00531.34564L7.92773,5.4613A2.66819,2.66819,0,0,0,7,5.05389V4h3v6Z" fill="#231f20"/><path d="M14.5,4H13v9H3v1.5a0.5,0.5,0,0,0,.5.5h11a0.5,0.5,0,0,0,.5-0.5V4.5A0.5,0.5,0,0,0,14.5,4Z" fill="#231f20"/></svg>