<svg xmlns="http://www.w3.org/2000/svg" width="16" height="16" viewBox="0 0 16 16"><title>finite-icons</title><path d="M13.85358,2.43933L12.56067,1.14642A0.50015,0.50015,0,0,0,12.20709,1H2.5a0.5,0.5,0,0,0-.5.5V13.298a0.5,0.5,0,0,0,.14642.35358l1.202,1.202A0.49981,0.49981,0,0,0,3.702,15H13.5a0.5,0.5,0,0,0,.5-0.5V2.79291A0.5,0.5,0,0,0,13.85358,2.43933ZM4,3h6v8H4V3Zm9,11H3.90912L3.09076,13H12V1.99481L12.01807,2,13,3V14Z" fill="#231f20"/><path d="M8.5,5h-3a0.5,0.5,0,0,0,0,1h3A0.5,0.5,0,0,0,8.5,5Z" fill="#231f20"/><path d="M8.5,7h-3a0.5,0.5,0,0,0,0,1h3A0.5,0.5,0,0,0,8.5,7Z" fill="#231f20"/></svg>