<svg xmlns="http://www.w3.org/2000/svg" width="16" height="16" viewBox="0 0 16 16"><title>finite-icons</title><path d="M8,5a3,3,0,1,0,3,3A3.00328,3.00328,0,0,0,8,5ZM8,9A1,1,0,1,1,9,8,1.001,1.001,0,0,1,8,9Z" fill="#231f20"/><path d="M8,4A1,1,0,0,0,9,3V2A1,1,0,0,0,7,2V3A1,1,0,0,0,8,4Z" fill="#231f20"/><path d="M8,12a1,1,0,0,0-1,1v1a1,1,0,0,0,2,0V13A1,1,0,0,0,8,12Z" fill="#231f20"/><path d="M14,7H13a1,1,0,0,0,0,2h1A1,1,0,0,0,14,7Z" fill="#231f20"/><path d="M4,8A1,1,0,0,0,3,7H2A1,1,0,0,0,2,9H3A1,1,0,0,0,4,8Z" fill="#231f20"/><path d="M3.75739,5.17157A1,1,0,0,0,5.17157,3.75732L4.46448,3.05023A1,1,0,0,0,3.05023,4.46448Z" fill="#231f20"/><path d="M12.24268,10.82843a1,1,0,0,0-1.41425,1.41425l0.70709,0.70709a1,1,0,1,0,1.41425-1.41418Z" fill="#231f20"/><path d="M12.24261,5.17157l0.70715-.70709a1,1,0,1,0-1.41425-1.41425l-0.70709.70709A1,1,0,0,0,12.24261,5.17157Z" fill="#231f20"/><path d="M3.75739,10.82843l-0.70715.70709a1,1,0,1,0,1.41425,1.41418l0.70709-.70709A1,1,0,0,0,3.75739,10.82843Z" fill="#231f20"/></svg>