<svg xmlns="http://www.w3.org/2000/svg" width="16" height="16" viewBox="0 0 16 16"><title>finite-icons</title><path d="M8,5a3,3,0,1,0,3,3A3.00328,3.00328,0,0,0,8,5ZM8,9A1,1,0,1,1,9,8,1.001,1.001,0,0,1,8,9Z" fill="#231f20"/><circle cx="8.00012" cy="2.99988" r="0.99989" transform="translate(0.22195 6.53558) rotate(-45)" fill="#231f20"/><circle cx="8.00012" cy="12.99988" r="0.99989" transform="translate(-6.84912 9.46452) rotate(-45)" fill="#231f20"/><circle cx="13.00012" cy="7.99988" r="0.99989" transform="translate(-1.84912 11.53558) rotate(-45)" fill="#231f20"/><circle cx="3.00006" cy="7.99982" r="0.99989" transform="translate(-4.77803 4.46446) rotate(-45)" fill="#231f20"/><circle cx="11.53552" cy="11.53545" r="0.99989" fill="#231f20"/><circle cx="4.46448" cy="4.46431" r="0.99989" fill="#231f20"/><circle cx="11.53555" cy="4.46436" r="0.99989" fill="#231f20"/><circle cx="4.46442" cy="11.53542" r="0.99989" fill="#231f20"/></svg>