<svg xmlns="http://www.w3.org/2000/svg" width="16" height="16" viewBox="0 0 16 16"><title>finite-icons</title><rect x="6" y="13" width="4" height="1" rx="0.5" ry="0.5" fill="#231f20"/><rect x="7" y="13" width="2" height="2" rx="0.5" ry="0.5" fill="#231f20"/><path d="M10.5,12h-5A0.5,0.5,0,0,1,5,11.5V9.97949A4.96663,4.96663,0,0,1,3.86206,3.20227,4.8991,4.8991,0,0,1,6.834,1.13269,4.99133,4.99133,0,0,1,11,9.97949V11.5A0.5,0.5,0,0,1,10.5,12ZM7,10H9V8.87012l0.49707-.28906A2.96648,2.96648,0,0,0,11,6,3,3,0,0,0,5,6,2.96648,2.96648,0,0,0,6.50293,8.58105L7,8.87012V10Z" fill="#231f20"/></svg>