<svg xmlns="http://www.w3.org/2000/svg" width="16" height="16" viewBox="0 0 16 16"><title>finite-icons</title><circle cx="10" cy="9" r="1" fill="#231f20"/><circle cx="6" cy="9" r="1" fill="#231f20"/><path d="M13.5,1H2.5a0.5,0.5,0,0,0-.5.5v11a0.5,0.5,0,0,0,.5.5H4v1.5a0.5,0.5,0,0,0,.5.5h1A0.5,0.5,0,0,0,6,14.5V13h4v1.5a0.5,0.5,0,0,0,.5.5h1a0.5,0.5,0,0,0,.5-0.5V13h1.5a0.5,0.5,0,0,0,.5-0.5V1.5A0.5,0.5,0,0,0,13.5,1Zm-6,1h1a0.5,0.5,0,0,1,0,1h-1A0.5,0.5,0,0,1,7.5,2ZM12,11H4V3H5V6.5a0.5,0.5,0,0,0,.5.5h5A0.5,0.5,0,0,0,11,6.5V3h1v8Z" fill="#231f20"/></svg>