<svg xmlns="http://www.w3.org/2000/svg" width="16" height="16" viewBox="0 0 16 16"><title>finite-icons</title><path d="M14.5,2H13V3.5a1.5,1.5,0,0,1-3,0V2H6V3.5a1.5,1.5,0,0,1-3,0V2H1.5a0.5,0.5,0,0,0-.5.5v12a0.5,0.5,0,0,0,.5.5h13a0.5,0.5,0,0,0,.5-0.5V2.5A0.5,0.5,0,0,0,14.5,2ZM13,7v6H3V6H13V7Z" fill="#231f20"/><rect x="4" y="7" width="2" height="2" fill="#231f20"/><rect x="7" y="7" width="2" height="2" fill="#231f20"/><rect x="10" y="7" width="2" height="2" fill="#231f20"/><rect x="4" y="10" width="2" height="2" fill="#231f20"/><rect x="7" y="10" width="2" height="2" fill="#231f20"/><rect x="10" y="10" width="2" height="2" fill="#231f20"/><rect x="4" y="1" width="1" height="3" rx="0.5" ry="0.5" fill="#231f20"/><rect x="11" y="1" width="1" height="3" rx="0.5" ry="0.5" fill="#231f20"/></svg>