<svg xmlns="http://www.w3.org/2000/svg" width="16" height="16" viewBox="0 0 16 16"><title>finite-icons</title><circle cx="6" cy="9" r="1" fill="#231f20"/><circle cx="10" cy="9" r="1" fill="#231f20"/><path d="M6.51306,7H9.35962a0.5,0.5,0,0,0,.485-0.62128l-0.25-1A0.49992,0.49992,0,0,0,9.10962,5H6.85681a0.5001,0.5001,0,0,0-.47284.33746l-0.34375,1A0.5,0.5,0,0,0,6.51306,7Z" fill="#231f20"/><path d="M13.5,5H12.78076L11.87543,2.37872A0.49992,0.49992,0,0,0,11.39038,2H4.60962a0.49992,0.49992,0,0,0-.485.37872L3.21924,5H2.5a0.5,0.5,0,0,0-.5.5v7a0.5,0.5,0,0,0,.5.5H4v1.5a0.5,0.5,0,0,0,.5.5h1A0.5,0.5,0,0,0,6,14.5V13h4v1.5a0.5,0.5,0,0,0,.5.5h1a0.5,0.5,0,0,0,.5-0.5V13h1.5a0.5,0.5,0,0,0,.5-0.5v-7A0.5,0.5,0,0,0,13.5,5ZM12,11H4V7H4.78076l1-3h4.43848l1,3H12v4Z" fill="#231f20"/></svg>