<svg xmlns="http://www.w3.org/2000/svg" width="16" height="16" viewBox="0 0 16 16"><title>finite-icons</title><path d="M13.5,15H1V2.5A0.5,0.5,0,0,1,1.5,2h1a0.5,0.5,0,0,1,.5.5V13H13.5a0.5,0.5,0,0,1,.5.5v1A0.5,0.5,0,0,1,13.5,15Z" fill="#231f20"/><path d="M4.5,9h1a0.5,0.5,0,0,1,.5.5V12a0,0,0,0,1,0,0H4a0,0,0,0,1,0,0V9.5A0.5,0.5,0,0,1,4.5,9Z" fill="#231f20"/><path d="M7.5,3h1a0.5,0.5,0,0,1,.5.5V12a0,0,0,0,1,0,0H7a0,0,0,0,1,0,0V3.5A0.5,0.5,0,0,1,7.5,3Z" fill="#231f20"/><path d="M10.5,6h1a0.5,0.5,0,0,1,.5.5V12a0,0,0,0,1,0,0H10a0,0,0,0,1,0,0V6.5A0.5,0.5,0,0,1,10.5,6Z" fill="#231f20"/></svg>