<svg xmlns="http://www.w3.org/2000/svg" width="16" height="16" viewBox="0 0 16 16"><title>finite-icons</title><path d="M10.5,9h-5a0.5,0.5,0,0,0,0,1h5A0.5,0.5,0,0,0,10.5,9Z" fill="#231f20"/><path d="M10.5,11h-5a0.5,0.5,0,0,0,0,1h5A0.5,0.5,0,0,0,10.5,11Z" fill="#231f20"/><path d="M10.5,7h-5a0.5,0.5,0,0,0,0,1h5A0.5,0.5,0,0,0,10.5,7Z" fill="#231f20"/><path d="M13.5,3H12V2.5A0.5,0.5,0,0,0,11.5,2H10A1,1,0,0,0,9,1H7A1,1,0,0,0,6,2H4.5a0.5,0.5,0,0,0-.5.5V3H2.5a0.5,0.5,0,0,0-.5.5v11a0.5,0.5,0,0,0,.5.5h11a0.5,0.5,0,0,0,.5-0.5V3.5A0.5,0.5,0,0,0,13.5,3Zm-6-1h1a0.5,0.5,0,0,1,0,1h-1A0.5,0.5,0,0,1,7.5,2ZM12,7v6H4V5H5V5.50012A0.49984,0.49984,0,0,0,5.49982,6h5.00037A0.49984,0.49984,0,0,0,11,5.50012V5h1V7Z" fill="#231f20"/></svg>