<svg xmlns="http://www.w3.org/2000/svg" width="16" height="16" viewBox="0 0 16 16"><title>finite-icons</title><path d="M8.45454,5.5A2.62106,2.62106,0,0,1,11.18182,8c0,0.02706-.00777.05213-0.00871,0.079A1.46106,1.46106,0,0,1,11.63637,8,1.31053,1.31053,0,0,1,13,9.25a1.31053,1.31053,0,0,1-1.36363,1.25H4.81818A1.7474,1.7474,0,0,1,3,8.83333,1.74736,1.74736,0,0,1,4.81818,7.16667a1.92592,1.92592,0,0,1,.98506.26891A2.68393,2.68393,0,0,1,8.45454,5.5m0-2A4.79972,4.79972,0,0,0,4.78172,5.16684,3.74744,3.74744,0,0,0,1,8.83333,3.749,3.749,0,0,0,4.81818,12.5h6.81819A3.312,3.312,0,0,0,15,9.25a3.26377,3.26377,0,0,0-2.21519-3.0549A4.74751,4.74751,0,0,0,8.45454,3.5h0Z" fill="#231f20"/></svg>