<svg xmlns="http://www.w3.org/2000/svg" width="16" height="16" viewBox="0 0 16 16"><title>finite-icons</title><path d="M12.78479,3.69507A4.74744,4.74744,0,0,0,8.45453,1,4.79965,4.79965,0,0,0,4.78174,2.66681,3.74748,3.74748,0,0,0,1,6.33331a3.68793,3.68793,0,0,0,2.78864,3.514L5.636,8H4.81818A1.74739,1.74739,0,0,1,3,6.33331,1.74735,1.74735,0,0,1,4.81818,4.66663a1.926,1.926,0,0,1,.985.26892A2.68393,2.68393,0,0,1,8.45453,3a2.621,2.621,0,0,1,2.72729,2.5c0,0.027-.00775.05212-0.00873,0.079A1.46057,1.46057,0,0,1,11.63635,5.5,1.31054,1.31054,0,0,1,13,6.75,1.31054,1.31054,0,0,1,11.63635,8H10.364l1.93524,1.93524A3.28486,3.28486,0,0,0,15,6.75,3.2638,3.2638,0,0,0,12.78479,3.69507Z" fill="#231f20"/><path d="M9,13.53545V10.80026l0.76411,0.76045a0.50228,0.50228,0,0,0,.70894,0l0.70806-.70715a0.5,0.5,0,0,0,.00046-0.70711L7.99977,6.96452,6.58567,8.37873,4.81792,10.14654a0.5,0.5,0,0,0,0,.70711l0.70712,0.70711a0.4956,0.4956,0,0,0,.70344,0L7,10.78559v2.74991A0.4773,0.4773,0,0,0,7.50731,14h1A0.46471,0.46471,0,0,0,9,13.53545Z" fill="#231f20"/></svg>