<svg xmlns="http://www.w3.org/2000/svg" width="16" height="16" viewBox="0 0 16 16"><title>finite-icons</title><path d="M12.78479,3.69507A4.74744,4.74744,0,0,0,8.45453,1,4.79965,4.79965,0,0,0,4.78174,2.66681,3.74748,3.74748,0,0,0,1,6.33331,3.65959,3.65959,0,0,0,3.22424,9.65442L4.87866,8H4.81818A1.74739,1.74739,0,0,1,3,6.33331,1.74735,1.74735,0,0,1,4.81818,4.66663a1.926,1.926,0,0,1,.985.26892A2.68393,2.68393,0,0,1,8.45453,3a2.621,2.621,0,0,1,2.72729,2.5c0,0.027-.00775.05212-0.00873,0.079A1.46057,1.46057,0,0,1,11.63635,5.5,1.31054,1.31054,0,0,1,13,6.75,1.31054,1.31054,0,0,1,11.63635,8h-0.515l1.76245,1.76245A3.25422,3.25422,0,0,0,15,6.75,3.2638,3.2638,0,0,0,12.78479,3.69507Z" fill="#231f20"/><path d="M10.47491,8.85672a0.49559,0.49559,0,0,0-.70343,0L9,9.63193V6.882a0.4773,0.4773,0,0,0-.50732-0.46448h-1A0.46472,0.46472,0,0,0,7,6.882V9.61722L6.2359,8.85678a0.50227,0.50227,0,0,0-.70892,0l-0.70807.70715a0.5,0.5,0,0,0-.00049.70709L8.00024,13.453l1.41406-1.41418L11.18207,10.271a0.5,0.5,0,0,0,0-.70709Z" fill="#231f20"/></svg>