<svg xmlns="http://www.w3.org/2000/svg" width="16" height="16" viewBox="0 0 16 16"><title>finite-icons</title><path d="M4.35348,11.35348L1,8,4.35348,4.64652a0.5,0.5,0,0,1,.70711,0l0.707,0.707a0.5,0.5,0,0,1,0,.70711L3.82813,8,5.76754,9.93942a0.5,0.5,0,0,1,0,.70711l-0.707.707A0.5,0.5,0,0,1,4.35348,11.35348Z" fill="#231f20"/><path d="M10.93942,11.35348l-0.707-.707a0.5,0.5,0,0,1,0-.70711L12.17188,8,10.23246,6.06058a0.5,0.5,0,0,1,0-.70711l0.707-.707a0.5,0.5,0,0,1,.70711,0L15,8l-3.35348,3.35348A0.5,0.5,0,0,1,10.93942,11.35348Z" fill="#231f20"/><path d="M7.56276,14H6.6039a0.5,0.5,0,0,1-.4932-0.5822l1.83333-11A0.5,0.5,0,0,1,8.43724,2H9.3961a0.5,0.5,0,0,1,.4932.5822l-1.83333,11A0.5,0.5,0,0,1,7.56276,14Z" fill="#231f20"/></svg>