<svg xmlns="http://www.w3.org/2000/svg" width="16" height="16" viewBox="0 0 16 16"><title>finite-icons</title><circle cx="8" cy="8" r="2" fill="#231f20"/><path d="M9.96027,15H6.03973a0.5,0.5,0,0,1-.49828-0.45856l-0.166-1.99554-1.81143.8537a0.5,0.5,0,0,1-.64615-0.20225L0.95764,9.80276A0.5,0.5,0,0,1,1.10555,9.142L2.751,8,1.10555,6.858A0.5,0.5,0,0,1,.95764,6.19724L2.91791,2.80265A0.5,0.5,0,0,1,3.56406,2.6004L5.37549,3.4541l0.166-1.99554A0.5,0.5,0,0,1,6.03973,1H9.96027a0.5,0.5,0,0,1,.49828.45856l0.166,1.99554,1.81143-.8537a0.5,0.5,0,0,1,.64615.20225l1.96027,3.39459a0.5,0.5,0,0,1-.14791.66081L13.249,8l1.64543,1.142a0.5,0.5,0,0,1,.14791.66081l-1.96027,3.39459a0.5,0.5,0,0,1-.64615.20225l-1.81143-.8537-0.166,1.99554A0.5,0.5,0,0,1,9.96027,15ZM5.51551,5.731l-1.556-.733L3.4837,6.002,5,6.98259V9.01741L3.4837,9.998,4.01138,11.002l1.53008-.733,1.7491,1.0176L7.42041,13H8.57959l0.14282-1.71341,1.76208-1.0176,1.556,0.733L12.5163,9.998,11,9.01741V6.98259L12.5163,6.002,11.98862,4.998l-1.53008.733-1.7491-1.0176L8.57959,3H7.42041L7.27759,4.71341Z" fill="#231f20"/></svg>