<svg xmlns="http://www.w3.org/2000/svg" width="16" height="16" viewBox="0 0 16 16"><title>finite-icons</title><path d="M8,10V9.49408a1.98235,1.98235,0,0,0,1.35352-.58l-0.707-.707a1.02353,1.02353,0,0,1-1.41406,0,0.99964,0.99964,0,0,1,0-1.41406,1.02353,1.02353,0,0,1,1.41406,0l0.707-.707A1.98362,1.98362,0,0,0,8,5.5246V5H7V5.75256a1.863,1.863,0,0,0-.47461.33337A1.975,1.975,0,0,0,7,9.25586V10H8Z" fill="#231f20"/><path d="M13.85895,6.15509a6.49827,6.49827,0,0,1-7.7038,7.70386A5.49317,5.49317,0,0,0,13.85895,6.15509Z" fill="#231f20"/><path d="M13,7.5A5.5,5.5,0,1,0,7.5,13,5.50622,5.50622,0,0,0,13,7.5Zm-9,0A3.5,3.5,0,1,1,7.5,11,3.50425,3.50425,0,0,1,4,7.5Z" fill="#231f20"/></svg>