<svg xmlns="http://www.w3.org/2000/svg" width="16" height="16" viewBox="0 0 16 16"><title>finite-icons</title><path d="M13.5,14H2.46875a0.5,0.5,0,0,1-.5-0.5V2.5a0.5,0.5,0,0,1,.5-0.5H7.5a0.5,0.5,0,0,1,.5.5v1a0.5,0.5,0,0,1-.5.5H3.96875v8H12V8.5A0.5,0.5,0,0,1,12.5,8h1a0.5,0.5,0,0,1,.5.5v5A0.5,0.5,0,0,1,13.5,14Z"/><path d="M9.5,2a0.5,0.5,0,0,0-.5.5v1a0.5,0.5,0,0,0,.5.5h1.08594L6.14645,8.43949A0.5,0.5,0,0,0,6,8.793V10H7.207a0.5,0.5,0,0,0,.35355-0.14645L12,5.41406V6.5a0.5,0.5,0,0,0,.5.5h1A0.5,0.5,0,0,0,14,6.5V2H9.5Z" fill="#231f20"/></svg>