<svg xmlns="http://www.w3.org/2000/svg" width="16" height="16" viewBox="0 0 16 16"><title>finite-icons</title><path d="M14.75934,12.07245L1.906,3.092a0.5,0.5,0,0,0-.51886.85492l12.85333,8.98041a0.4998,0.4998,0,0,0,.68689-0.16809h0.00006A0.50005,0.50005,0,0,0,14.75934,12.07245Z" fill="#231f20"/><path d="M6.72937,5.24213C8.71088,4.55121,10.65869,5.46588,12.73047,8c-0.26514.32428-.52759,0.61224-0.789,0.88373L13.58936,10.035c0.22839-.24615.45624-0.502,0.6828-0.77832A0.23115,0.23115,0,0,0,14.295,9.24561l0.70264-.89209a0.50145,0.50145,0,0,0,0-.70709l-0.61591-.78455c-0.0072-.0072-0.01886-0.008-0.02667-0.01447-3.05664-3.77557-6.31915-4.73914-9.48163-2.902Z" fill="#231f20"/><path d="M9.34613,10.72766C7.33862,11.46881,5.36761,10.56628,3.26953,8c0.28156-.34436.56018-0.64795,0.83752-0.9328L2.45929,5.916C2.18646,6.20551,1.91479,6.5141,1.645,6.84741c-0.00781.00647-.01947,0.00726-0.02667,0.01447l-0.61591.78455a0.50145,0.50145,0,0,0,0,.70709L1.705,9.24561a0.23115,0.23115,0,0,0,.02283.01111C3.75653,11.73114,5.86328,13,8,13a6.16221,6.16221,0,0,0,3.21277-.96814Z" fill="#231f20"/></svg>