<svg xmlns="http://www.w3.org/2000/svg" width="16" height="16" viewBox="0 0 16 16"><title>finite-icons</title><path d="M8,6a2,2,0,1,0,2,2A2,2,0,0,0,8,6H8Z" fill="#231f20"/><path d="M14.99762,7.64642l-0.61591-.78455c-0.0072-.0072-0.01886-0.008-0.02667-0.01447-4.11237-5.07959-8.59772-5.07959-12.71008,0-0.00781.00647-.01947,0.00726-0.02667,0.01447l-0.61591.78455a0.50145,0.50145,0,0,0,0,.70709L1.705,9.24561a0.23115,0.23115,0,0,0,.02283.01111C3.75653,11.73114,5.86328,13,8,13s4.24347-1.26886,6.27216-3.74329A0.23115,0.23115,0,0,0,14.295,9.24561l0.70264-.89209A0.50145,0.50145,0,0,0,14.99762,7.64642ZM3.26953,8c3.25586-3.98242,6.20508-3.98242,9.46094,0C9.47461,11.98242,6.52539,11.98242,3.26953,8Z" fill="#231f20"/></svg>