<svg xmlns="http://www.w3.org/2000/svg" width="16" height="16" viewBox="0 0 16 16"><title>finite-icons</title><path d="M5,14a3,3,0,1,1,3-3A3.00328,3.00328,0,0,1,5,14Zm0-4a1,1,0,1,0,1,1A1.0013,1.0013,0,0,0,5,10Z" fill="#231f20"/><path d="M6.96017,1.18947A10.07478,10.07478,0,0,0,2.364,1.35395,0.50361,0.50361,0,0,0,2,1.84122v1.059a0.48951,0.48951,0,0,0,.6485.45678A7.989,7.989,0,0,1,12.643,13.3515,0.48951,0.48951,0,0,0,13.09975,14h1.059a0.50361,0.50361,0,0,0,.48727-0.364,10.07478,10.07478,0,0,0,.16448-4.59618A9.99857,9.99857,0,0,0,6.96017,1.18947Z" fill="#231f20"/><path d="M6.21861,4.61317a6.47689,6.47689,0,0,0-3.933.48564A0.50519,0.50519,0,0,0,2,5.5583V6.68976a0.50034,0.50034,0,0,0,.768.41825,4.47949,4.47949,0,0,1,6.124,6.124A0.50034,0.50034,0,0,0,9.31024,14H10.4417a0.50519,0.50519,0,0,0,.45949-0.28561A6.49085,6.49085,0,0,0,6.21861,4.61317Z" fill="#231f20"/></svg>