<svg xmlns="http://www.w3.org/2000/svg" width="16" height="16" viewBox="0 0 16 16"><title>finite-icons</title><path d="M12.12659,5.551L9.9743,3.42578l0.22705-1.86a0.49986,0.49986,0,0,0-.777-0.46167S1.79346,4.1875,3.16016,11.19574a4.71653,4.71653,0,0,0,4.20978,3.74194C7.84717,14.98022,8.24976,15,8.637,15a5.08927,5.08927,0,0,0,3.85828-1.30542A5.90055,5.90055,0,0,0,12.12659,5.551Zm-1.07178,6.75616a1.83319,1.83319,0,0,1-.60583.38885,1.95553,1.95553,0,0,0-1.49927-1.72485c-1.625-.50562-1.91663-2.96228-1.91663-2.96228-0.73492,2.49689-.16412,4.0733.68091,4.94891-0.0542-.00433-0.11542-0.00763-0.16663-0.01221C4.01935,12.63141,4.03192,6.61426,7.91089,4c0,0-.30328,3.20038,1.90649,4.94708a2.4908,2.4908,0,0,0,.904-1.973A3.92338,3.92338,0,0,1,11.05481,12.30713Z" fill="#231f20"/></svg>