<svg xmlns="http://www.w3.org/2000/svg" width="16" height="16" viewBox="0 0 16 16"><title>finite-icons</title><path d="M5,7.5a0.5,0.5,0,0,0,.5.5H8V7H5.5A0.5,0.5,0,0,0,5,7.5Z" fill="#231f20"/><path d="M5,9.5a0.5,0.5,0,0,0,.5.5H8V9H5.5A0.5,0.5,0,0,0,5,9.5Z" fill="#231f20"/><path d="M10.5,9a0.5,0.5,0,0,0,0-1H8V9h2.5Z" fill="#231f20"/><path d="M5.5,11a0.5,0.5,0,0,0-.5.5v3a0.5,0.5,0,0,0,.5.5h5a0.5,0.5,0,0,0,.5-0.5v-4a0.5,0.5,0,0,0-.5-0.5H8v1H5.5ZM9,13H7V12H9v1Z" fill="#231f20"/><path d="M14.5,4H9V1.5A0.5,0.5,0,0,0,8.5,1h-7a0.5,0.5,0,0,0-.5.5v12a0.5,0.5,0,0,0,.5.5H4V12H3V6H8V7h2.5A0.5,0.5,0,0,0,11,6.5V6h2v6H12v2h2.5a0.5,0.5,0,0,0,.5-0.5v-9A0.5,0.5,0,0,0,14.5,4ZM7,4H3V3H7V4Z" fill="#231f20"/></svg>