<svg xmlns="http://www.w3.org/2000/svg" width="16" height="16" viewBox="0 0 16 16"><title>finite-icons</title><path d="M8,1a7,7,0,1,0,7,7A7.00818,7.00818,0,0,0,8,1ZM8,13a5,5,0,1,1,5-5A5.00589,5.00589,0,0,1,8,13Z" fill="#231f20"/><circle cx="6" cy="6" r="1" fill="#231f20"/><circle cx="10" cy="6" r="1" fill="#231f20"/><path d="M7.99994,8a2.76859,2.76859,0,0,0-2.95726,2.4064A0.51093,0.51093,0,0,0,5.53937,11h4.9212a0.51093,0.51093,0,0,0,.49669-0.59363A2.7687,2.7687,0,0,0,7.99994,8Z" fill="#231f20"/></svg>