<svg xmlns="http://www.w3.org/2000/svg" width="16" height="16" viewBox="0 0 16 16"><title>finite-icons</title><path d="M8,1a7,7,0,1,0,7,7A7.00849,7.00849,0,0,0,8,1ZM6.34521,12.69647l0.50836-.50836A0.50015,0.50015,0,0,0,7,11.83453V10.53625a0.5,0.5,0,0,0-.45074-0.49756L5.15918,9.90106a0.5,0.5,0,0,1-.38989-0.25848L4.05011,8.32166A0.5,0.5,0,0,1,4.12885,7.736L4.7771,7.06183a0.50011,0.50011,0,0,0,.13959-0.34656V5.24188a0.5,0.5,0,0,1,.18964-0.392L5.727,4.35846a0.5,0.5,0,0,0,.1897-0.392V3.46912A4.94845,4.94845,0,0,1,8,3a4.97066,4.97066,0,0,1,.875.08844V4.54163a0.5,0.5,0,0,0,.5.5h1.04169a0.5,0.5,0,0,1,.5.5V6.606a0.5001,0.5001,0,0,1-.33185.47089l-1.0451.5813a0.5,0.5,0,0,0-.10223.89148l1.2674,1.18921a0.5,0.5,0,0,1,.22852.38733l0.12024,1.804A4.8139,4.8139,0,0,1,6.34521,12.69647Z" fill="#231f20"/></svg>