<svg xmlns="http://www.w3.org/2000/svg" width="16" height="16" viewBox="0 0 16 16"><title>finite-icons</title><path d="M8,1a7,7,0,1,0,7,7A7.00818,7.00818,0,0,0,8,1Zm2.94769,6h1.95123a4.9974,4.9974,0,0,1,0,2H10.90411A7.56633,7.56633,0,0,0,11,7.85254,7.59659,7.59659,0,0,0,10.94769,7Zm1.62848-1H10.76111A7.45925,7.45925,0,0,0,9.38788,3.22046,5.00426,5.00426,0,0,1,12.57617,6ZM8,12.59088a0.492,0.492,0,0,0-.09473-0.14264A6.47515,6.47515,0,0,1,6.37012,10H9.62988a6.47515,6.47515,0,0,1-1.53516,2.44824A0.492,0.492,0,0,0,8,12.59088ZM6.10571,9a6.10355,6.10355,0,0,1-.04358-2H9.93787a6.10355,6.10355,0,0,1-.04358,2H6.10571ZM8,3.11322a0.492,0.492,0,0,0,.09473.14264A6.46978,6.46978,0,0,1,9.7312,6H6.2688A6.46978,6.46978,0,0,1,7.90527,3.25586,0.492,0.492,0,0,0,8,3.11322Zm-1.38788.10724A7.45925,7.45925,0,0,0,5.23889,6H3.42383A5.00426,5.00426,0,0,1,6.61212,3.22046ZM3,8a5.00013,5.00013,0,0,1,.10107-1H5.05231A7.59659,7.59659,0,0,0,5,7.85254,7.56633,7.56633,0,0,0,5.09589,9H3.10107A5.00013,5.00013,0,0,1,3,8Zm0.42383,2H5.31262a7.44693,7.44693,0,0,0,1.64984,2.88855A5.0136,5.0136,0,0,1,3.42383,10Zm5.61371,2.88855A7.44693,7.44693,0,0,0,10.68738,10h1.88879A5.0136,5.0136,0,0,1,9.03754,12.88855Z" fill="#231f20"/></svg>