<svg xmlns="http://www.w3.org/2000/svg" width="16" height="16" viewBox="0 0 16 16"><title>finite-icons</title><path d="M12.98065,7.04883A5.11528,5.11528,0,0,0,8,2,5.11523,5.11523,0,0,0,3.01941,7.04846,2.499,2.499,0,0,0,1,9.5v2A2.5,2.5,0,0,0,3.5,14h2A0.5,0.5,0,0,0,6,13.5v-6A0.5,0.5,0,0,0,5.5,7H5.02332A3.105,3.105,0,0,1,8,4a3.105,3.105,0,0,1,2.97668,3H10.5a0.5,0.5,0,0,0-.5.5v6a0.5,0.5,0,0,0,.5.5h1.99609A2.5039,2.5039,0,0,0,15,11.49609V9.50391A2.50306,2.50306,0,0,0,12.98065,7.04883ZM4,12H3.5A0.501,0.501,0,0,1,3,11.5v-2A0.501,0.501,0,0,1,3.5,9H4v3Zm9-.50391A0.50388,0.50388,0,0,1,12.49609,12H12V9h0.49609A0.50388,0.50388,0,0,1,13,9.50391v1.99219Z" fill="#231f20"/></svg>