<svg xmlns="http://www.w3.org/2000/svg" width="16" height="16" viewBox="0 0 16 16"><title>finite-icons</title><path d="M8.01123,13.84473L2.28076,8.69141a3.66188,3.66188,0,0,1-.00049-5.53418,4.50534,4.50534,0,0,1,5.731-.21289,4.41718,4.41718,0,0,1,5.66113.1499l0.07031,0.063a3.66234,3.66234,0,0,1,0,5.53418ZM5.269,4.00342a2.36884,2.36884,0,0,0-1.58154.57813,1.78688,1.78688,0,0,0-.67041,1.34277A1.71757,1.71757,0,0,0,3.61816,7.2041l4.39307,3.95117,4.394-3.95117a1.6634,1.6634,0,0,0-.00049-2.55957l-0.0708-.064a2.453,2.453,0,0,0-3.16211.001L8.01221,5.625,6.85107,4.58154A2.36919,2.36919,0,0,0,5.269,4.00342Z" fill="#231f20"/></svg>