<svg xmlns="http://www.w3.org/2000/svg" width="16" height="16" viewBox="0 0 16 16"><title>finite-icons</title><path d="M8,1a7,7,0,1,0,7,7A7.00786,7.00786,0,0,0,8,1ZM6,8a2,2,0,1,1,2,2A2,2,0,0,1,6,8Zm5.43329,2.019a3.88,3.88,0,0,0,0-4.03809l0.73376-.73376a4.96535,4.96535,0,0,1,0,5.50562Zm-0.68048-6.1861L10.019,4.56671a3.88,3.88,0,0,0-4.03809,0L5.24719,3.83295A4.96535,4.96535,0,0,1,10.75281,3.83295ZM3.83295,5.24719L4.56671,5.981a3.88,3.88,0,0,0,0,4.03809l-0.73376.73376A4.96535,4.96535,0,0,1,3.83295,5.24719Zm1.41425,6.91986L5.981,11.43329a3.87984,3.87984,0,0,0,4.03809-.00006L10.75281,12.167A4.9652,4.9652,0,0,1,5.24719,12.16705Z" fill="#231f20"/></svg>