<svg xmlns="http://www.w3.org/2000/svg" width="16" height="16" viewBox="0 0 16 16"><title>finite-icons</title><path d="M14.5,1H4.5a0.5,0.5,0,0,0-.5.5V3h9v8h1.5a0.5,0.5,0,0,0,.5-0.5v-9A0.5,0.5,0,0,0,14.5,1Z" fill="#231f20"/><path d="M1,4.5v9a0.5,0.5,0,0,0,.5.5h10a0.5,0.5,0,0,0,.5-0.5V4H1.5A0.5,0.5,0,0,0,1,4.5ZM4.41406,12L6,10.41406,7.58594,12H4.41406ZM10,7.17993A1.39433,1.39433,0,0,1,8.82007,6H10V7.17993ZM6.82007,6A3.38645,3.38645,0,0,0,10,9.17993v2.406L6.35358,7.93945a0.50008,0.50008,0,0,0-.70715,0L3,10.58594V6H6.82007Z" fill="#231f20"/></svg>