<svg xmlns="http://www.w3.org/2000/svg" width="16" height="16" viewBox="0 0 16 16"><title>finite-icons</title><path d="M14.5,14H1.5A0.5,0.5,0,0,1,1,13.5V3.5A0.5,0.5,0,0,1,1.5,3h13a0.5,0.5,0,0,1,.5.5v10A0.5,0.5,0,0,1,14.5,14ZM3,12H13V5H3v7Z" fill="#231f20"/><rect x="4" y="10" width="8" height="1" fill="#231f20"/><rect x="7" y="6" width="1" height="1" fill="#231f20"/><rect x="4" y="6" width="2" height="1" fill="#231f20"/><rect x="9" y="6" width="1" height="1" fill="#231f20"/><rect x="11" y="6" width="1" height="1" fill="#231f20"/><rect x="4" y="8" width="1" height="1" fill="#231f20"/><rect x="6" y="8" width="1" height="1" fill="#231f20"/><rect x="8" y="8" width="1" height="1" fill="#231f20"/><rect x="10" y="8" width="2" height="1" fill="#231f20"/></svg>