<svg xmlns="http://www.w3.org/2000/svg" width="16" height="16" viewBox="0 0 16 16"><title>finite-icons</title><path d="M10.78531,6.53623l-0.00711.00691a2.96365,2.96365,0,0,0-.59391-0.8374L8.7281,7.11994a0.98069,0.98069,0,0,1,0,1.41421L6.678,10.52513l-0.13421.13034-0.7281.7071a1.05246,1.05246,0,0,1-1.45617,0,0.98069,0.98069,0,0,1,0-1.41421l0.10341-.10043a3.89007,3.89007,0,0,1-.553-2.29127L2.9034,8.53415a2.94238,2.94238,0,0,0-.00009,4.24263,3.15771,3.15771,0,0,0,4.36851,0l2.9124-2.82842,0.00715-.00695A2.93111,2.93111,0,0,0,10.78531,6.53623Z" fill="#231f20"/><path d="M8.72819,2.87732L5.81579,5.70573a2.931,2.931,0,0,0-.59373,3.40566,3.28009,3.28009,0,0,0,.25.42826,3.00238,3.00238,0,0,0,.34359.40871L7.2719,8.53415a0.98069,0.98069,0,0,1,0-1.41421l2.05013-1.991,0.13416-.13029,0.7281-.7071a1.05246,1.05246,0,0,1,1.45617,0,0.98069,0.98069,0,0,1,0,1.41421l-0.0963.09352a3.89007,3.89007,0,0,1,.553,2.29127l0.9994-.97058a2.94238,2.94238,0,0,0,.00009-4.24263A3.15771,3.15771,0,0,0,8.72819,2.87732Z" fill="#231f20"/></svg>