<svg xmlns="http://www.w3.org/2000/svg" width="16" height="16" viewBox="0 0 16 16"><title>finite-icons</title><path d="M5.25966,6.8696a0.5,0.5,0,0,0-.69933.00761L2.9034,8.53415a2.94238,2.94238,0,0,0-.00009,4.24263,3.15771,3.15771,0,0,0,4.36851,0l1.94549-1.875a0.50421,0.50421,0,0,0-.00039-0.72647L8.47727,9.464a0.5,0.5,0,0,0-.69272-0.00043L6.678,10.52513l-0.13421.13034-0.7281.7071a1.05246,1.05246,0,0,1-1.45617,0,0.98069,0.98069,0,0,1,0-1.41421L6.01136,8.29653a0.5,0.5,0,0,0-.00778-0.71472Z" fill="#231f20"/><path d="M10.70077,8.80968a0.5,0.5,0,0,0,.7066-0.0005L13.0966,7.11995a2.94238,2.94238,0,0,0,.00009-4.24263,3.15771,3.15771,0,0,0-4.36851,0L6.90558,4.63021a0.5,0.5,0,0,0-.00176.71906L7.64328,6.06744a0.5,0.5,0,0,0,.6938.0028l0.985-.94131,0.13416-.13029,0.7281-.7071a1.05246,1.05246,0,0,1,1.45617,0,0.98069,0.98069,0,0,1,0,1.41421L9.97117,7.375a0.5,0.5,0,0,0,.0005.70761Z" fill="#231f20"/><rect x="3.16669" y="1.81878" width="1.03125" height="3.72702" rx="0.51562" ry="0.51562" transform="translate(-1.52525 3.68232) rotate(-45.00011)" fill="#231f20"/><rect x="5.96875" y="1" width="1" height="2" rx="0.5" ry="0.5" fill="#231f20"/><rect x="1" y="6" width="2" height="1" rx="0.5" ry="0.5" fill="#231f20"/><rect x="11.77081" y="10.4542" width="1.03125" height="3.72702" rx="0.51563" ry="0.51563" transform="translate(29.6842 12.33987) rotate(135.00014)" fill="#231f20"/><rect x="8.99999" y="13" width="1" height="2" rx="0.5" ry="0.5" transform="translate(18.99996 28) rotate(-179.99995)" fill="#231f20"/><rect x="13" y="9" width="2" height="1" rx="0.5" ry="0.5" fill="#231f20"/></svg>