<svg xmlns="http://www.w3.org/2000/svg" width="16" height="16" viewBox="0 0 16 16"><title>finite-icons</title><path d="M12.5,6H12V5.17731A4.12165,4.12165,0,0,0,8.586,1.04187a3.98122,3.98122,0,0,0-4.181,2.245A0.50671,0.50671,0,0,0,4.87,4H6.01263a0.5249,0.5249,0,0,0,.41174-0.21924,1.992,1.992,0,0,1,2.04016-.72809A2.07885,2.07885,0,0,1,10,5.11334V6H3.5A1.50164,1.50164,0,0,0,2,7.5v6A1.50164,1.50164,0,0,0,3.5,15h9A1.50164,1.50164,0,0,0,14,13.5v-6A1.50164,1.50164,0,0,0,12.5,6ZM12,13H4V8h8v5Z" fill="#231f20"/></svg>