<svg xmlns="http://www.w3.org/2000/svg" width="16" height="16" viewBox="0 0 16 16"><title>finite-icons</title><path d="M7.42906,9h3.73519l-0.76045.76411a0.50228,0.50228,0,0,0,0,.70894L11.111,11.18111a0.5,0.5,0,0,0,.70711.00046L15,7.99978l-1.41421-1.4141L11.818,4.81792a0.5,0.5,0,0,0-.70711,0l-0.70711.70712a0.49561,0.49561,0,0,0,0,.70344L11.17893,7H7.429A0.45071,0.45071,0,0,0,7,7.50729v1A0.438,0.438,0,0,0,7.42906,9Z" fill="#231f20"/><path d="M9,6V2.5A0.5,0.5,0,0,0,8.5,2h-7a0.5,0.5,0,0,0-.5.5v11a0.5,0.5,0,0,0,.5.5h7A0.5,0.5,0,0,0,9,13.5V10H7v2H3V4H7V6H9Z" fill="#231f20"/></svg>