<svg xmlns="http://www.w3.org/2000/svg" width="16" height="16" viewBox="0 0 16 16"><title>finite-icons</title><path d="M9.77639,0.99364L6,2.88184,1.72361,0.74364A0.5,0.5,0,0,0,1,1.19085V12.30915a0.5,0.5,0,0,0,.27639.44721l4.5,2.25a0.5,0.5,0,0,0,.44721,0L10,13.11816l4.27639,2.1382A0.5,0.5,0,0,0,15,14.80915V3.69085a0.5,0.5,0,0,0-.27639-0.44721l-4.5-2.25A0.5,0.5,0,0,0,9.77639.99364ZM5,12.38184l-2-1V3.61816l2,1v7.76367ZM7,4.61816l2-1v7.76367l-2,1V4.61816Zm6,7.76367-2-1V3.61816l2,1v7.76367Z" fill="#231f20"/></svg>