<svg xmlns="http://www.w3.org/2000/svg" width="16" height="16" viewBox="0 0 16 16"><title>finite-icons</title><path d="M8.74359,3.02863A3.018,3.018,0,0,0,7.418,1.37891a2.81639,2.81639,0,0,0-2.6416.17383,2.20711,2.20711,0,0,1-1.897.33105A1.1486,1.1486,0,0,1,2.5,1.00977l-1-.02344a2.12183,2.12183,0,0,0,.83936,1.73828c0.68115,0.43457,1.65186.34082,2.88428-.27734a1.9004,1.9004,0,0,1,1.72754-.18359,1.80341,1.80341,0,0,1,.73547.83148A4.65127,4.65127,0,0,0,4,7.70013V14.5a0.5,0.5,0,0,0,.5.5h8a0.5,0.5,0,0,0,.5-0.5v-7A4.49016,4.49016,0,0,0,8.74359,3.02863ZM11,13H6V7.5a2.5,2.5,0,0,1,5,0V13Z" fill="#231f20"/><path d="M8.5,6a0.5,0.5,0,0,0-.5.5v2a0.5,0.5,0,0,0,1,0v-2A0.5,0.5,0,0,0,8.5,6Z" fill="#231f20"/></svg>