<svg xmlns="http://www.w3.org/2000/svg" width="16" height="16" viewBox="0 0 16 16"><title>finite-icons</title><path d="M13,3v8a1.329,1.329,0,0,1-1.5,1A1.329,1.329,0,0,1,10,11a1.32891,1.32891,0,0,1,1.5-1,2.15944,2.15944,0,0,1,.5.06122V4.72168l-6,1.625V12a1.329,1.329,0,0,1-1.5,1A1.329,1.329,0,0,1,3,12a1.32891,1.32891,0,0,1,1.5-1,2.15939,2.15939,0,0,1,.5.06122V5.65332l8-2.51416M3,4.53393V9.27931A2.97171,2.97171,0,0,0,1,12a3.24376,3.24376,0,0,0,3.5,3A3.24376,3.24376,0,0,0,8,12V7.87706l2-.54166V8.27931A2.97172,2.97172,0,0,0,8,11a3.24377,3.24377,0,0,0,3.5,3A3.24377,3.24377,0,0,0,15,11V1.2683A0.5,0.5,0,0,0,14.3577.789l-11,3.26563A0.5,0.5,0,0,0,3,4.53393Z" fill="#231f20"/></svg>