<svg xmlns="http://www.w3.org/2000/svg" width="16" height="16" viewBox="0 0 16 16"><title>finite-icons</title><path d="M10.18463,3.084a1.84358,1.84358,0,0,0-.46991,1.787l-0.48963.48963A2.81044,2.81044,0,0,0,5.57295,6.385L4.948,6.22067A1.8267,1.8267,0,0,0,4.506,5.4862a1.84965,1.84965,0,1,0-.06534,2.66909L5.17,8.34712A2.8284,2.8284,0,0,0,5.4288,9.157L4.83968,9.7461a1.85756,1.85756,0,1,0,1.41572,1.4127L6.879,10.53525a2.83426,2.83426,0,0,0,.74573.18761l0.22,0.83641A1.84643,1.84643,0,1,0,10.5138,11.494a1.8267,1.8267,0,0,0-.73447-0.442l-0.207-.78678A2.84677,2.84677,0,0,0,10.60582,6.8084l0.59554-.59554A1.8473,1.8473,0,1,0,10.18463,3.084ZM2.59731,7.39488a0.84964,0.84964,0,1,1,1.20153,0A0.84959,0.84959,0,0,1,2.59731,7.39488ZM5.05051,12.151a0.84961,0.84961,0,1,1,0-1.20153A0.84965,0.84965,0,0,1,5.05051,12.151Zm4.75618,1.25164a0.84964,0.84964,0,1,1,0-1.20153A0.84961,0.84961,0,0,1,9.80669,13.40265ZM8.57707,8.509a0.84964,0.84964,0,1,1,0-1.20157A0.84959,0.84959,0,0,1,8.57707,8.509Zm3.51624-3.51624a0.84964,0.84964,0,1,1,0-1.20153A0.84965,0.84965,0,0,1,12.09331,4.99272Z" fill="#231f20"/></svg>