<svg xmlns="http://www.w3.org/2000/svg" width="16" height="16" viewBox="0 0 16 16"><title>finite-icons</title><path d="M6.60017,14.98045A4.12114,4.12114,0,0,1,3,10.82212V6.74528A5.66715,5.66715,0,0,1,7.95073,1.02685,5.50638,5.50638,0,0,1,14,6.5v6a0.5,0.5,0,0,1-.5.5h-1a0.5,0.5,0,0,1-.5-0.5V6.60071A3.56477,3.56477,0,0,0,9.23514,3.07537,3.50626,3.50626,0,0,0,5,6.5v4.38761a2.07917,2.07917,0,0,0,1.66245,2.08457A2.00283,2.00283,0,0,0,9,11V6.5a0.5,0.5,0,0,0-1,0v3a0.5,0.5,0,0,1-.5.5h-1A0.5,0.5,0,0,1,6,9.5V6.64741a2.60205,2.60205,0,0,1,2.23842-2.634A2.50265,2.50265,0,0,1,11,6.5V11A4.00425,4.00425,0,0,1,6.60017,14.98045Z" fill="#231f20"/></svg>