<svg xmlns="http://www.w3.org/2000/svg" width="16" height="16" viewBox="0 0 16 16"><title>finite-icons</title><path d="M12.5,15H1.5A0.5,0.5,0,0,1,1,14.5V3.5A0.5,0.5,0,0,1,1.5,3H7L5,5H3v8h8V11l2-2v5.5A0.5,0.5,0,0,1,12.5,15Z" fill="#231f20"/><path d="M14.79937,4.7154L11.26385,1.17988a0.5,0.5,0,0,0-.70709,0l-0.52325.52332-0.00006-.00006L4.1465,7.59008a0.5,0.5,0,0,0-.14645.35355L4,11.47616a0.503,0.503,0,0,0,.5.503L8.01174,12a0.5,0.5,0,0,0,.35652-0.14644L14.79938,5.4225A0.5,0.5,0,0,0,14.79937,4.7154ZM6.82843,10.565L5.41425,9.15077l4.928-4.928L11.75641,5.637Z" fill="#231f20"/></svg>