<svg xmlns="http://www.w3.org/2000/svg" width="16" height="16" viewBox="0 0 16 16"><title>finite-icons</title><path d="M4.29944,3.76831L3.9687,4.099l0.33073-.33073L6.42076,5.88963,5.379,6.93137a0.5,0.5,0,0,0-.00034.70677l2.82368,2.83318a0.5,0.5,0,0,0,.70745.00034L9.95629,9.42517l2.12132,2.12132-0.77493.77492c-1.09286,1.09286-2.777.59958-3.79715-.42317L3.97022,8.34858a3.00835,3.00835,0,0,1-.00431-4.24676M3.2721,1.96721l-0.71762.71762A5.0038,5.0038,0,0,0,2.55,9.75679l3.5271,3.54145a4.84415,4.84415,0,0,0,6.36568.64569l0.15263-.0868,0.12149-.12149,1.1411-1.1411,0.69448-.69448a0.5,0.5,0,0,0,0-.70711L10.30985,6.9503a0.5,0.5,0,0,0-.70711,0l-0.69158.69158a0.5,0.5,0,0,1-.70745-0.00034l0.002-.002a0.5,0.5,0,0,1,.00034-0.70677l0.68955-.68954a0.5,0.5,0,0,0,0-.70711L4.653,1.29344a0.5,0.5,0,0,0-.70711,0Z" fill="#231f20"/></svg>