<svg xmlns="http://www.w3.org/2000/svg" width="16" height="16" viewBox="0 0 16 16"><title>finite-icons</title><path d="M14.7021,7.75319L9.04573,2.09639a0.50008,0.50008,0,0,0-.70715,0L7.27827,4.57094l0.707,0.707L5.84065,7.42305l-3.144-.184a0.5,0.5,0,0,0-.38275.85266l2.84265,2.84314L2.14644,13.945a0.5,0.5,0,0,0,.70709.70709L5.8636,11.642l3.17554,3.17609a0.5,0.5,0,0,0,.84967-0.41571l-0.44073-3.517,2.07239-2.07184,0.707,0.707L14.702,8.46029A0.5,0.5,0,0,0,14.7021,7.75319Zm-7.4079,2.428L6.58711,9.47408,10.12263,5.9385l0.70715,0.70715Z" fill="#231f20"/></svg>