<svg xmlns="http://www.w3.org/2000/svg" width="16" height="16" viewBox="0 0 16 16"><title>finite-icons</title><path d="M12.59619,2.69666C12.05865,2.15912,11.2467,2.13116,10.183,2.6134a8.80886,8.80886,0,0,0-1.009.56281,4.92678,4.92678,0,0,0-5.9986,5.99323A8.6556,8.6556,0,0,0,2.61346,10.183c-0.4823,1.06372-.45428,1.87567.08325,2.41321,0.70575,0.70575,1.833.42761,2.98059-.20807a4.95064,4.95064,0,0,0,6.71082-6.71082C13.0238,4.52966,13.30194,3.4024,12.59619,2.69666ZM3.40381,11.8891a1.24825,1.24825,0,0,1,.12042-1.29321c0.03162-.0697.07574-0.14777,0.11334-0.2215a4.99142,4.99142,0,0,0,.40936.64966A8.95916,8.95916,0,0,0,5.76746,9.985,2.98666,2.98666,0,0,1,9.985,5.76746a8.95439,8.95439,0,0,0,1.039-1.72058,4.99172,4.99172,0,0,0-.64368-0.40552c0.06927-.035.14972-0.08728,0.21552-0.11713a1.24811,1.24811,0,0,1,1.29321-.12042c0.2804,0.2804.09009,0.977-.43109,1.87744-0.03137.05353-.05859,0.10681-0.09131,0.16034-0.116.19092-.25067,0.3927-0.394,0.59882-0.0517.07379-.1026,0.14728-0.15576,0.22009A20.72177,20.72177,0,0,1,8.70709,8.70709a20.72455,20.72455,0,0,1-2.44653,2.10974c-0.07288.05328-.14642,0.10419-0.22028,0.15594-0.20593.14319-.40747,0.27783-0.59827,0.39368-0.054.033-.10767,0.06049-0.16168,0.0921C4.38043,11.97925,3.68414,12.16937,3.40381,11.8891Zm6.71753-1.76782A2.95943,2.95943,0,0,1,7.71,10.96509c0.73029-.60205,1.34772-1.1944,1.70422-1.5509S10.363,8.44031,10.96509,7.71A2.95926,2.95926,0,0,1,10.12134,10.12128Z" fill="#231f20"/></svg>