<svg xmlns="http://www.w3.org/2000/svg" width="16" height="16" viewBox="0 0 16 16"><title>finite-icons</title><path d="M11,3.05463a0.602,0.602,0,0,0-.90936-0.41333L6.49786,5H6.32928L11,7.83484V3.05463Z" fill="#231f20"/><path d="M2.80212,8.5979A3.07974,3.07974,0,0,0,5.86237,11H6.49884l3.59174,2.35852A0.602,0.602,0,0,0,11,12.94525v-1.601l-7.88049-4.783A2.99836,2.99836,0,0,0,2.80212,8.5979Z" fill="#231f20"/><path d="M12.75934,10.07245L2.906,4.092a0.5,0.5,0,0,0-.51886.85492l1.367,0.82971h0l2.75641,1.673,5.72992,3.47772a0.4998,0.4998,0,0,0,.68689-0.16809h0.00006A0.50005,0.50005,0,0,0,12.75934,10.07245Z" fill="#231f20"/></svg>