<svg xmlns="http://www.w3.org/2000/svg" width="16" height="16" viewBox="0 0 16 16"><title>finite-icons</title><path d="M8.21863,2.6413L4.75391,5H4A3.00484,3.00484,0,0,0,1.05817,8.5979,3.07974,3.07974,0,0,0,4.11841,11H4.75488l3.46368,2.35852A0.5,0.5,0,0,0,9,12.94525V3.05463A0.5,0.5,0,0,0,8.21863,2.6413ZM7,10.10938L5.33594,9H4A1,1,0,0,1,4,7H5.37018L7,5.89063v4.21875Z" fill="#231f20"/><rect x="10" y="6" width="1" height="4" rx="0.5" ry="0.5" fill="#231f20"/><rect x="12" y="4" width="1" height="8" rx="0.5" ry="0.5" fill="#231f20"/><rect x="14" y="2" width="1" height="12" rx="0.5" ry="0.5" fill="#231f20"/></svg>