<svg xmlns="http://www.w3.org/2000/svg" width="16" height="16" viewBox="0 0 16 16"><title>finite-icons</title><path d="M12.5,6a2.47633,2.47633,0,0,0-.85645.15137A2.49971,2.49971,0,0,0,8.5791,5.11328,2.56652,2.56652,0,0,0,6,4.05029V3.5a2.5,2.5,0,0,0-5,0v8A3.50425,3.50425,0,0,0,4.5,15h7A3.50425,3.50425,0,0,0,15,11.5v-3A2.50263,2.50263,0,0,0,12.5,6ZM13,11.5A1.50164,1.50164,0,0,1,11.5,13h-7A1.50164,1.50164,0,0,1,3,11.5v-8a0.5,0.5,0,0,1,1,0v5a0.5,0.5,0,0,0,.5.5h1A0.5,0.5,0,0,0,6,8.5v-2a0.5,0.5,0,0,1,1,0v2a0.5,0.5,0,0,0,.5.5h1A0.5,0.5,0,0,0,9,8.5V7.4375a0.5,0.5,0,0,1,1,0V8.5a0.5,0.5,0,0,0,.5.5h1A0.5,0.5,0,0,0,12,8.5a0.5,0.5,0,0,1,1,0v3Z" fill="#231f20"/></svg>