<svg xmlns="http://www.w3.org/2000/svg" width="16" height="16" viewBox="0 0 16 16"><title>finite-icons</title><path d="M8,15A7,7,0,1,0,1,8,7.00818,7.00818,0,0,0,8,15ZM8,3A5,5,0,1,1,3,8,5.00588,5.00588,0,0,1,8,3Z" fill="#231f20"/><path d="M7.29417,11.7104A1.01613,1.01613,0,1,1,8.00457,12,0.96518,0.96518,0,0,1,7.29417,11.7104Z"/><path d="M8.58316,9.51563H7.56829a0.49828,0.49828,0,0,1-.49306-0.603A2.74027,2.74027,0,0,1,8.60156,7.083a0.38665,0.38665,0,0,0,.26563-0.49023A0.859,0.859,0,0,0,8.00439,6a1.00163,1.00163,0,0,0-.94263.66587A0.49443,0.49443,0,0,1,6.59677,7H5.56136a0.50613,0.50613,0,0,1-.49616-0.60262A3.005,3.005,0,0,1,8.00439,4a2.82774,2.82774,0,0,1,2.84717,2.34473A2.36023,2.36023,0,0,1,9.39893,8.917a0.69751,0.69751,0,0,0-.32727.32913A0.53752,0.53752,0,0,1,8.58316,9.51563Z"/></svg>