<svg xmlns="http://www.w3.org/2000/svg" width="16" height="16" viewBox="0 0 16 16"><title>finite-icons</title><circle cx="6" cy="10" r="1" fill="#231f20"/><circle cx="10" cy="10" r="1" fill="#231f20"/><path d="M12,6a2.94676,2.94676,0,0,0-1.34766.3252A10.35664,10.35664,0,0,0,9,6.06085V3.21973l2.10529,0.39038a1.99938,1.99938,0,1,0,.43182-1.96381L7.70746,0.89984A0.59853,0.59853,0,0,0,7,1.39014v4.672a10.34015,10.34015,0,0,0-1.70605.27576A2.95958,2.95958,0,0,0,4,6.0415a3.00328,3.00328,0,0,0-3,3,2.92825,2.92825,0,0,0,.09082.72119A3.0603,3.0603,0,0,0,1,10.5C1,13.02344,4.0752,15,8,15s7-1.97656,7-4.5a3.02316,3.02316,0,0,0-.09668-0.75342A2.93036,2.93036,0,0,0,15,9,3.00328,3.00328,0,0,0,12,6Zm1-4a1,1,0,1,1-1,1A1.001,1.001,0,0,1,13,2Zm-0.08008,8.0957A1.14108,1.14108,0,0,1,13,10.5c0,1.18262-2.05371,2.5-5,2.5s-5-1.31738-5-2.5a1.1113,1.1113,0,0,1,.0752-0.39355L3.207,9.752l-0.13574-.353A0.98067,0.98067,0,0,1,3,9.0415a1.001,1.001,0,0,1,1-1A0.99,0.99,0,0,1,4.57715,8.23L4.98242,8.52051,5.459,8.37109a9.031,9.031,0,0,1,5.04883-.00928l0.4873,0.15039,0.4082-.30615A0.99155,0.99155,0,0,1,13,9a0.97906,0.97906,0,0,1-.07422.36963l-0.14453.36182Z" fill="#231f20"/></svg>