<svg xmlns="http://www.w3.org/2000/svg" width="16" height="16" viewBox="0 0 16 16"><title>finite-icons</title><path d="M3.83295,4.09558A5.15211,5.15211,0,0,1,10.69074,4.59l0.31085,0.31085,0.01074-1.40436A0.5,0.5,0,0,1,11.51575,3l0.99384,0.00684A0.496,0.496,0,0,1,13,3.51031V8H8.51033a0.50005,0.50005,0,0,1-.50348-0.49658L8,6.50336a0.5,0.5,0,0,1,.49652-0.50342L9.263,5.99036,9.11865,5.846a3.00958,3.00958,0,0,0-4.81274.77966A2.92253,2.92253,0,0,0,4.30634,9.3111,3.01244,3.01244,0,0,0,8.79,10.37354a0.48159,0.48159,0,0,1,.636.02295l0.73212,0.73218a0.49547,0.49547,0,0,1-.01959.72943A5.00043,5.00043,0,0,1,3.83295,4.09558Z" fill="#231f20"/></svg>