<svg xmlns="http://www.w3.org/2000/svg" width="16" height="16" viewBox="0 0 16 16"><title>finite-icons</title><path d="M9.00682,6.50342L9,5.50336a0.5,0.5,0,0,1,.49652-0.50342l0.75415-.00958L10.10631,4.846a3.00958,3.00958,0,0,0-4.81274.77966A5.023,5.023,0,0,0,4.97081,7H3.00743A5.67985,5.67985,0,0,1,4.82061,3.09558,5.15211,5.15211,0,0,1,11.67839,3.59l0.31085,0.31085L12,2.49652A0.5,0.5,0,0,1,12.50341,2l1,0.00684A0.5,0.5,0,0,1,14,2.51031V7H9.5103A0.50005,0.50005,0,0,1,9.00682,6.50342Z" fill="#231f20"/><path d="M6.64917,9.51129L6.656,10.51871a0.5032,0.5032,0,0,1-.49652.5071l-0.75415.01142,0.14435,0.14527a3.012,3.012,0,0,0,4.81275-.79391A5.08563,5.08563,0,0,0,10.68519,9h1.96338a5.71076,5.71076,0,0,1-1.81318,3.91914A5.15134,5.15134,0,0,1,3.9776,12.432l-0.31085-.30718L3.656,13.53107a0.50077,0.50077,0,0,1-.50342.49744l-0.828-.00638C2.04839,14.02025,2,13.7953,2,13.51912V9H6.1457A0.514,0.514,0,0,1,6.64917,9.51129Z" fill="#231f20"/></svg>