<svg xmlns="http://www.w3.org/2000/svg" width="16" height="16" viewBox="0 0 16 16"><title>finite-icons</title><circle cx="7.91669" cy="2" r="1" fill="#231f20"/><path d="M11.70709,3.70709L12.5,2.91418A1,1,0,1,0,11.08582,1.5l-0.79291.79291A1,1,0,0,0,11.70709,3.70709Z" fill="#231f20"/><path d="M4.29285,3.70709A1,1,0,0,0,5.70709,2.29285L4.91418,1.5A1,1,0,0,0,3.5,2.91418Z" fill="#231f20"/><circle cx="10" cy="9" r="1" fill="#231f20"/><circle cx="6" cy="9" r="1" fill="#231f20"/><path d="M14.5,7H14V5.5A0.5,0.5,0,0,0,13.5,5H9V4.5A0.5,0.5,0,0,0,8.5,4h-1a0.5,0.5,0,0,0-.5.5V5H2.5a0.5,0.5,0,0,0-.5.5V7H1.5a0.5,0.5,0,0,0-.5.5v3a0.5,0.5,0,0,0,.5.5H2v3.5a0.5,0.5,0,0,0,.5.5h11a0.5,0.5,0,0,0,.5-0.5V11h0.5a0.5,0.5,0,0,0,.5-0.5v-3A0.5,0.5,0,0,0,14.5,7ZM12,11v2H4V7h8v4Z" fill="#231f20"/><rect x="5" y="11" width="6" height="1" rx="0.5" ry="0.5" fill="#231f20"/></svg>