<svg xmlns="http://www.w3.org/2000/svg" width="16" height="16" viewBox="0 0 16 16"><title>finite-icons</title><path d="M13.5,2H9.97052a0.49989,0.49989,0,0,0-.34607.1391L5.74274,5.8609A0.50016,0.50016,0,0,1,5.39667,6H1.793a0.5,0.5,0,0,0-.35352.85352L3.251,8.665,1.52521,13.84235a0.5,0.5,0,0,0,.63245.63245L7.335,12.749l1.81146,1.81146A0.5,0.5,0,0,0,10,14.207V10.60333a0.49978,0.49978,0,0,1,.1391-0.34607l3.7218-3.88171A0.5,0.5,0,0,0,14,6.02948V2.5A0.5,0.5,0,0,0,13.5,2ZM2.791,13.209L4.042,9.45605l0.60449,0.60449-0.33026.99078a0.5,0.5,0,0,0,.63245.63245l0.99078-.33026L6.54395,11.958ZM12,5.42578L8,9.59766v0.98828L5.41406,8H6.40234L9.01117,5.49866a1.09331,1.09331,0,0,0,1.5152-.02509l0.72351-.72351-0.71362-.71362L10.57422,4H12V5.42578Z" fill="#231f20"/></svg>