<svg xmlns="http://www.w3.org/2000/svg" width="16" height="16" viewBox="0 0 16 16"><title>finite-icons</title><path d="M7.22333,5.944L2.82119,1.51064A0.47814,0.47814,0,0,0,2,1.86373v1.6226L5.84058,7.35815Z" fill="#231f20"/><path d="M12.77876,9.10855a2.88257,2.88257,0,0,0-2.15144.23947L9.35156,8.06738,14,3.42383V1.80123a0.50273,0.50273,0,0,0-.85732-0.35309L7.93506,6.65332,7.9317,6.65118,6.517,8.06525,6.51886,8.06738,5.28549,9.3006A2.899,2.899,0,0,0,3.19,9.11632a3.038,3.038,0,0,0-2.15162,2.39851,3.0047,3.0047,0,0,0,3.44684,3.44686,3.0379,3.0379,0,0,0,2.3985-2.15158,2.89879,2.89879,0,0,0-.18429-2.09544L7.93262,9.48145,9.25318,10.802A2.97267,2.97267,0,0,0,9.073,12.65839,3.00034,3.00034,0,1,0,12.77876,9.10855ZM4,13a1,1,0,1,1,1-1A1.00068,1.00068,0,0,1,4,13Zm8,0a1,1,0,1,1,1-1A1.00068,1.00068,0,0,1,12,13Z" fill="#231f20"/></svg>