<svg xmlns="http://www.w3.org/2000/svg" width="16" height="16" viewBox="0 0 16 16"><title>finite-icons</title><path d="M4.21875,14.001A1.505,1.505,0,0,1,2.7832,12.06641L3.73828,8.88623l-1.998-1.41064a1.31987,1.31987,0,0,1-.56641-1.55347A1.39123,1.39123,0,0,1,2.60449,5H5.42578L6.623,2.10229A1.55941,1.55941,0,0,1,8,1.13416,1.59087,1.59087,0,0,1,9.377,2.134L10.57422,5h2.82129a1.39123,1.39123,0,0,1,1.43066.92212,1.40641,1.40641,0,0,1-.56641,1.61682l-1.998,1.37848,0.95508,3.16507a1.4957,1.4957,0,0,1-2.24609,1.68215L8,11.85937,5.02832,13.76172A1.4932,1.4932,0,0,1,4.21875,14.001Z" fill="#231f20"/></svg>