<svg xmlns="http://www.w3.org/2000/svg" width="16" height="16" viewBox="0 0 16 16"><title>finite-icons</title><path d="M13,8.5a0.5,0.5,0,0,1-.5.5h-9A0.5,0.5,0,0,1,3,8.5H3A0.5,0.5,0,0,1,3.5,8h9a0.5,0.5,0,0,1,.5.5h0Z" fill="#231f20"/><path d="M9.228,10a0.31315,0.31315,0,0,1,.08453.155,1.311,1.311,0,0,1-.27734,1.2157c-0.90013,1.18155-2.88336.4718-4.08752-.2195a0.49758,0.49758,0,0,0-.66252.16133l-0.55.8276a0.50458,0.50458,0,0,0,.153.71184,7.58078,7.58078,0,0,0,3.72666,1.14749A3.61874,3.61874,0,0,0,10.625,12.58275,3.17122,3.17122,0,0,0,11.30634,10H9.228Z" fill="#231f20"/><path d="M8.13666,7a2.625,2.625,0,0,1-1.9223-.94653,1.30956,1.30956,0,0,1,.10352-1.67688,2.10945,2.10945,0,0,1,1.86768-.28668A5.4163,5.4163,0,0,1,9.981,4.97449a0.509,0.509,0,0,0,.69556-0.0814l0.62615-.76955a0.50471,0.50471,0,0,0-.09343-0.72832A7.45876,7.45876,0,0,0,8.65723,2.147a3.94748,3.94748,0,0,0-3.74316.804A3.33243,3.33243,0,0,0,4.46179,7H8.13666Z" fill="#231f20"/></svg>