<svg xmlns="http://www.w3.org/2000/svg" width="16" height="16" viewBox="0 0 16 16"><title>finite-icons</title><path d="M14.5,7H13.90967A6.00549,6.00549,0,0,0,9,2.09033V1.5A0.5,0.5,0,0,0,8.5,1h-1a0.5,0.5,0,0,0-.5.5V2.09033A6.00549,6.00549,0,0,0,2.09033,7H1.5a0.5,0.5,0,0,0-.5.5v1a0.5,0.5,0,0,0,.5.5H2.09033A6.00549,6.00549,0,0,0,7,13.90967V14.5a0.5,0.5,0,0,0,.5.5h1A0.5,0.5,0,0,0,9,14.5V13.90967A6.00549,6.00549,0,0,0,13.90967,9H14.5A0.5,0.5,0,0,0,15,8.5v-1A0.5,0.5,0,0,0,14.5,7ZM9,11.858V10.5A0.5,0.5,0,0,0,8.5,10h-1a0.5,0.5,0,0,0-.5.5v1.358A3.99329,3.99329,0,0,1,4.142,9H5.5A0.5,0.5,0,0,0,6,8.5v-1A0.5,0.5,0,0,0,5.5,7H4.142A3.99329,3.99329,0,0,1,7,4.142V5.5a0.5,0.5,0,0,0,.5.5h1A0.5,0.5,0,0,0,9,5.5V4.142A3.99329,3.99329,0,0,1,11.858,7H10.5a0.5,0.5,0,0,0-.5.5v1a0.5,0.5,0,0,0,.5.5h1.358A3.99329,3.99329,0,0,1,9,11.858Z" fill="#231f20"/></svg>