<svg xmlns="http://www.w3.org/2000/svg" width="16" height="16" viewBox="0 0 16 16"><title>finite-icons</title><path d="M14.5,1H1.5a0.5,0.5,0,0,0-.5.5v13a0.5,0.5,0,0,0,.5.5h13a0.5,0.5,0,0,0,.5-0.5V1.5A0.5,0.5,0,0,0,14.5,1ZM13,13H3V4H13v9Z" fill="#231f20"/><path d="M4.8534,11.8534l-0.707-.707a0.5,0.5,0,0,1,0-.70711L6.08586,8.49992,4.14645,6.56051a0.5,0.5,0,0,1,0-.70711l0.707-.707a0.5,0.5,0,0,1,.70711,0L8.914,8.49992,5.56051,11.8534A0.5,0.5,0,0,1,4.8534,11.8534Z" fill="#231f20"/><rect x="8" y="10" width="4" height="2" rx="0.5" ry="0.5" fill="#231f20"/></svg>