<svg xmlns="http://www.w3.org/2000/svg" width="16" height="16" viewBox="0 0 16 16"><title>finite-icons</title><path d="M9.46448,7.94971l3.18195-3.18195a0.49989,0.49989,0,0,0,0-.70709l-0.70709-.70715a0.5,0.5,0,0,0-.70709,0l-3.182,3.182-3.18195-3.182a0.5,0.5,0,0,0-.70709,0L3.4541,4.06067a0.5,0.5,0,0,0,0,.70709L6.636,7.94971l-3.182,3.182a0.5,0.5,0,0,0,0,.70709L4.16119,12.5459a0.5,0.5,0,0,0,.70709,0l3.182-3.182,3.18195,3.182a0.49989,0.49989,0,0,0,.70709,0l0.70709-.70709a0.49989,0.49989,0,0,0,0-.70709Z" fill="#231f20"/></svg>