<svg xmlns="http://www.w3.org/2000/svg" width="16" height="16" viewBox="0 0 16 16"><title>finite-icons</title><path d="M13.5,1H2.5a0.5,0.5,0,0,0-.5.5v10a0.5,0.5,0,0,0,.5.5h11a0.5,0.5,0,0,0,.5-0.5V1.5A0.5,0.5,0,0,0,13.5,1ZM12,10H4V3h8v7Z" fill="#231f20"/><polygon points="4 13 2 15 4 15 6 13 4 13" fill="#231f20"/><polygon points="10 13 12 15 14 15 12 13 10 13" fill="#231f20"/><circle cx="6" cy="8" r="1" fill="#231f20"/><circle cx="10" cy="8" r="1" fill="#231f20"/><rect x="5" y="4" width="6" height="2" rx="0.5" ry="0.5" fill="#231f20"/><polygon points="7 14 6 15 10 15 9 14 7 14" fill="#231f20"/></svg>