<svg xmlns="http://www.w3.org/2000/svg" width="16" height="16" viewBox="0 0 16 16"><title>finite-icons</title><path d="M12,3H11V1.5A0.5,0.5,0,0,0,10.5,1h-6a0.5,0.5,0,0,0-.5.5V2.995L3.995,3H2.467a0.5,0.5,0,0,0-.49988.511L2,4.99841v1L1.99881,7.4996a0.5,0.5,0,0,0,.5.5004H4v2c0,5,4.40649,5,5.85449,5H13.5a0.5,0.5,0,0,0,.5-0.5v-4a0.5,0.5,0,0,0-.5-0.5H11.85449C11.64185,10,11.28857,10,11,9.9859V8h2.5A0.5,0.5,0,0,0,14,7.5v-4A0.5,0.5,0,0,0,13.5,3H12Zm0,3H9v4c0,1.94238.91211,2,2.85449,2H12v1H11.85449C9.36035,13,8,12.49365,8,10V6H6V5H6.00079A1.9467,1.9467,0,0,0,8,3H9V5h3V6Z" fill="#231f20"/></svg>