<svg xmlns="http://www.w3.org/2000/svg" width="16" height="16" viewBox="0 0 16 16"><title>finite-icons</title><path d="M14,2.49976a0.5,0.5,0,0,0-.60748-0.48828L12.23395,2.709A3.998,3.998,0,0,0,6.02441,5.5835,36.74042,36.74042,0,0,1,2.0791,3.29724a0.49719,0.49719,0,0,0-.75189.31183L0.99939,5.03125c-0.53516,2.43457.41418,4.25146,2.149,5.92041-0.16058.07678-.91919,0.39807-1.49707,0.64142a0.49888,0.49888,0,0,0-.15753.8136l0.34375,0.34363a7.402,7.402,0,0,0,4.51465,2.22058,7.00772,7.00772,0,0,0,5.62628-2.03241,6.71519,6.71519,0,0,0,1.99365-4.19482L14,6.02539c0-.01019-0.00293-0.01965-0.003-0.02985L14,6V2.49976ZM8,6.02533a2,2,0,0,1,4,.00006V7.26465l-0.00732.772a4.68416,4.68416,0,0,1-1.42822,3.48779,5.04515,5.04515,0,0,1-5.89648.90234q0.41089-.21533.83057-0.4585l1.48779-.86279-1.48584-.86621a5.04936,5.04936,0,0,1-2.394-3.9672A26.577,26.577,0,0,0,8,8.6875V6.02533Z" fill="#231f20"/><circle cx="10" cy="6" r="1" fill="#231f20"/></svg>