<svg xmlns="http://www.w3.org/2000/svg" width="16" height="16" viewBox="0 0 16 16"><title>finite-icons</title><path d="M7.50018,12.97554A5.152,5.152,0,0,1,3,7.777V2.5A0.5,0.5,0,0,1,3.5,2h1a0.5,0.5,0,0,1,.5.5V7.8816a3.07975,3.07975,0,0,0,2.40207,3.06025A3.00485,3.00485,0,0,0,11,8V2.5A0.5,0.5,0,0,1,11.5,2h1a0.5,0.5,0,0,1,.5.5V8A5.00576,5.00576,0,0,1,7.50018,12.97554Z" fill="#231f20"/><path d="M12.5,15h-9A0.5,0.5,0,0,1,3,14.5H3A0.5,0.5,0,0,1,3.5,14h9a0.5,0.5,0,0,1,.5.5h0A0.5,0.5,0,0,1,12.5,15Z" fill="#231f20"/></svg>