<svg xmlns="http://www.w3.org/2000/svg" width="16" height="16" viewBox="0 0 16 16"><title>finite-icons</title><path d="M11.17938,4.09558A5.15211,5.15211,0,0,0,4.32159,4.59l-0.31085.31085L4,3.49652A0.5,0.5,0,0,0,3.49658,3l-1,.00684A0.5,0.5,0,0,0,2,3.51031V8H6.48967a0.50005,0.50005,0,0,0,.50348-0.49658L7,6.50336a0.5,0.5,0,0,0-.49652-0.50342L5.74933,5.99036,5.89368,5.846a3.00958,3.00958,0,0,1,4.81274.77966A2.92253,2.92253,0,0,1,10.706,9.3111a3.01244,3.01244,0,0,1-4.48364,1.06244,0.48159,0.48159,0,0,0-.636.02295l-0.73212.73218a0.49547,0.49547,0,0,0,.01959.72943A5.00043,5.00043,0,0,0,11.17938,4.09558Z" fill="#231f20"/></svg>