<svg xmlns="http://www.w3.org/2000/svg" width="16" height="16" viewBox="0 0 16 16"><title>finite-icons</title><path d="M4.21875,8.5918a3.2959,3.2959,0,1,1,3.2959-3.2959A3.29961,3.29961,0,0,1,4.21875,8.5918Zm0-4.5918a1.2959,1.2959,0,1,0,1.2959,1.2959A1.29732,1.29732,0,0,0,4.21875,4Z" fill="#231f20"/><path d="M11.78125,10.5918a3.2959,3.2959,0,1,1,3.2959-3.2959A3.29961,3.29961,0,0,1,11.78125,10.5918Zm0-4.5918a1.2959,1.2959,0,1,0,1.2959,1.2959A1.29732,1.29732,0,0,0,11.78125,6Z" fill="#231f20"/><path d="M4.21875,6.78125a5.14019,5.14019,0,0,0-3.01484.98851A0.504,0.504,0,0,0,1,8.17927V9.47263a0.49778,0.49778,0,0,0,.87166.32706A3.21724,3.21724,0,0,1,7.4375,12H8.2094a1.08221,1.08221,0,0,0,1.05084-1.35086A5.22806,5.22806,0,0,0,4.21875,6.78125Z" fill="#231f20"/><path d="M15,10.17927a0.504,0.504,0,0,0-.20391-0.40951,5.14019,5.14019,0,0,0-3.01484-.98851,5.226,5.226,0,0,0-5.19247,4.6934A0.49264,0.49264,0,0,0,7.08847,14h1.037a0.48088,0.48088,0,0,0,.4665-0.43608,3.21726,3.21726,0,0,1,5.53638-1.76422A0.49778,0.49778,0,0,0,15,11.47263V10.17927Z" fill="#231f20"/></svg>