<svg xmlns="http://www.w3.org/2000/svg" width="16" height="16" viewBox="0 0 16 16"><title>finite-icons</title><path d="M13.59851,5.31226a7.91744,7.91744,0,0,0-11.197,0l-1.048,1.048a0.5,0.5,0,0,0,0,.70711l6.29289,6.29289a0.5,0.5,0,0,0,.70711,0l6.2929-6.2929a0.5,0.5,0,0,0,0-.7071Zm-8.36664,2.805a3.93386,3.93386,0,0,1,5.53625,0l-0.66394.66394a3.02672,3.02672,0,0,0-4.20837,0Zm1.371,1.371a2.02531,2.02531,0,0,1,2.79419,0L8,10.88538Zm4.87225-2.07806a4.93346,4.93346,0,0,0-6.95032,0L3.82843,6.71381a5.91745,5.91745,0,0,1,8.34314,0Z" fill="#231f20"/></svg>