<svg xmlns="http://www.w3.org/2000/svg" width="16" height="16" viewBox="0 0 16 16"><title>finite-icons</title><path d="M13.7692,5.38967a8.15883,8.15883,0,0,0-11.53834,0L1.15091,6.46962a0.51524,0.51524,0,0,0,0,.72867L7.63566,13.683a0.51524,0.51524,0,0,0,.72867,0l6.48476-6.48476a0.51524,0.51524,0,0,0,0-.72866ZM5.14747,8.17345a4.0538,4.0538,0,0,1,5.705,0l-0.68418.68418a3.119,3.119,0,0,0-4.33668,0ZM6.56031,9.57606a2.08705,2.08705,0,0,1,2.87938,0L8,11.01575Zm5.0208-2.08545a5.08388,5.08388,0,0,0-7.16222,0L3.70124,6.773a6.09786,6.09786,0,0,1,8.59751,0Z" fill="#231f20"/></svg>