<svg xmlns="http://www.w3.org/2000/svg" width="16" height="16" viewBox="0 0 16 16"><title>finite-icons</title><path d="M10.13953,3a3.28834,3.28834,0,0,1,1.19367.21957L9.42881,5.14,9.45694,6.54556l1.33764-.02837,1.92216-1.9383a2.95076,2.95076,0,0,1-.54927,3.32272,2.85422,2.85422,0,0,1-2.03542.84757,2.90238,2.90238,0,0,1-1.26379-.28949L4.64864,12.71477a0.96006,0.96006,0,0,1-1.36576,0,0.97962,0.97962,0,0,1,0-1.37724L7.51167,7.07321a2.9337,2.9337,0,0,1,.57986-3.28178A2.86079,2.86079,0,0,1,10.13953,3m2.665-1.35-0.73734-.2909A5.30209,5.30209,0,0,0,10.13963,1h0A4.82516,4.82516,0,0,0,6.67141,2.38313,4.95261,4.95261,0,0,0,5.28783,6.47539L1.86275,9.92924a2.98648,2.98648,0,0,0,0,4.19382,2.96,2.96,0,0,0,4.206,0l3.392-3.42051a4.86534,4.86534,0,0,0,4.1268-1.39263,4.95821,4.95821,0,0,0,.94026-5.57943L14.244,3.12461Z" fill="#231f20"/></svg>