<svg xmlns="http://www.w3.org/2000/svg" width="16" height="16" viewBox="0 0 16 16"><title>finite-icons</title><path d="M13.30915,13H2.69085a0.5,0.5,0,0,1-.44721-0.27639l-0.13817-.27634a9.94439,9.94439,0,0,1,0-8.89453l0.13817-.27634A0.5,0.5,0,0,1,2.69085,3H13.30915a0.5,0.5,0,0,1,.44721.27639l0.13817,0.27634a9.94439,9.94439,0,0,1,0,8.89453l-0.13817.27634A0.5,0.5,0,0,1,13.30915,13ZM3.63867,11h8.72266a7.34215,7.34215,0,0,0,0-6H3.63867A7.34215,7.34215,0,0,0,3.63867,11Z" fill="#231f20"/><polygon points="7 6 10 8 7 10 7 6" fill="#231f20"/></svg>