<?xml version="1.0" standalone="no"?>
<!DOCTYPE svg PUBLIC "-//W3C//DTD SVG 1.1//EN" "http://www.w3.org/Graphics/SVG/1.1/DTD/svg11.dtd" >
<!--
2016-6-21: Created with FontForge (http://fontforge.org)
-->
<svg xmlns="http://www.w3.org/2000/svg" xmlns:xlink="http://www.w3.org/1999/xlink" version="1.1">
<metadata>
Created by FontForge 20160407 at Tue Jun 21 15:45:45 2016
 By Jeffrey Merrick
Copyright (c) 2016, Jeffrey Merrick
</metadata>
<defs>
<font id="finite-icons" horiz-adv-x="512" >
  <font-face 
    font-family="finite-icons"
    font-weight="400"
    font-stretch="normal"
    units-per-em="512"
    panose-1="2 0 5 3 0 0 0 0 0 0"
    ascent="448"
    descent="-64"
    bbox="27.2102 -41.8926 487.294 425.893"
    underline-thickness="25.6"
    underline-position="-51.2"
    unicode-range="U+0020-F25D"
  />
    <missing-glyph />
    <glyph glyph-name="space" unicode=" " horiz-adv-x="200" 
 />
    <glyph glyph-name="uniF255" unicode="&#xf255;" 
d="M357.74 316.941c32.4805 -26.5078 58.8408 -82.0459 58.8408 -123.97c0 -88.3271 -71.6865 -160.014 -160.014 -160.014c-31.2402 0 -76.3115 15.9414 -100.604 35.583c-3.00586 2.61621 -5.44531 7.97363 -5.44531 11.959c0 3.7041 2.1582 8.80371 4.81836 11.3828
l23.4277 23.4297c2.45996 2.32812 7.20605 4.21777 10.5928 4.21777c3.03711 0 7.40918 -1.56055 9.75879 -3.4834c14.1182 -10.4697 39.8418 -18.9658 57.418 -18.9658c32.749 0 71.3027 23.7275 86.0586 52.9639c5.77539 11.1592 10.4619 30.415 10.4619 42.9795
c0 12.5576 -4.68066 31.8008 -10.4482 42.9541c-14.7246 29.2734 -53.2686 53.0303 -86.0352 53.0303c-21.9629 0 -52.4141 -12.5801 -67.9727 -28.0811l-4.61914 -4.61914l24.1328 -0.306641c8.77051 -0.0605469 15.8887 -7.22852 15.8887 -16v-0.109375l-0.21875 -32.002
c-0.0615234 -8.77148 -7.22949 -15.8906 -16.002 -15.8906h-0.109375h-143.67v143.67v0.111328c0 8.77246 7.11914 15.9404 15.8906 16l32 0.21875h0.109375c8.77148 0 15.9395 -7.11816 16 -15.8887l0.34375 -44.9385l9.94727 9.94727
c26.8311 27.7646 79.9434 50.2988 118.555 50.2988c31.0986 0 76.2988 -15.4463 100.895 -34.4775z" />
    <glyph glyph-name="uniF236" unicode="&#xf236;" 
d="M262.996 363.479c2.24902 1.53125 6.2832 2.77344 9.00391 2.77344c8.83203 0 16 -7.16797 16 -16v0v-316.5v0c0 -8.83203 -7.16797 -16 -16 -16c-2.72168 0 -6.75684 1.24316 -9.00586 2.77539l-110.838 75.4727h-20.3672
c-0.493164 -0.00878906 -1.29395 -0.0166016 -1.78711 -0.0166016c-43.5049 0 -86.5752 34.4443 -96.1406 76.8838c-1.04395 5.18555 -1.8916 13.6885 -1.8916 18.9775c0 53.0088 43.0215 96.0869 96.0303 96.1553h24.125zM224 124.5v135l-52.1543 -35.5h-43.8457
c-17.6641 0 -32 -14.3359 -32 -32s14.3359 -32 32 -32h42.75zM320 240c0 16 0 16 16 16v0c16 0 16 0 16 -16v-96c0 -16 0 -16 -16 -16v0c-16 0 -16 0 -16 16v96zM384 304c0 16 0 16 16 16v0c16 0 16 0 16 -16v-224c0 -16 0 -16 -16 -16v0c-16 0 -16 0 -16 16v224zM448 368
c0 16 0 16 16 16v0c16 0 16 0 16 -16v-352c0 -16 0 -16 -16 -16v0c-16 0 -16 0 -16 16v352z" />
    <glyph glyph-name="uniF1BB" unicode="&#xf1bb;" 
d="M334.059 113.945l22.6318 -22.6279c2.58789 -2.58691 4.68848 -7.65625 4.68848 -11.3154c0 -3.65723 -2.09863 -8.72461 -4.68457 -11.3115l-56.5586 -56.5723l-45.2344 -45.2578l-101.781 101.826c-2.5625 2.58301 -4.64258 7.63281 -4.64258 11.2715
c0 3.67773 2.11914 8.7666 4.72949 11.3574l22.8008 22.6289c2.64258 2.58691 7.78809 4.68555 11.4854 4.68555s8.84277 -2.09863 11.4854 -4.68555l25.0215 -24.334v204.128l-24.6846 -23.6875c-2.75 -2.58691 -8.04492 -4.68555 -11.8203 -4.68555
s-9.07031 2.09863 -11.8203 4.68555l-22.624 22.627c-2.58594 2.58691 -4.68457 7.6543 -4.68457 11.3125s2.09961 8.72754 4.68652 11.3145l56.5791 56.5703l45.2686 45.2539l101.852 -101.822c2.60254 -2.58984 4.71387 -7.6709 4.71387 -11.3418
c0 -3.64551 -2.08594 -8.70117 -4.65723 -11.2852l-22.5176 -22.6289c-2.55078 -2.58594 -7.56934 -4.68555 -11.2021 -4.68555s-8.65137 2.09961 -11.2021 4.68555l-23.8867 24.334v-204.1l23.5469 23.6602c2.56836 2.58691 7.61035 4.68555 11.2559 4.68555
s8.6875 -2.09863 11.2559 -4.68555z" />
    <glyph glyph-name="uniF207" unicode="&#xf207;" 
d="M256 416c123.51 -0.138672 223.861 -100.49 224 -224c0 -123.648 -100.352 -224 -224 -224s-224 100.352 -224 224s100.352 224 224 224zM192 192c0 -35.3281 28.6719 -64 64 -64s64 28.6719 64 64s-28.6719 64 -64 64s-64 -28.6719 -64 -64zM365.865 127.392
l23.4805 -23.4805c14.7129 22.0869 26.6543 61.5518 26.6543 88.0898c0 26.5391 -11.9414 66.0029 -26.6543 88.0898l-23.4805 -23.4795c10.0107 -16.4277 18.1348 -45.373 18.1348 -64.6104c0 -19.2363 -8.12402 -48.1816 -18.1348 -64.6094zM344.09 325.348v-0.00195312
c-22.0869 14.7129 -61.5508 26.6543 -88.0898 26.6543s-66.0029 -11.9414 -88.0898 -26.6543l23.4785 -23.4805c16.4277 10.0107 45.373 18.1348 64.6104 18.1348c19.2363 0 48.1816 -8.12402 64.6094 -18.1348zM122.654 280.09
c-14.7129 -22.0869 -26.6543 -61.5518 -26.6543 -88.0908s11.9414 -66.0029 26.6543 -88.0898l23.4805 23.4795c-10.0107 16.4277 -18.1348 45.373 -18.1348 64.6104c0 19.2363 8.12402 48.1816 18.1348 64.6094zM167.91 58.6543v0
c22.0859 -14.7129 61.5498 -26.6543 88.0889 -26.6543s66.0039 11.9414 88.0908 26.6562l-23.4785 23.4805c-16.4277 -10.0117 -45.374 -18.1367 -64.6113 -18.1367s-48.1807 8.12402 -64.6084 18.1348z" />
    <glyph glyph-name="uniF23F" unicode="&#xf23f;" 
d="M432 384c8.83203 0 16 -7.16797 16 -16v-112.943v-0.000976562c0 -3.5498 -1.99414 -8.51074 -4.45117 -11.0732l-119.098 -124.215c-2.45703 -2.56152 -4.45117 -7.52148 -4.45117 -11.0703v-0.00390625v-115.317c-0.00195312 -8.83008 -7.16992 -15.9961 -16 -15.9961
c-3.6582 0 -8.72656 2.09863 -11.3135 4.68555l-57.9668 57.9668l-165.675 -55.2256c-1.35938 -0.453125 -3.62598 -0.821289 -5.05957 -0.821289c-8.83203 0 -16 7.16797 -16 16c0 1.43359 0.368164 3.7002 0.821289 5.05957l55.2256 165.675l-57.9688 57.9678
c-2.58594 2.58691 -4.68555 7.6543 -4.68555 11.3125c0 8.83105 7.16699 15.999 15.998 16h115.317c3.5498 0 8.51172 1.99414 11.0742 4.45117l124.215 119.098c2.5625 2.45703 7.52246 4.45117 11.0723 4.45117h0.00195312h112.943zM89.3115 25.3115l120.095 40.0322
l-19.3438 19.3438l-31.7051 -10.5684c-1.35938 -0.453125 -3.62598 -0.820312 -5.05859 -0.820312c-8.83203 0 -16 7.16797 -16 16c0 1.43262 0.367188 3.69922 0.820312 5.05859l10.5684 31.7051l-19.3438 19.3438zM384 274.375v45.625h-45.625l-1.21484 -1.16602
l22.8359 -22.8359l-23.1523 -23.1523c-5.64844 -5.61328 -16.6973 -10.1689 -24.6611 -10.1689c-7.5918 0 -18.2656 4.19629 -23.8252 9.36621l-83.4824 -80.043h-31.625l82.75 -82.75v31.625z" />
    <glyph glyph-name="uniF22D" unicode="&#xf22d;" 
d="M448.137 204.453c4.27246 -2.5752 7.74023 -8.71484 7.74023 -13.7031c0 -5.04785 -3.52832 -11.2227 -7.87695 -13.7852l-199.877 -122.75c-2.0752 -1.22266 -5.71387 -2.21582 -8.12305 -2.21582c-8.83203 0 -16 7.16797 -16 16v0.000976562v66.2754l-135.877 -80.0605
c-2.0752 -1.22266 -5.71387 -2.21582 -8.12305 -2.21582c-8.83203 0 -16 7.16797 -16 16v0.000976562v248.33c0 8.83203 7.16797 16 16 16c2.45605 0 6.15625 -1.0293 8.25977 -2.29688l135.74 -81.8242v68.1211v0c0 8.83203 7.16797 16 16 16
c2.45605 0 6.15625 -1.0293 8.25977 -2.29688zM128 152l66.5781 39.2188l-66.5781 40.125v-79.3438zM288 152l66.5781 39.2188l-66.5781 40.125v-79.3438z" />
    <glyph glyph-name="uniF212" unicode="&#xf212;" 
d="M448 368v-304h-384v304c0 8.83203 7.16797 16 16 16h352c8.83203 0 16 -7.16797 16 -16zM384 128v192h-256v-192h256zM32 32h448v-16c0 -8.83203 -7.16797 -16 -16 -16h-416c-8.83203 0 -16 7.16797 -16 16v16z" />
    <glyph glyph-name="uniF1B3" unicode="&#xf1b3;" 
d="M96 336c0 16 0 16 16 16h288c16 0 16 0 16 -16v-32c0 -16 0 -16 -16 -16h-288c-16 0 -16 0 -16 16v32zM96 240c0 16 0 16 16 16h160c16 0 16 0 16 -16v-32c0 -16 0 -16 -16 -16h-160c-16 0 -16 0 -16 16v32zM96 144c0 16 0 16 16 16h224c16 0 16 0 16 -16v-32
c0 -16 0 -16 -16 -16h-224c-16 0 -16 0 -16 16v32zM96 48c0 16 0 16 16 16h96c16 0 16 0 16 -16v-32c0 -16 0 -16 -16 -16h-96c-16 0 -16 0 -16 16v32z" />
    <glyph glyph-name="uniF1E4" unicode="&#xf1e4;" 
d="M139.312 84.6885l-107.312 107.312l107.312 107.312c2.58691 2.58691 7.65527 4.68652 11.3135 4.68652s8.72656 -2.09961 11.3135 -4.68652l22.624 -22.624c2.58691 -2.58691 4.68652 -7.65527 4.68652 -11.3135c0 -3.65918 -2.09961 -8.72754 -4.68652 -11.3145
l-62.0625 -62.0596l62.0615 -62.0615c2.58691 -2.58691 4.68652 -7.65527 4.68652 -11.3135s-2.09961 -8.72754 -4.68652 -11.3135l-22.624 -22.624c-2.58691 -2.58691 -7.6543 -4.68555 -11.3125 -4.68555s-8.72656 2.09961 -11.3135 4.68652zM350.062 84.6885
l-22.624 22.624c-2.58691 2.58691 -4.68652 7.65527 -4.68652 11.3135c0 3.65918 2.09961 8.72754 4.68652 11.3145l62.0625 62.0596l-62.0615 62.0615c-2.58691 2.58691 -4.68652 7.65527 -4.68652 11.3135s2.09961 8.72754 4.68652 11.3135l22.624 22.624
c2.58691 2.58691 7.65527 4.68652 11.3145 4.68652c3.6582 0 8.72656 -2.09961 11.3135 -4.68652l107.31 -107.312l-107.312 -107.312c-2.58691 -2.58691 -7.65527 -4.68555 -11.3135 -4.68555s-8.72656 2.09863 -11.3135 4.68555zM242.009 0h-30.6836h-0.000976562
c-8.83105 0 -16 7.16797 -16 16c0 0.731445 0.0976562 1.90918 0.217773 2.63086l58.667 352c1.23047 7.37988 8.30078 13.3691 15.7822 13.3691v0h30.6836h0.000976562c8.83105 0 16 -7.16797 16 -16c0 -0.731445 -0.0976562 -1.90918 -0.217773 -2.63086l-58.667 -352
c-1.23047 -7.37988 -8.30078 -13.3691 -15.7822 -13.3691v0z" />
    <glyph glyph-name="uniF1FD" unicode="&#xf1fd;" 
d="M256 352c123.51 -0.138672 223.861 -100.49 224 -224v-128h-448v128c0.138672 123.51 100.49 223.861 224 224zM416 64v64c0 88.3203 -71.6797 160 -160 160s-160 -71.6797 -160 -160v-64h320zM128 176c0 8.83691 7.16309 16 16 16s16 -7.16309 16 -16
s-7.16309 -16 -16 -16s-16 7.16309 -16 16zM192 240c0 8.83691 7.16309 16 16 16s16 -7.16309 16 -16s-7.16309 -16 -16 -16s-16 7.16309 -16 16zM352 176c0 8.83691 7.16309 16 16 16s16 -7.16309 16 -16s-7.16309 -16 -16 -16s-16 7.16309 -16 16zM288 240
c0 8.83691 7.16309 16 16 16s16 -7.16309 16 -16s-7.16309 -16 -16 -16s-16 7.16309 -16 16zM291.371 190.094c2.64258 3.56836 8.3916 6.46484 12.833 6.46484c8.81348 0 15.9678 -7.15332 15.9678 -15.9678c0 -0.647461 -0.0771484 -1.69434 -0.171875 -2.33496
l-12.1836 -82.2559h-86.0664z" />
    <glyph glyph-name="uniF231" unicode="&#xf231;" 
d="M416 256v-188.33c0 -8.83203 -7.16797 -16 -16 -16c-2.45605 0 -6.15625 1.0293 -8.25977 2.29688l-199.877 125.58c-4.27246 2.5752 -7.74023 8.71484 -7.74023 13.7031c0 5.04785 3.52832 11.2227 7.87695 13.7852l199.877 122.75
c2.0752 1.22266 5.71387 2.21582 8.12305 2.21582c8.83203 0 16 -7.16797 16 -16v-0.000976562v-60zM352 232l-66.5781 -39.2188l66.5781 -40.125v79.3438zM160 48c0 -16 0 -16 -16 -16h-32c-16 0 -16 0 -16 16v288c0 16 0 16 16 16h32c16 0 16 0 16 -16v-288z" />
    <glyph glyph-name="uniF211" unicode="&#xf211;" 
d="M464 0h-416c-8.83203 0 -16 7.16797 -16 16v320c0 8.83203 7.16797 16 16 16h416c8.83203 0 16 -7.16797 16 -16v-320c0 -8.83203 -7.16797 -16 -16 -16zM96 64h320v224h-320v-224zM128 96v32h256v-32h-256zM224 224v32h32v-32h-32zM128 224v32h64v-32h-64zM288 224v32
h32v-32h-32zM352 224v32h32v-32h-32zM128 160v32h32v-32h-32zM192 160v32h32v-32h-32zM256 160v32h32v-32h-32zM320 160v32h64v-32h-64z" />
    <glyph glyph-name="uniF1D1" unicode="&#xf1d1;" 
d="M320 130.401c-2.06738 -11.9355 -13.5762 -21.6221 -25.6895 -21.6221c-4.73828 0 -11.6768 2.28418 -15.4883 5.09863l-79.8467 61.6221c-3.8125 3.5332 -6.90723 10.6191 -6.90723 15.8184c0 5.9375 3.84961 13.6562 8.59375 17.2275l77.3174 61.6221
c3.88574 2.82031 10.9355 5.10938 15.7363 5.10938c12.1689 0 23.9443 -9.69141 26.2842 -21.6328v-123.243z" />
    <glyph glyph-name="uniF238" unicode="&#xf238;" 
d="M400 256c44.1133 -0.0458984 79.9541 -35.8867 80 -80v-96c-0.0751953 -61.749 -50.251 -111.925 -112 -112h-224c-61.749 0.0751953 -111.925 50.251 -112 112v256c0 44.1602 35.8398 80 80 80s80 -35.8398 80 -80v-17.6094
c4.10352 0.761719 10.8213 1.38086 14.9951 1.38086c23.7598 0 54.0166 -15.8574 67.5361 -35.3965c7.83594 3.10547 21.0371 5.625 29.4658 5.625c25.0039 0 55.7344 -17.4023 68.5967 -38.8438c7.29199 2.67383 19.5137 4.84375 27.2803 4.84375h0.125977zM416 80v96
c0 8.83203 -7.16797 16 -16 16s-16 -7.16797 -16 -16s-7.16797 -16 -16 -16h-32c-8.83203 0 -16 7.16797 -16 16v34c0 8.83203 -7.16797 16 -16 16s-16 -7.16797 -16 -16v-34c0 -8.83203 -7.16797 -16 -16 -16h-32c-8.83203 0 -16 7.16797 -16 16v64
c0 8.83203 -7.16797 16 -16 16s-16 -7.16797 -16 -16v-64c0 -8.83203 -7.16797 -16 -16 -16h-32c-8.83203 0 -16 7.16797 -16 16v160c0 8.83203 -7.16797 16 -16 16s-16 -7.16797 -16 -16v-256c0.0292969 -26.4668 21.5332 -47.9707 48 -48h224
c26.4668 0.0292969 47.9707 21.5332 48 48z" />
    <glyph glyph-name="uniF1BA" unicode="&#xf1ba;" 
d="M434.744 237.246l45.2559 -45.252l-101.826 -101.814c-2.58691 -2.58203 -7.65137 -4.67773 -11.3066 -4.67773c-3.66211 0 -8.73438 2.10254 -11.3223 4.69336l-22.6289 22.6602c-2.58594 2.59668 -4.68457 7.67871 -4.68457 11.3438s2.09863 8.74707 4.68457 11.3438
l24.3359 24.457h-205.24l24.7988 -24.6836c2.58594 -2.56836 4.68555 -7.61133 4.68555 -11.2568s-2.09961 -8.68848 -4.68555 -11.2568l-22.6289 -22.6289c-2.58691 -2.58691 -7.65527 -4.68652 -11.3135 -4.68652s-8.72656 2.09961 -11.3135 4.68652l-56.5703 56.5684
l-45.2539 45.252l101.821 101.816c2.58691 2.58301 7.65234 4.67969 11.3076 4.67969c3.66113 0 8.7334 -2.10254 11.3203 -4.69336l22.6289 -22.6572c2.58691 -2.59766 4.68555 -7.67969 4.68555 -11.3447s-2.09863 -8.74707 -4.68555 -11.3438l-24.334 -24.4512h205.234
l-24.7949 24.6777c-2.58691 2.56836 -4.68555 7.61035 -4.68555 11.2549s2.09863 8.6875 4.68555 11.2549l22.6289 22.627c2.58691 2.58691 7.65625 4.68555 11.3145 4.68555s8.72754 -2.09863 11.3145 -4.68555z" />
    <glyph glyph-name="uniF1BC" unicode="&#xf1bc;" 
d="M224 368c-0.000976562 0.0546875 -0.000976562 0.142578 -0.000976562 0.197266c0 8.7041 7.06348 15.7842 15.7676 15.8027h32h0.0332031c8.83301 0 16.0908 -7.16797 16.2002 -16v-247.996l24.6885 24.8037c2.56836 2.58691 7.61035 4.68555 11.2559 4.68555
c3.64453 0 8.68652 -2.09863 11.2549 -4.68555l22.6279 -22.6279c2.58691 -2.58594 4.68652 -7.65527 4.68652 -11.3135s-2.09961 -8.72656 -4.68652 -11.3135l-56.5684 -56.5703l-45.252 -45.2549l-101.817 101.823c-2.58301 2.58594 -4.67871 7.65137 -4.67871 11.3066
c0 3.66211 2.10254 8.7334 4.69336 11.3213l22.6582 22.6289c2.59668 2.58594 7.67871 4.68555 11.3428 4.68555c3.66504 0 8.74707 -2.09961 11.3438 -4.68555l24.4512 -24.334v247.526z" />
    <glyph glyph-name="uniF230" unicode="&#xf230;" 
d="M96 38.1074v307.785c0 8.83203 7.16797 16 16 16c2.08496 0 5.29102 -0.756836 7.15527 -1.68945l283.318 -153.893c4.88184 -2.44141 8.84473 -8.85254 8.84473 -14.3105s-3.96289 -11.8691 -8.84473 -14.3105l-283.318 -153.893
c-1.86426 -0.932617 -5.07031 -1.68945 -7.15527 -1.68945c-8.83203 0 -16 7.16797 -16 16zM160 268.22v-152.438l128 76.2178z" />
    <glyph glyph-name="uniF1C3" unicode="&#xf1c3;" 
d="M384 368v-304h-336c-8.83203 0 -16 7.16797 -16 16v288c0 8.83203 7.16797 16 16 16h320c8.83203 0 16 -7.16797 16 -16zM160 128h32v33.7793c-3.52441 0.654297 -9.1543 2.07812 -12.5654 3.17773c-8.18945 2.67578 -20.2793 9.23535 -26.9863 14.6426l15.2158 21.6807
c9.94141 -8.1377 28.4355 -14.8516 41.2812 -14.9863c0.270508 -0.0146484 0.709961 -0.0263672 0.981445 -0.0263672c2.86133 0 7.1748 1.19629 9.62793 2.6709c2.16797 1.30957 3.92773 4.42871 3.92773 6.96289v0.0771484
c-0.285156 3.04102 -2.71484 6.65625 -5.42383 8.06836c-4.05957 2.52148 -11.0869 5.62207 -15.6855 6.92188c-6.83529 2.14518 -12.0586 3.98828 -15.6699 5.5293c-3.55664 1.57031 -9.08691 4.56934 -12.3438 6.69336
c-7.78223 4.58105 -14.0977 15.6289 -14.0977 24.6592c0 0.354492 0.0136719 0.931641 0.0292969 1.28613c-0.00390625 0.178711 -0.00585938 0.469727 -0.00585938 0.648438c0 9.4873 6.20312 21.7461 13.8477 27.3652c4.4541 3.33398 12.459 7.10059 17.8672 8.4082
v34.4414h-96v-192h64zM320 128v192h-96v-33.7246c8.88965 -2.01367 22.1895 -7.85449 29.6875 -13.0371l-12.9033 -23.0586c-7.91895 5.84473 -22.3311 10.7998 -32.1699 11.0605c-10.6882 0.00520833 -16.0322 -2.91602 -16.0322 -8.76367
c0.046875 -3.00195 2.32129 -6.40723 5.07617 -7.60156c4.48633 -2.2002 12.0283 -5.09766 16.834 -6.4668c7.83203 -2.45247 13.4023 -4.33594 16.7109 -5.65039c3.41406 -1.41992 8.73535 -4.15527 11.877 -6.10547c7.18848 -4.5918 13.0234 -15.2412 13.0234 -23.7715
c0 -0.667969 -0.046875 -1.74902 -0.103516 -2.41406c0.0117188 -0.335938 0.0205078 -0.881836 0.0205078 -1.21875c0 -9.56445 -6.05469 -22.1855 -13.5146 -28.1719c-4.57031 -3.55566 -12.8613 -7.48633 -18.5059 -8.77539v-34.3008h96zM464 320
c8.83203 0 16 -7.16797 16 -16v-320c0 -8.83203 -7.16797 -16 -16 -16h-352c-8.83203 0 -16 7.16797 -16 16v48h320v288h48z" />
    <glyph glyph-name="uniF24B" unicode="&#xf24b;" 
d="M464 384c8.83203 0 16 -7.16797 16 -16v-352c0 -8.83203 -7.16797 -16 -16 -16h-416c-8.83203 0 -16 7.16797 -16 16v352c0 8.83203 7.16797 16 16 16h416zM272 32c8.83203 0 16 7.16797 16 16s-7.16797 16 -16 16h-32c-8.83203 0 -16 -7.16797 -16 -16
s7.16797 -16 16 -16h32zM416 96v224h-320v-224h320z" />
    <glyph glyph-name="uniF1F8" unicode="&#xf1f8;" 
d="M444.8 -6.40039c1.7666 -2.35449 3.2002 -6.65527 3.2002 -9.59961c0 -8.83203 -7.16797 -16 -16 -16h-0.00195312h-383.998c-8.83203 0 -16 7.16797 -16 16c0 2.94434 1.43359 7.24512 3.2002 9.59961l108.8 155.712v106.688h-32v48c0 8.83203 7.16797 16 16 16h48
c0 17.6641 14.3359 32 32 32s32 -14.3359 32 -32h112c8.83203 0 16 -7.16797 16 -16v-48h-32v-106.688zM208 32h128l-64 96c-17.6641 0 -32 14.3359 -32 32s14.3359 32 32 32v64h-64v-128l-44.3242 -66.4863c3.27344 1.37207 8.81055 2.48633 12.3594 2.48633
c17.6445 0 31.9648 -14.3203 31.9648 -31.9648v-0.0351562zM240 384c0 17.6729 14.3271 32 32 32s32 -14.3271 32 -32s-14.3271 -32 -32 -32s-32 14.3271 -32 32zM240 80c0 8.83691 7.16309 16 16 16s16 -7.16309 16 -16s-7.16309 -16 -16 -16s-16 7.16309 -16 16z" />
    <glyph glyph-name="uniF1B9" unicode="&#xf1b9;" 
d="M380.611 112.97c2.58691 -2.58691 4.68652 -7.65527 4.68652 -11.3135s-2.09961 -8.72656 -4.68652 -11.3135l-22.627 -22.6289c-2.58691 -2.58691 -7.65527 -4.68652 -11.3135 -4.68652s-8.72656 2.09961 -11.3135 4.68652l-175.357 175.362v-35.0801
c-0.000976562 -8.83008 -7.16797 -15.9961 -15.998 -15.9961h-0.00195312h-32h-0.00195312c-8.83008 0 -15.9971 7.16699 -15.998 15.9971v144.003h144c8.83203 0 16 -7.16797 16 -16v-32.002c-0.000976562 -8.83105 -7.16895 -15.999 -16 -16h-34.4141z" />
    <glyph glyph-name="uniF1EB" unicode="&#xf1eb;" 
d="M464 384c8.83203 0 16 -7.16797 16 -16v-288c0 -8.83203 -7.16797 -16 -16 -16h-176v-32h112c8.83203 0 16 -7.16797 16 -16s-7.16797 -16 -16 -16h-288c-8.83203 0 -16 7.16797 -16 16s7.16797 16 16 16h112v32h-176c-8.83203 0 -16 7.16797 -16 16v288
c0 8.83203 7.16797 16 16 16h416zM416 128v192h-320v-192h320z" />
    <glyph glyph-name="uniF24E" unicode="&#xf24e;" 
d="M464 416c8.83203 0 16 -7.16797 16 -16v-416c0 -8.83203 -7.16797 -16 -16 -16h-416c-8.83203 0 -16 7.16797 -16 16v416c0 8.83203 7.16797 16 16 16h416zM416 32v288h-320v-288h320zM155.309 68.6914l-22.624 22.624
c-2.58691 2.58691 -4.68652 7.65527 -4.68652 11.3135s2.09961 8.72656 4.68652 11.3135l62.0625 62.0605l-62.0605 62.0605c-2.58691 2.58691 -4.68652 7.65527 -4.68652 11.3135c0 3.65918 2.09961 8.72754 4.68652 11.3145l22.624 22.624
c2.58691 2.58691 7.65527 4.68652 11.3135 4.68652s8.72754 -2.09961 11.3135 -4.68652l107.311 -107.312l-107.312 -107.312c-2.58691 -2.58691 -7.65527 -4.68652 -11.3135 -4.68652c-3.65918 0 -8.72754 2.09961 -11.3145 4.68652zM256 112c0 16 0 16 16 16h96
c16 0 16 0 16 -16v-32c0 -16 0 -16 -16 -16h-96c-16 0 -16 0 -16 16v32z" />
    <glyph glyph-name="uniF215" unicode="&#xf215;" 
d="M168.31 228.173l23.8047 -22.791c2.72461 -2.6084 4.93555 -7.78516 4.93555 -11.5566c0 -3.65918 -2.09961 -8.72754 -4.68652 -11.3145l-52.8584 -52.8584c-5.32031 -5.1123 -9.6377 -15.249 -9.6377 -22.627s4.31738 -17.5156 9.6377 -22.6279
c5.39258 -5.16602 15.8301 -9.35938 23.2988 -9.35938c7.46777 0 17.9053 4.19336 23.2988 9.35938l23.2988 22.6279l4.29492 4.1709l35.4092 33.9697c2.5625 2.45801 7.52539 4.45312 11.0762 4.45312c3.55762 0 8.52637 -2.00098 11.0908 -4.4668l23.6689 -22.7627
c2.73242 -2.62793 4.95117 -7.83789 4.95117 -11.6289c0 -3.78613 -2.21289 -8.99023 -4.93848 -11.6182l-62.2559 -60c-16.1787 -15.4961 -47.4922 -28.0742 -69.8965 -28.0742c-22.4033 0 -53.7168 12.5781 -69.8955 28.0742
c-15.9561 15.3379 -28.9062 45.749 -28.9062 67.8809c0 22.1338 12.9512 52.5459 28.9092 67.8838l53.0215 53.0225c2.58691 2.58691 7.65527 4.68555 11.3135 4.68555c3.5459 0 8.50391 -1.99023 11.0654 -4.44238zM342.425 166.09l-23.3311 23.2666
c-2.5957 2.58887 -4.70312 7.66406 -4.70312 11.3301c0 3.6582 2.09961 8.72656 4.68652 11.3135l53.4189 53.416c5.32031 5.1123 9.6377 15.249 9.6377 22.627s-4.31738 17.5156 -9.6377 22.6279c-5.39258 5.16602 -15.8301 9.35938 -23.2988 9.35938
c-7.46777 0 -17.9053 -4.19336 -23.2988 -9.35938l-23.2988 -22.627l-4.29297 -4.16992l-31.5205 -30.1221c-2.55957 -2.44629 -7.5127 -4.43262 -11.0537 -4.43262c-3.58301 0 -8.57715 2.02637 -11.1475 4.52246l-23.6631 22.9814
c-2.67871 2.60156 -4.85254 7.74414 -4.85254 11.4775c0 3.75977 2.19922 8.92676 4.90918 11.5322l58.3232 56.0928c16.1787 15.4971 47.4922 28.0742 69.8965 28.0742c22.4033 0 53.7168 -12.5771 69.8955 -28.0742c15.9561 -15.3379 28.9062 -45.748 28.9062 -67.8809
c0 -22.1338 -12.9512 -52.5449 -28.9092 -67.8838l-54.0547 -54.0547c-2.58691 -2.58691 -7.65527 -4.68652 -11.3135 -4.68652c-3.65137 0 -8.71289 2.09277 -11.2979 4.66992zM75.667 348.999c-11.667 11.667 -11.667 11.667 0 23.334h0.000976562
c11.667 11.667 11.667 11.667 23.334 0l60.999 -60.998c11.667 -11.667 11.667 -11.667 0 -23.335h-0.000976562c-11.667 -11.667 -11.667 -11.667 -23.334 0zM191 400c0 16 0 16 16 16v0c16 0 16 0 16 -16v-32c0 -16 0 -16 -16 -16v0c-16 0 -16 0 -16 16v32zM32 240
c0 16 0 16 16 16h32c16 0 16 0 16 -16v0c0 -16 0 -16 -16 -16h-32c-16 0 -16 0 -16 16v0zM435.332 35.001c11.668 -11.667 11.668 -11.667 0 -23.334v0c-11.667 -11.668 -11.667 -11.668 -23.334 0l-60.998 60.998c-11.667 11.667 -11.667 11.667 0 23.335v0
c11.667 11.667 11.667 11.667 23.335 0zM319.999 -16c0 -16 0 -16 -16 -16v0c-16 0 -16 0 -16 16v32c0 16 0 16 16 16v0c16 0 16 0 16 -16v-32zM416 144c0 16 0 16 16 16h32c16 0 16 0 16 -16v0c0 -16 0 -16 -16 -16h-32c-16 0 -16 0 -16 16v0z" />
    <glyph glyph-name="uniF25B" unicode="&#xf25b;" 
d="M464 416c8.83203 0 16 -7.16797 16 -16v-416c0 -8.83203 -7.16797 -16 -16 -16h-416c-8.83203 0 -16 7.16797 -16 16v416c0 8.83203 7.16797 16 16 16h416zM240 352c-8.80664 -0.0253906 -15.9746 -7.19336 -16 -16c0 -8.83203 7.16797 -16 16 -16s16 7.16797 16 16
s-7.16797 16 -16 16zM176 352c-8.80664 -0.0253906 -15.9746 -7.19336 -16 -16c0 -8.83203 7.16797 -16 16 -16s16 7.16797 16 16s-7.16797 16 -16 16zM112 352c-8.80664 -0.0253906 -15.9746 -7.19336 -16 -16c0 -8.83203 7.16797 -16 16 -16s16 7.16797 16 16
s-7.16797 16 -16 16zM416 32v256h-320v-256h320z" />
    <glyph glyph-name="uniF225" unicode="&#xf225;" 
d="M211.205 -31.374c-63.6035 8.0957 -115.225 66.7031 -115.225 130.82c0 0.620117 0.00878906 1.62598 0.0195312 2.24609v130.459c-0.0146484 0.853516 -0.0263672 2.23828 -0.0263672 3.0918c0 88.1699 70.9854 168.765 158.45 179.897
c4.78223 0.473633 12.5654 0.858398 17.3721 0.858398c97.1514 0 176.091 -78.8477 176.204 -175.999v-192c0 -8.83203 -7.16797 -16 -16 -16h-32c-8.83203 0 -16 7.16797 -16 16v188.777c0.00683594 0.454102 0.0117188 1.19043 0.0117188 1.64453
c0 50.1221 -39.6426 99.9248 -88.4873 111.166c-6.36621 1.35352 -16.8154 2.45117 -23.3242 2.45117c-61.8457 0 -112.111 -50.1934 -112.2 -112.039v-140.403c-0.00976562 -0.419922 -0.0175781 -1.10059 -0.0175781 -1.51953
c0 -29.9814 23.8408 -59.1855 53.2158 -65.1865c2.93555 -0.498047 7.73438 -0.901367 10.7109 -0.901367c35.335 0 64.0469 28.6768 64.0908 64.0107v144c0 8.83203 -7.16797 16 -16 16s-16 -7.16797 -16 -16v-96c0 -8.83203 -7.16797 -16 -16 -16h-32
c-8.83203 0 -16 7.16797 -16 16v91.2832c-0.0107422 0.506836 -0.0205078 1.3291 -0.0205078 1.83594c0 39.9414 32.0996 76.8799 71.6504 82.4521c2.28027 0.237305 5.99219 0.429688 8.28516 0.429688c44.1602 0 80.0381 -35.8408 80.085 -80.001v-144
c-0.0742188 -70.6562 -57.4795 -128.001 -128.136 -128.001c-3.50293 0 -9.17383 0.280273 -12.6592 0.626953z" />
    <glyph glyph-name="uniF246" unicode="&#xf246;" 
d="M256 416c123.504 -0.144531 223.855 -100.496 224 -224c0 -123.648 -100.352 -224 -224 -224s-224 100.352 -224 224s100.352 224 224 224zM256 32c88.2158 0.103516 159.896 71.7842 160 160c0 88.3203 -71.6797 160 -160 160s-160 -71.6797 -160 -160
s71.6797 -160 160 -160zM160 256c0 17.6729 14.3271 32 32 32s32 -14.3271 32 -32s-14.3271 -32 -32 -32s-32 14.3271 -32 32zM288 256c0 17.6729 14.3271 32 32 32s32 -14.3271 32 -32s-14.3271 -32 -32 -32s-32 14.3271 -32 32zM256 96
c-43.2314 0.00292969 -85.3721 34.375 -94.0645 76.7236c-0.162109 0.841797 -0.294922 2.2207 -0.294922 3.07812c0 8.92773 7.24609 16.1846 16.1738 16.1982h156.371c8.92773 -0.0136719 16.1738 -7.27051 16.1738 -16.1982
c0 -0.857422 -0.132812 -2.23633 -0.294922 -3.07812c-8.69238 -42.3486 -50.833 -76.7207 -94.0645 -76.7236z" />
    <glyph glyph-name="uniF1F9" unicode="&#xf1f9;" 
d="M464 320c8.83203 0 16 -7.16797 16 -16v-320c0 -8.83203 -7.16797 -16 -16 -16h-416c-8.83203 0 -16 7.16797 -16 16v416c0 8.83203 7.16797 16 16 16h224c8.83203 0 16 -7.16797 16 -16v-80h176zM96 352v-32h128v32h-128zM416 32v224h-320v-224h320z" />
    <glyph glyph-name="uniF1B8" unicode="&#xf1b8;" 
d="M144.971 67.3867c-2.58691 -2.58691 -7.65625 -4.68555 -11.3145 -4.68555s-8.72656 2.09863 -11.3125 4.68555l-22.6299 22.626c-2.58594 2.58691 -4.68555 7.65527 -4.68555 11.3135s2.09961 8.72656 4.68555 11.3135l175.362 175.36h-35.0801
c-8.83008 0.000976562 -15.9961 7.16699 -15.9961 15.9971v0.00292969v32v0.00292969c0 8.83008 7.16602 15.9961 15.9961 15.9971h144.002l0.00195312 -144c0 -8.83203 -7.16797 -16 -16 -16h-32.002c-8.83105 0.000976562 -15.999 7.16895 -16 16v34.4141z" />
    <glyph glyph-name="uniF206" unicode="&#xf206;" 
d="M256.359 4.96875l-183.375 164.906c-22.3213 19.3438 -40.4375 59.0166 -40.4375 88.5537c0 29.5303 18.1094 69.1963 40.4219 88.54c22.6201 20.1221 65.5488 36.4531 95.8242 36.4531c26.9375 0 66.168 -13.2793 87.5674 -29.6406
c21.2793 16.8369 60.5723 30.501 87.707 30.501c29.4717 0 71.3369 -15.8135 93.4492 -35.2979l2.25 -2.01562c22.3135 -19.3467 40.4219 -59.0156 40.4219 -88.5469c0 -29.5322 -18.1084 -69.2012 -40.4219 -88.5469z" />
    <glyph glyph-name="uniF1FC" unicode="&#xf1fc;" 
d="M256 416c123.504 -0.144531 223.855 -100.496 224 -224c0 -123.648 -100.352 -224 -224 -224s-224 100.352 -224 224s100.352 224 224 224zM256 32c88.2158 0.103516 159.896 71.7842 160 160c0 88.3203 -71.6797 160 -160 160s-160 -71.6797 -160 -160
s71.6797 -160 160 -160zM160 256c0 17.6729 14.3271 32 32 32s32 -14.3271 32 -32s-14.3271 -32 -32 -32s-32 14.3271 -32 32zM288 256c0 17.6729 14.3271 32 32 32s32 -14.3271 32 -32s-14.3271 -32 -32 -32s-32 14.3271 -32 32zM255.998 192
c1.86426 0.142578 4.89453 0.258789 6.76367 0.258789c43.0029 0 82.3682 -34.6143 87.8701 -77.2627c0.120117 -0.725586 0.216797 -1.91211 0.216797 -2.64844c0 -8.89355 -7.21777 -16.2168 -16.1104 -16.3477h-157.479
c-8.89258 0.130859 -16.1094 7.4541 -16.1094 16.3477c0 0.735352 0.0966797 1.92188 0.21582 2.64746c5.5 42.6494 44.8643 77.2637 87.8672 77.2637c1.86914 0 4.90039 -0.116211 6.76465 -0.258789z" />
    <glyph glyph-name="uniF233" unicode="&#xf233;" 
d="M400 32h-288c-8.83203 0 -16 7.16797 -16 16v288c0 8.83203 7.16797 16 16 16h288c8.83203 0 16 -7.16797 16 -16v-288c0 -8.83203 -7.16797 -16 -16 -16zM160 96h192v192h-192v-192z" />
    <glyph glyph-name="uniF1F3" unicode="&#xf1f3;" 
d="M464 416c8.83203 0 16 -7.16797 16 -16v-416c0 -8.83203 -7.16797 -16 -16 -16h-416c-8.83203 0 -16 7.16797 -16 16v416c0 8.83203 7.16797 16 16 16h416zM416 32v320h-320v-320h96v96h-32v64h32v32c0.0576172 52.9346 43.0654 95.9424 96 96h32v-64h-32
c-17.6465 -0.0175781 -31.9824 -14.3535 -32 -32v-32h64v-64h-64v-96h160z" />
    <glyph glyph-name="uniF1E7" unicode="&#xf1e7;" 
d="M256 -32c-123.648 0 -224 100.352 -224 224s100.352 224 224 224s224 -100.352 224 -224c-0.149414 -123.498 -100.502 -223.851 -224 -224zM256 352c-88.3203 0 -160 -71.6797 -160 -160s71.6797 -160 160 -160s160 71.6797 160 160
c-0.103516 88.2158 -71.7842 159.896 -160 160zM218.332 239.787l128.176 42.7246l-42.7266 -128.174c-1.39648 -4.18945 -5.92969 -8.72266 -10.1191 -10.1191l-128.176 -42.7246l42.7266 128.174c1.39648 4.18945 5.93066 8.72266 10.1191 10.1191zM256 176
c8.83203 0 16 7.16797 16 16s-7.16797 16 -16 16s-16 -7.16797 -16 -16s7.16797 -16 16 -16z" />
    <glyph glyph-name="uniF1E2" unicode="&#xf1e2;" 
d="M409.113 329.758c38.6797 -13.1201 70.4375 -56.916 70.8867 -97.7578c-0.44043 -39.4258 -30.7783 -82.6123 -67.7188 -96.3984l-56.3984 56.3984h16.4805c0.480469 -0.0195312 1.26172 -0.0361328 1.74219 -0.0361328c22.123 0 40.8916 17.9365 41.8945 40.0361
c-1.00293 22.0996 -19.7715 40.0361 -41.8945 40.0361c-0.480469 0 -1.26172 -0.0166016 -1.74219 -0.0361328c-4.20508 -0.03125 -10.8467 -1.16309 -14.8242 -2.52832c0.03125 0.860352 0.279297 1.66406 0.279297 2.52832
c-2.00488 44.2002 -39.541 80.0723 -83.7861 80.0723c-0.962891 0 -2.52539 -0.0322266 -3.4873 -0.0722656c-0.649414 0.0175781 -1.7041 0.0322266 -2.35449 0.0322266c-35.6162 0 -72.5713 -27.7627 -82.4883 -61.9697c-8.01953 4.75 -22.0918 8.60547 -31.4121 8.60547
h-0.108398c-0.640625 0.0263672 -1.68262 0.0478516 -2.32422 0.0478516c-29.4971 0 -54.5215 -23.915 -55.8574 -53.3818c1.33691 -29.4668 26.3613 -53.3818 55.8594 -53.3818c0.640625 0 1.68164 0.0214844 2.32227 0.0478516h1.93555l-52.9414 -52.9414
c-38.7666 16.5254 -70.6533 64.1367 -71.1758 106.275c1.39746 64.7676 55.1084 117.333 119.892 117.333c0.310547 0 0.813477 -0.00195312 1.12402 -0.00488281c25.3672 29.4453 77.4971 53.3428 116.362 53.3428c0.322266 0 0.844727 -0.00195312 1.16699 -0.00488281
c0.43457 0.00488281 1.1416 0.0078125 1.57617 0.0078125c52.7979 0 114.17 -38.6396 136.992 -86.25zM335.197 164.585l22.6289 -22.6299c2.58691 -2.58691 4.68652 -7.65527 4.68652 -11.3135s-2.09961 -8.72656 -4.68652 -11.3135l-56.5684 -56.5703l-45.25 -45.2539
l-101.818 101.823c-2.58203 2.58594 -4.67773 7.65137 -4.67773 11.3057c0 3.66211 2.10254 8.7334 4.69336 11.3213l22.6582 22.6289c2.59668 2.58594 7.67773 4.68555 11.3428 4.68555s8.74609 -2.09961 11.3428 -4.68555l24.4512 -24.334v87.5273v0.0185547
c0 8.20898 6.66211 14.8711 14.8711 14.8711c0.24707 0 0.647461 -0.0117188 0.894531 -0.0263672h32c0.266602 0.0166016 0.699219 0.0302734 0.96582 0.0302734c8.22363 0 15.0645 -6.67285 15.2686 -14.8936v-87.998l24.6875 24.8066
c2.56738 2.58691 7.61035 4.68652 11.2549 4.68652s8.68652 -2.09961 11.2549 -4.68652z" />
    <glyph glyph-name="uniF217" unicode="&#xf217;" 
d="M160 336c0 16 0 16 16 16h256c16 0 16 0 16 -16v-32c0 -16 0 -16 -16 -16h-256c-16 0 -16 0 -16 16v32zM160 208c0 16 0 16 16 16h256c16 0 16 0 16 -16v-32c0 -16 0 -16 -16 -16h-256c-16 0 -16 0 -16 16v32zM160 80c0 16 0 16 16 16h256c16 0 16 0 16 -16v-32
c0 -16 0 -16 -16 -16h-256c-16 0 -16 0 -16 16v32zM78.0303 384.125h38.5v-95.874h-20.4062v76.9688h-18.0938v18.9053zM100.875 218c1.86621 2.40234 3.47559 6.81934 3.59375 9.85938c0.00195312 0.0888672 0.00488281 0.232422 0.00488281 0.320312
c0 2.46094 -1.40234 5.87988 -3.12988 7.63281c-1.73828 1.77246 -5.16406 3.20996 -7.64551 3.20996c-0.107422 0 -0.280273 -0.00292969 -0.386719 -0.00683594c-6.65625 -0.914062 -14.2725 -6.63965 -17 -12.7812l-16.999 10.0625
c3.13574 5.15918 9.6875 12.166 14.624 15.6406c4.77441 2.94043 13.1992 5.32617 18.8057 5.32617c0.399414 0 1.0459 -0.0126953 1.44434 -0.0292969c0.123047 0.00195312 0.322266 0.00292969 0.444336 0.00292969c6.6416 0 16.1309 -3.50098 21.1807 -7.81543
c5.17188 -4.35547 9.36914 -13.3789 9.36914 -20.1406c0 -0.314453 -0.0117188 -0.825195 -0.0253906 -1.13965c-0.0078125 -4.15918 -1.6875 -10.4658 -3.75 -14.0771c-3.23926 -5.20801 -9.42773 -12.915 -13.8125 -17.2041l-17.125 -17.8125h37.5322v-19.0479h-67.0625
v15.7812l27.9062 28.5625c3.5957 3.52637 8.98633 9.64453 12.0312 13.6562zM65.2803 110.062v18.0938h58.2197v-14.6885l-19.4355 -22.1865c13.2139 -1.55176 23.9385 -13.6094 23.9385 -26.915c0 -0.109375 -0.000976562 -0.288086 -0.00292969 -0.398438
c0.0205078 -0.400391 0.0361328 -1.0498 0.0361328 -1.4502c0 -7.37988 -4.56641 -17.2432 -10.1924 -22.0186c-5.88867 -4.70898 -16.7871 -8.53125 -24.3271 -8.53125c-0.436523 0 -1.14453 0.0146484 -1.58105 0.0322266
c-9.78613 0.295898 -24.0938 5.29395 -31.9355 11.1562l8.6875 16.876c5.82129 -4.72461 16.6152 -8.99512 24.0938 -9.53125c0.19043 -0.0078125 0.5 -0.0146484 0.691406 -0.0146484c2.99219 0 7.40039 1.40723 9.83984 3.13965
c2.30273 1.76953 4.1709 5.5625 4.1709 8.46582c0 0.15625 -0.00683594 0.40918 -0.0146484 0.564453c0.00292969 0.0908203 0.00488281 0.237305 0.00488281 0.328125c0 3.20215 -2.14355 7.26953 -4.78516 9.08008c-3.00195 1.93457 -8.33691 3.50586 -11.9082 3.50586
c-0.353516 0 -0.926758 -0.0166016 -1.28027 -0.0371094c-3.59473 -0.216797 -9.26465 -1.37891 -12.6562 -2.59375v15.6543l18.2197 21.4688h-29.7832z" />
    <glyph glyph-name="uniF1CD" unicode="&#xf1cd;" 
d="M224 224h64v-160h-32v128h-32v32zM464 384c8.83203 0 16 -7.16797 16 -16v-384c0 -8.83203 -7.16797 -16 -16 -16h-416c-8.83203 0 -16 7.16797 -16 16v384c0 8.83203 7.16797 16 16 16h48v-48c0 -26.4961 21.5039 -48 48 -48s48 21.5039 48 48v48h128v-48
c0 -26.4961 21.5039 -48 48 -48s48 21.5039 48 48v48h48zM416 224v32h-320v-224h320v192zM128 400c0 16 0 16 16 16v0c16 0 16 0 16 -16v-64c0 -16 0 -16 -16 -16v0c-16 0 -16 0 -16 16v64zM352 400c0 16 0 16 16 16v0c16 0 16 0 16 -16v-64c0 -16 0 -16 -16 -16v0
c-16 0 -16 0 -16 16v64z" />
    <glyph glyph-name="uniF1D3" unicode="&#xf1d3;" 
d="M199.68 128c-11.9346 2.01562 -21.6201 13.4746 -21.6201 25.5781c0 4.72559 2.2832 11.6436 5.09668 15.4404l61.6211 79.6855c3.53418 3.8252 10.6299 6.93066 15.8389 6.93066c5.92676 0 13.6357 -3.83887 17.208 -8.56934l61.6221 -77.2266
c2.82031 -3.86914 5.1084 -10.8955 5.1084 -15.6826c0 -12.1572 -9.69043 -23.875 -21.6309 -26.1562h-123.244z" />
    <glyph glyph-name="uniF1EC" unicode="&#xf1ec;" 
d="M400.34 416c8.64551 -0.0283203 15.6631 -7.06836 15.6631 -15.7139c0 -0.0791016 -0.00195312 -0.207031 -0.00292969 -0.286133v-416c0.000976562 -0.0791016 0.00292969 -0.208984 0.00292969 -0.288086c0 -8.64551 -7.01758 -15.6846 -15.6631 -15.7119h-288
h-0.0498047c-8.83301 0 -16.1309 7.16797 -16.29 16v416c0 8.83203 7.16797 16 16 16h288.34zM352 32v320h-96l-96 -96v-224h192z" />
    <glyph glyph-name="uniF1B6" unicode="&#xf1b6;" 
d="M431.998 256c-8.83105 0.000976562 -15.998 7.16895 -15.998 16v34.4141l-114.744 -114.744l114.744 -114.746v35.0801c0.000976562 8.83008 7.16797 15.9961 15.9971 15.9961h0.00292969h32h0.00292969c8.8291 0 15.9961 -7.16602 15.9971 -15.9961v-144.002
l-144 -0.00195312c-8.83203 0 -16 7.16797 -16 16v32.002c0.000976562 8.83105 7.16895 15.998 16 15.998v0h34.4141l-114.414 114.416l-15.0293 -15.0293c-0.930664 -0.834961 -2.60352 -1.94531 -3.73438 -2.47852l-97.2715 -96.9082h35.0801
c9.02441 -0.517578 16.6211 -8.26953 16.9551 -17.3027v-32c-0.542969 -8.1377 -7.60254 -14.7422 -15.7588 -14.7422c-0.330078 0 -0.866211 0.0195312 -1.19629 0.0449219h-143.045v142.699c-0.015625 0.267578 -0.0283203 0.702148 -0.0283203 0.969727
c0 8.34473 6.75 15.6611 15.0684 16.3311h32.0029c9.02441 -0.517578 16.6221 -8.26953 16.957 -17.3027v-34.4141l98.9756 99.2461c0.295898 0.349609 0.411133 0.785156 0.739258 1.11328l15.0293 15.0293l-15.3574 15.3574
c-0.834961 0.930664 -1.94531 2.60352 -2.47852 3.73438l-96.9082 97.2715v-35.0801c-0.517578 -9.02441 -8.26953 -16.6211 -17.3027 -16.9551h-32c-8.1377 0.542969 -14.7422 7.60254 -14.7422 15.7588c0 0.330078 0.0195312 0.866211 0.0449219 1.19629v143.045h142.697
c0.267578 0.015625 0.703125 0.0292969 0.97168 0.0292969c8.34473 0 15.6611 -6.75098 16.3311 -15.0693v-32.0029c-0.517578 -9.02441 -8.26953 -16.6221 -17.3027 -16.957h-34.4141l99.2471 -98.9756c0.347656 -0.292969 0.78125 -0.408203 1.10938 -0.736328
l15.3604 -15.3604l115.076 115.072h-35.0801c-8.83008 0.000976562 -15.9961 7.16797 -15.9961 15.9971v0.00292969v32v0.00292969c0 8.8291 7.16602 15.9961 15.9961 15.9971h144.004v-144c0 -8.83203 -7.16797 -16 -16 -16h-32.002z" />
    <glyph glyph-name="uniF23D" unicode="&#xf23d;" 
d="M288.218 239.891l-0.217773 32.002v0.109375c0 8.77148 7.11816 15.9395 15.8887 16l24.1328 0.306641l-4.61914 4.61914c-15.5586 15.501 -46.0107 28.0811 -67.9727 28.0811c-32.7676 0 -71.3115 -23.7568 -86.0352 -53.0303
c-4.57422 -11.7334 -9.20117 -31.4355 -10.3281 -43.9785h-62.8291c1.89355 41.042 27.8867 97.0156 58.0225 124.941c24.5947 19.0312 69.7959 34.4775 100.894 34.4775c38.6113 0 91.7236 -22.5342 118.555 -50.2988l9.94727 -9.94727l0.344727 44.9385
c0.0605469 8.77051 7.22852 15.8887 16 15.8887h0.109375l32 -0.21875c8.77148 -0.0595703 15.8906 -7.22754 15.8906 -16v-0.111328v-143.67h-143.67h-0.110352c-8.77246 0 -15.9404 7.11914 -16.002 15.8906zM212.773 143.639l0.21875 -32.2373v-0.125977
c0 -8.77148 -7.11816 -15.9854 -15.8887 -16.1016l-24.1328 -0.365234l4.61914 -4.64844c15.5488 -15.3877 45.9229 -27.877 67.7988 -27.877c32.8818 0 71.5039 23.8701 86.209 53.2822c4.58691 11.8604 9.21387 31.7666 10.3281 44.4346h62.8281
c-1.87793 -41.1543 -27.8711 -97.3389 -58.0215 -125.412c-24.6152 -19.0918 -69.875 -34.5859 -101.025 -34.5859c-38.5518 0 -91.6064 22.4785 -118.424 50.1738l-9.94727 9.83008l-0.34375 -45c-0.0585938 -8.78711 -7.2373 -15.918 -16.0244 -15.918h-0.0849609
l-26.4961 0.204102c-8.83789 0.0595703 -10.3867 7.25879 -10.3867 16.0957v144.612h132.662c8.84863 -0.181641 16.0664 -7.51074 16.1113 -16.3613z" />
    <glyph glyph-name="uniF213" unicode="&#xf213;" 
d="M320 352h-96l-64 -128h32l-32 -96l160 128h-64zM320 416h89.6885v0c8.83203 0 16 -7.16797 16 -16c0 -2.67383 -1.20312 -6.65039 -2.68652 -8.875l-47.418 -71.125h81.2539h0.000976562c8.83203 0 16 -7.16797 16 -16c0 -4.24512 -2.69141 -9.84375 -6.00684 -12.4951
l-106.852 -85.4814l-160 -128l-126.921 -101.536c-2.41992 -1.93555 -6.89746 -3.50684 -9.99512 -3.50684c-8.83203 0 -16 7.16797 -16 16c0 1.43359 0.367188 3.7002 0.820312 5.06055l51.3984 154.197l3.9209 11.7617h-23.3926
c-8.83105 0.000976562 -15.999 7.16895 -15.999 16c0 2.87598 1.37402 7.0957 3.06738 9.41992l113.144 221.735c2.44141 4.88281 8.85254 8.84473 14.3105 8.84473h125.666z" />
    <glyph glyph-name="uniF1C1" unicode="&#xf1c1;" 
d="M256 416c123.508 -0.139648 223.86 -100.492 224 -224c0 -123.648 -100.352 -224 -224 -224s-224 100.352 -224 224s100.352 224 224 224zM256 32c88.2158 0.103516 159.896 71.7842 160 160c0 88.3203 -71.6797 160 -160 160s-160 -71.6797 -160 -160
s71.6797 -160 160 -160zM214.9 278.354c10.8516 5.23633 29.4365 9.48633 41.4854 9.48633c52.6895 0 95.4521 -42.7617 95.4521 -95.4512c0 -12.0488 -4.25 -30.6338 -9.48633 -41.4844zM188.117 124.119c-15.4023 15.4629 -27.9023 45.7246 -27.9023 67.5488
c0 12.0283 4.22559 30.5889 9.43164 41.4316l127.449 -127.451c-10.8418 -5.20605 -29.4033 -9.43164 -41.4307 -9.43164c-21.8242 0 -52.0859 12.5 -67.5479 27.9023z" />
    <glyph glyph-name="uniF1DB" unicode="&#xf1db;" 
d="M435.473 253.244l-168.137 -168.092l-169.125 169.123c-2.58691 2.58691 -4.68652 7.65527 -4.68652 11.3135c0 3.65918 2.09961 8.72754 4.68652 11.3145l17.248 17.248c2.58594 2.58691 7.65527 4.68555 11.3135 4.68555s8.72656 -2.09863 11.3135 -4.68555
l129.25 -129.248l128.264 128.22c2.58691 2.58594 7.6543 4.68457 11.3115 4.68457c3.65918 0 8.72754 -2.09961 11.3145 -4.68652l17.248 -17.248c2.58691 -2.58691 4.68652 -7.65527 4.68652 -11.3135c0 -3.65918 -2.10059 -8.72852 -4.6875 -11.3154z" />
    <glyph glyph-name="uniF204" unicode="&#xf204;" 
d="M400 384c8.83203 0 16 -7.16797 16 -16v-352c0 -8.83203 -7.16797 -16 -16 -16h-32c-8.83203 0 -16 7.16797 -16 16v144h-192v-144c0 -8.83203 -7.16797 -16 -16 -16h-32c-8.83203 0 -16 7.16797 -16 16v352c0 8.83203 7.16797 16 16 16h32c8.83203 0 16 -7.16797 16 -16
v-144h192v144c0 8.83203 7.16797 16 16 16h32z" />
    <glyph glyph-name="uniF201" unicode="&#xf201;" 
d="M341.354 287.398l42.666 47.7031c-32.4395 29.0146 -84.499 48.8984 -128.021 48.8984c-105.988 0 -192 -86.0117 -192 -192s86.0117 -192 192 -192s192 86.0117 192 192v32h-192v-64h124.107c-16.1621 -52.6025 -61.7793 -96 -124.107 -96
c-70.6367 0 -128 57.3633 -128 128s57.3633 128 128 128c23.9785 0 67.4814 -16.6162 85.3545 -32.6016z" />
    <glyph glyph-name="uniF20E" unicode="&#xf20e;" 
d="M464 -32h-416c-8.83203 0 -16 7.16797 -16 16v416c0 8.83203 7.16797 16 16 16h416c8.83203 0 16 -7.16797 16 -16v-416c0 -8.83203 -7.16797 -16 -16 -16zM96 32h320v320h-320v-320zM256 64c-70.6562 0 -128 57.3438 -128 128s57.3438 128 128 128
s128 -57.3438 128 -128c-0.0810547 -70.5752 -57.4248 -127.919 -128 -128zM256 256c-35.3281 0 -64 -28.6719 -64 -64s28.6719 -64 64 -64s64 28.6719 64 64c-0.0351562 35.293 -28.707 63.9648 -64 64zM352 304c0 8.83691 7.16309 16 16 16s16 -7.16309 16 -16
s-7.16309 -16 -16 -16s-16 7.16309 -16 16z" />
    <glyph glyph-name="uniF1FF" unicode="&#xf1ff;" 
d="M256 416c123.498 -0.149414 223.851 -100.502 224 -224c0 -123.648 -100.352 -224 -224 -224s-224 100.352 -224 224s100.352 224 224 224zM203.047 41.7129c14.376 -5.36328 38.498 -9.71582 53.8418 -9.71582c30.0664 0 73.4453 15.3379 96.8291 34.2363
l-3.84766 57.7275c-0.295898 4.4375 -3.57227 9.99023 -7.31348 12.3945l-40.5566 38.0547c-4.05566 2.60742 -7.34766 8.6377 -7.34766 13.46c0 6.22363 4.75684 12.9746 10.6191 15.0674l33.4434 18.6016c5.86133 2.09473 10.6182 8.84473 10.6191 15.0693v34.0596
c0 8.83203 -7.16797 16 -16 16h-33.334c-8.83203 0 -16 7.16797 -16 16v46.502c-7.6582 1.46777 -20.2021 2.73535 -28 2.83008c-19.3154 -0.0771484 -49.1816 -6.80273 -66.666 -15.0117v-15.915c0 -4.27246 -2.71973 -9.89258 -6.07031 -12.5439l-19.8613 -15.7256
c-3.34961 -2.65137 -6.06836 -8.27148 -6.06836 -12.5439v-47.1484c0 -3.55762 -2.00098 -8.52539 -4.4668 -11.0898l-20.7441 -21.5732c-2.46582 -2.56445 -4.4668 -7.5332 -4.4668 -11.0908c0 -2.24805 0.87207 -5.67578 1.94727 -7.65039l23.0137 -42.2695
c2.23535 -4.10547 7.8252 -7.81152 12.4766 -8.27148l44.4824 -4.4043c7.96191 -0.788086 14.4238 -7.9209 14.4238 -15.9219v-41.5449c0 -3.6582 -2.09961 -8.72754 -4.68555 -11.3145z" />
    <glyph glyph-name="uniF249" unicode="&#xf249;" 
d="M416 176c0 -8.83203 -7.16797 -16 -16 -16h-288c-8.83203 0 -16 7.16797 -16 16v0c0 8.83203 7.16797 16 16 16h288c8.83203 0 16 -7.16797 16 -16v0zM295.296 128h66.5068c0.873047 -4.88672 1.58203 -12.8818 1.58203 -17.8467
c0 -20.2139 -10.4766 -49.2451 -23.3848 -64.8018c-19.1885 -25.0703 -60.3848 -45.417 -91.9561 -45.417c-1.20605 0 -3.16406 0.0371094 -4.37012 0.0830078c-35.6113 1.375 -89.0361 17.8252 -119.253 36.7197c-4.23047 2.61133 -7.66406 8.7666 -7.66406 13.7383
c0 2.72949 1.24023 6.7793 2.76758 9.04004l17.6006 26.4834c2.59961 3.99414 8.57812 7.23535 13.3438 7.23535c2.31934 0 5.83887 -0.928711 7.85645 -2.07324c38.5332 -22.1211 101.997 -44.833 130.801 -7.02344c5.74609 6.55273 10.4092 18.9443 10.4092 27.6592
c0 3.16113 -0.6875 8.19824 -1.53418 11.2432c-0.344727 1.58789 -1.55664 3.81055 -2.70508 4.95996zM260.373 224h-117.596c-8.57227 14.0938 -15.5293 38.9199 -15.5293 55.415c0 23.8164 13.4414 57.0371 30.002 74.1533
c19.7051 17.208 56.9297 31.1738 83.0898 31.1738c10.3506 0 26.7881 -2.44043 36.6914 -5.44629c24.6787 -6.65137 61.2646 -24.5459 81.666 -39.9434c3.67285 -2.66992 6.65332 -8.52246 6.65332 -13.0625c0 -3.18945 -1.6416 -7.77832 -3.66406 -10.2432
l-20.0361 -24.626c-2.69629 -3.22852 -8.29785 -5.84863 -12.5039 -5.84863c-2.98926 0 -7.36035 1.45312 -9.75488 3.24414c-14.3877 10.7939 -40.1279 23.4756 -57.4541 28.3066c-5.57812 1.7998 -14.8633 3.26074 -20.7256 3.26074
c-11.8682 0 -29.3574 -5.57129 -39.04 -12.4346c-6.33398 -6.69043 -11.4746 -19.5977 -11.4746 -28.8115c0 -7.59766 3.65625 -18.7305 8.16211 -24.8486c13.2402 -15.9502 40.7988 -29.5195 61.5137 -30.2891z" />
    <glyph glyph-name="uniF23B" unicode="&#xf23b;" 
d="M160 128c0 17.6729 14.3271 32 32 32s32 -14.3271 32 -32s-14.3271 -32 -32 -32s-32 14.3271 -32 32zM288 128c0 17.6729 14.3271 32 32 32s32 -14.3271 32 -32s-14.3271 -32 -32 -32s-32 14.3271 -32 32zM384 256c52.9346 -0.0576172 95.9424 -43.0654 96 -96
v-0.00292969c0 -6.70312 -1.38574 -17.4053 -3.09375 -23.8877c1.69629 -6.5459 3.08203 -17.3467 3.09375 -24.1094c0 -80.75 -98.4062 -144 -224 -144s-224 63.25 -224 144c0.00585938 6.61035 1.30762 17.1797 2.90625 23.5938
c-1.59863 6.26953 -2.90039 16.6084 -2.90625 23.0781c0.0576172 52.9346 43.0654 95.9424 96 96h0.0957031c12.0029 0 30.5098 -4.24902 41.3105 -9.48438c14.8633 3.69922 39.3213 7.65234 54.5938 8.82422v149.504c1.45117 8.86426 9.91895 16.0576 18.9014 16.0576
c1.04102 0 2.71582 -0.165039 3.7373 -0.368164l122.549 -23.8867c10.4941 11.417 31.5967 20.6826 47.1035 20.6826c35.3174 0 63.9805 -28.6631 63.9805 -63.9805s-28.6631 -63.9805 -63.9805 -63.9805c-25.7598 0 -53.0527 19.9082 -60.9219 44.4365l-67.3691 12.4922
v-90.916c14.7822 -1.15137 38.4707 -4.94141 52.875 -8.45898c11.1904 5.74414 30.4824 10.4062 43.0615 10.4062h0.0634766zM416 384c-17.6465 -0.0175781 -31.9824 -14.3535 -32 -32c0 -17.6641 14.3359 -32 32 -32s32 14.3359 32 32s-14.3359 32 -32 32zM413.438 124.938
l-4.4375 11.6562l4.625 11.5781c1.2959 3.13574 2.36035 8.43457 2.375 11.8281c0.000976562 0.0751953 0.000976562 0.196289 0.000976562 0.271484c0 17.5146 -14.2148 31.7295 -31.7295 31.7295c-5.96484 0 -14.6396 -2.9541 -19.3652 -6.59473l-13.0625 -9.79688
l-15.5928 4.8125c-21.7109 6.27734 -57.6719 11.3721 -80.2715 11.3721c-22.8984 0 -59.3174 -5.22754 -81.291 -11.6689l-15.251 -4.78125l-12.9688 9.2959c-4.56055 3.30762 -12.835 6.00977 -18.4688 6.03223c-17.6465 -0.0175781 -31.9824 -14.3535 -32 -32
c0.0322266 -3.27637 1.05371 -8.40137 2.28027 -11.4395l4.34375 -11.2969l-4.21777 -11.3418c-1.30078 -3.35449 -2.37891 -8.99609 -2.40625 -12.5938c0 -37.8438 65.7188 -80 160 -80s160 42.1562 160 80c-0.0517578 3.7002 -1.19922 9.49707 -2.5625 12.9375z" />
    <glyph glyph-name="uniF1B1" unicode="&#xf1b1;" 
d="M96 336c0 16 0 16 16 16h288c16 0 16 0 16 -16v-32c0 -16 0 -16 -16 -16h-288c-16 0 -16 0 -16 16v32zM160 240c0 16 0 16 16 16h160c16 0 16 0 16 -16v-32c0 -16 0 -16 -16 -16h-160c-16 0 -16 0 -16 16v32zM128 144c0 16 0 16 16 16h224c16 0 16 0 16 -16v-32
c0 -16 0 -16 -16 -16h-224c-16 0 -16 0 -16 16v32zM192 48c0 16 0 16 16 16h96c16 0 16 0 16 -16v-32c0 -16 0 -16 -16 -16h-96c-16 0 -16 0 -16 16v32z" />
    <glyph glyph-name="uniF234" unicode="&#xf234;" 
d="M262.995 363.479c2.24902 1.53125 6.2832 2.77441 9.00488 2.77441c8.83203 0 16 -7.16797 16 -16v-0.000976562v-316.5v-0.000976562c0 -8.83203 -7.16797 -16 -16 -16c-2.72168 0 -6.75684 1.24414 -9.00684 2.77637l-110.838 75.4727h-20.3672
c-0.493164 -0.00878906 -1.29395 -0.0166016 -1.78711 -0.0166016c-43.5049 0 -86.5752 34.4443 -96.1406 76.8838c-1.04395 5.18555 -1.8916 13.6885 -1.8916 18.9775c0 53.0098 43.0225 96.0869 96.0312 96.1553h24.124zM224 124.5v135l-52.1553 -35.5h-43.8447
c-17.6641 0 -32 -14.3359 -32 -32s14.3359 -32 32 -32h42.749zM319.999 240c0 16 0 16 16 16v0c16 0 16 0 16 -16v-96c0 -16 0 -16 -16 -16v0c-16 0 -16 0 -16 16v96z" />
    <glyph glyph-name="uniF258" unicode="&#xf258;" 
d="M288 288h-160v-160h160v64l96 -32v96l-96 -32v64zM80 352h255.878c8.89941 0 16.1221 -7.22266 16.1221 -16.1221v-23.8779l74.9404 25.7754c1.35938 0.453125 3.62598 0.821289 5.05957 0.821289c8.83203 0 16 -7.16797 16 -16v-229.193v0
c0 -8.83203 -7.16797 -16 -16 -16c-1.43359 0 -3.7002 0.368164 -5.05957 0.821289l-74.9404 25.7754v-24.1426v0c0 -8.85156 -7.18359 -16.0352 -16.0352 -16.0352h-0.0107422l-207.954 0.177734h-48c-8.83203 0 -16 7.16797 -16 16v256c0 8.83203 7.16797 16 16 16z" />
    <glyph glyph-name="uniF24A" unicode="&#xf24a;" 
d="M432 416c8.83203 0 16 -7.16797 16 -16v-416c0 -8.83203 -7.16797 -16 -16 -16h-352c-8.83203 0 -16 7.16797 -16 16v416c0 8.83203 7.16797 16 16 16h352zM224 128h64v64h-64v-64zM288 96h-64v-64h64v64zM288 288h-64v-64h64v64zM192 288h-64v-64h64v64zM192 192h-64
v-64h64v64zM320 192v-64h64v64h-64zM320 224h64v64h-64v-64zM128 96v-64h64v64h-64zM320 32h64v64h-64v-64z" />
    <glyph glyph-name="uniF208" unicode="&#xf208;" 
d="M470.498 257.678c5.24512 -2.33105 9.50195 -8.88086 9.50195 -14.6201v-35.04c0 -8.83203 -7.16797 -16 -16 -16c-1.87402 0 -4.78516 0.618164 -6.49805 1.37891l-41.502 25.4512v-202.848c0 -8.83203 -7.16797 -16 -16 -16h-288c-8.83203 0 -16 7.16797 -16 16
v202.848l-41.502 -25.4521c-1.71289 -0.760742 -4.62402 -1.37891 -6.49805 -1.37891c-8.83203 0 -16 7.16797 -16 16v0v35.04c0 5.74023 4.25684 12.29 9.50195 14.6211l214.498 129.354zM352 64v194.096l-96 58.873l-96 -58.873v-194.096h64v96h64v-96h64z" />
    <glyph glyph-name="uniF243" unicode="&#xf243;" 
d="M464 384c8.83203 0 16 -7.16797 16 -16v-352c0 -8.83203 -7.16797 -16 -16 -16h-416c-8.83203 0 -16 7.16797 -16 16v352c0 8.83203 7.16797 16 16 16h416zM416 64v64h-32v-32h-32v32h-32v-32h-32v32h-192v-32h16c8.83203 0 16 -7.16797 16 -16v-16h288zM416 160v64h-32
v-32h-32v32h-32v-32h-32v32h-192v-32h16c8.83203 0 16 -7.16797 16 -16v-16h288zM416 256v64h-32v-32h-32v32h-32v-32h-32v32h-192v-32h16c8.83203 0 16 -7.16797 16 -16v-16h288z" />
    <glyph glyph-name="uniF1C8" unicode="&#xf1c8;" 
d="M256 288c52.9346 -0.0576172 95.9424 -43.0654 96 -96c0 -52.9922 -43.0078 -96 -96 -96s-96 43.0078 -96 96s43.0078 96 96 96zM256 160c17.6465 0.0175781 31.9824 14.3535 32 32c0 17.6641 -14.3359 32 -32 32s-32 -14.3359 -32 -32s14.3359 -32 32 -32zM256 320
c-17.6641 0 -32 14.3359 -32 32v32c0 17.6641 14.3359 32 32 32s32 -14.3359 32 -32v-32c0 -17.6641 -14.3359 -32 -32 -32zM256 64c17.6641 0 32 -14.3359 32 -32v-32c0 -17.6641 -14.3359 -32 -32 -32s-32 14.3359 -32 32v32c0 17.6641 14.3359 32 32 32zM448 224
c17.6641 0 32 -14.3359 32 -32s-14.3359 -32 -32 -32h-32c-17.6641 0 -32 14.3359 -32 32s14.3359 32 32 32h32zM128 192c0 -17.6641 -14.3359 -32 -32 -32h-32c-17.6641 0 -32 14.3359 -32 32s14.3359 32 32 32h32c17.6641 0 32 -14.3359 32 -32zM120.236 282.51
l-22.6289 22.627c-5.17383 5.17383 -9.37305 15.3115 -9.37305 22.6279c0 17.6641 14.3369 32.001 32.001 32.001c7.31641 0 17.4541 -4.19922 22.6279 -9.37305l22.627 -22.627c5.17383 -5.17383 9.37305 -15.3105 9.37305 -22.6279c0 -17.6641 -14.3359 -32 -32 -32
c-7.31641 0 -17.4531 4.19824 -22.627 9.37207zM391.766 101.49l22.627 -22.6289c5.17383 -5.17383 9.37207 -15.3105 9.37207 -22.627c0 -17.6641 -14.3359 -32 -32 -32c-7.31738 0 -17.4541 4.19922 -22.6279 9.37305l-22.627 22.627
c-5.17383 5.17383 -9.37305 15.3105 -9.37305 22.6279c0 17.6641 14.3369 32.001 32.001 32.001c7.31738 0 17.4541 -4.19922 22.6279 -9.37305zM391.764 282.51c-5.17383 -5.17383 -15.3105 -9.37207 -22.627 -9.37207c-17.6641 0 -32 14.3359 -32 32
c0 7.31738 4.19922 17.4541 9.37305 22.6279l22.627 22.627c5.17383 5.17383 15.3105 9.37305 22.6279 9.37305c17.6641 0 32.001 -14.3369 32.001 -32.001c0 -7.31641 -4.19922 -17.4541 -9.37305 -22.6279zM120.236 101.49
c5.16016 5.09473 15.2324 9.22949 22.4834 9.22949c17.6641 0 32 -14.3359 32 -32c0 -7.25098 -4.13477 -17.3232 -9.22949 -22.4834l-22.627 -22.627c-5.17285 -5.17383 -15.3105 -9.37305 -22.6279 -9.37305c-17.6641 0 -32 14.3359 -32 32
c0 7.31641 4.19922 17.4531 9.37207 22.627z" />
    <glyph glyph-name="uniF25D" unicode="&#xf25d;" 
d="M425.893 32h-339.785c-5.45898 0 -11.8701 3.96191 -14.3105 8.84473l-4.42188 8.84277c-18.5449 37.0889 -33.5957 100.845 -33.5957 142.312c0 41.4668 15.0508 105.223 33.5957 142.312l4.42188 8.84277c2.44043 4.88184 8.85156 8.84473 14.3105 8.84473h339.785
c5.45898 0 11.8701 -3.96191 14.3105 -8.84473l4.42188 -8.84277c18.5449 -37.0889 33.5957 -100.845 33.5957 -142.312c0 -41.4668 -15.0508 -105.223 -33.5957 -142.312l-4.42188 -8.84277c-2.44043 -4.88184 -8.85156 -8.84473 -14.3105 -8.84473zM116.438 96h279.125
c11.3203 25.2871 20.5078 68.2949 20.5078 96s-9.1875 70.7129 -20.5078 96h-279.125c-11.3203 -25.2871 -20.5078 -68.2949 -20.5078 -96s9.1875 -70.7129 20.5078 -96zM224 256l96 -64l-96 -64v128z" />
    <glyph glyph-name="uniF1D0" unicode="&#xf1d0;" 
d="M322.919 256c11.9355 -2.0625 21.6221 -13.5674 21.6221 -25.6797c0 -4.7373 -2.28418 -11.6738 -5.09863 -15.4834l-61.6211 -79.832c-3.5332 -3.81445 -10.6211 -6.91016 -15.8213 -6.91016c-5.93652 0 -13.6543 3.84961 -17.2256 8.5918l-61.6221 77.3096
c-2.82129 3.88379 -5.11035 10.9316 -5.11035 15.7314c0 12.168 9.69141 23.9375 21.6338 26.2725h123.243z" />
    <glyph glyph-name="uniF1DC" unicode="&#xf1dc;" 
d="M328.093 23.3633l-168.093 168.137l169.124 169.124c2.58691 2.58691 7.65527 4.68555 11.3135 4.68555s8.72656 -2.09863 11.3135 -4.68555l17.248 -17.248c2.58691 -2.58691 4.68652 -7.65527 4.68652 -11.3145c0 -3.6582 -2.09961 -8.72656 -4.68652 -11.3135
l-129.248 -129.248l128.222 -128.264c2.58594 -2.58691 4.68359 -7.6543 4.68359 -11.3115c0 -3.6582 -2.09863 -8.72656 -4.68555 -11.3125l-17.248 -17.248c-2.58691 -2.58789 -7.65625 -4.68848 -11.3154 -4.68848c-3.6582 0 -8.72754 2.10059 -11.3145 4.6875z" />
    <glyph glyph-name="uniF1FB" unicode="&#xf1fb;" 
d="M436.422 23.1562c0.932617 -1.86523 1.68945 -5.07129 1.68945 -7.15625c0 -8.83203 -7.16797 -16 -15.999 -16h-28.2246v-0c-5.45898 0 -11.8691 3.96289 -14.3096 8.8457l-43.5781 87.1543h-160l-43.5771 -87.1543
c-2.44043 -4.88281 -8.85156 -8.8457 -14.3096 -8.8457h-0.000976562h-28.2246h-0.000976562c-8.83203 0 -16 7.16797 -16 16c0 2.08496 0.756836 5.29102 1.68945 7.15625l166.112 352c2.44141 4.88184 8.85254 8.84375 14.3105 8.84375s11.8691 -3.96191 14.3105 -8.84375
zM208 160h96l-48 119.155z" />
    <glyph glyph-name="uniF223" unicode="&#xf223;" 
d="M325.908 349.312c9.5625 9.58594 28.3115 17.3652 41.8506 17.3652c32.6309 0 59.1133 -26.4824 59.1133 -59.1133s-26.4824 -59.1133 -59.1133 -59.1133c-2.58691 0 -6.76074 0.331055 -9.31543 0.738281l-19.0566 -19.0576
c3.8877 -9.30371 7.04297 -25.0391 7.04297 -35.123c0 -26.7197 -17.9717 -60.541 -40.1152 -75.4951l6.62402 -25.1768c7.42871 -2.33789 17.959 -8.6748 23.5029 -14.1436c9.59277 -9.55957 17.3789 -28.3096 17.3789 -41.8525
c0 -32.6162 -26.4707 -59.0859 -59.0859 -59.0859s-59.0859 26.4697 -59.0859 59.0859c0 12.6172 6.8916 30.4307 15.3828 39.7637l-7.04004 26.7646c-6.81348 0.755859 -17.5039 3.44531 -23.8633 6.00391l-19.9551 -19.9541
c0.776367 -3.50488 1.40723 -9.26465 1.40723 -12.8555c0 -32.8115 -26.6309 -59.4424 -59.4424 -59.4424s-59.4414 26.6309 -59.4414 59.4424s26.6299 59.4414 59.4414 59.4414c3.55566 0 9.25977 -0.617188 12.7324 -1.37891l18.8516 18.8506
c-3.37305 6.80566 -7.08301 18.416 -8.28125 25.917l-23.3389 6.1377c-9.3584 -8.54492 -27.2393 -15.4805 -39.9121 -15.4805c-32.6719 0 -59.1885 26.5166 -59.1885 59.1895c0 32.6719 26.5166 59.1885 59.1885 59.1885c13.6025 0 32.4189 -7.83398 42.0029 -17.4863
c5.46875 -5.54395 11.8057 -16.0742 14.1436 -23.5029l19.998 -5.25879c14.5713 23.416 48.7793 42.4209 76.3584 42.4209c11.8145 0 29.9629 -4.31934 40.5107 -9.64062l15.668 15.668c-1.16016 4.22949 -2.10254 11.2227 -2.10254 15.6084
c0 13.4248 7.67871 32.0508 17.1396 41.5752zM83.1143 211.364c4.39551 -4.39648 13.0078 -7.96387 19.2246 -7.96387c6.21582 0 14.8281 3.56738 19.2236 7.96387c4.39648 4.39551 7.96484 13.0088 7.96484 19.2256c0 15.0078 -12.1807 27.1885 -27.1885 27.1885
c-15.0088 0 -27.1885 -12.1807 -27.1885 -27.1885c0 -6.2168 3.56738 -14.8301 7.96387 -19.2256zM161.616 59.168c4.39551 4.39551 7.96289 13.0088 7.96289 19.2246s-3.56738 14.8291 -7.96289 19.2246s-13.0078 7.96289 -19.2246 7.96289
c-15.0068 0 -27.1875 -12.1797 -27.1875 -27.1875s12.1807 -27.1875 27.1875 -27.1875c6.2168 0 14.8291 3.56738 19.2246 7.96289zM313.814 19.1152c4.39551 4.39551 7.96289 13.0078 7.96289 19.2246s-3.56738 14.8291 -7.96289 19.2246
c-4.39648 4.39648 -13.0098 7.96387 -19.2266 7.96387c-15.0078 0 -27.1885 -12.1807 -27.1885 -27.1885s12.1807 -27.1885 27.1885 -27.1885c6.2168 0 14.8301 3.56836 19.2266 7.96387zM274.466 175.712c4.39648 4.39551 7.96484 13.0088 7.96484 19.2256
c0 6.21582 -3.56836 14.8291 -7.96484 19.2246c-4.39551 4.39551 -13.0078 7.96387 -19.2246 7.96387c-15.0078 0 -27.1885 -12.1807 -27.1885 -27.1885c0 -15.0088 12.1807 -27.1885 27.1885 -27.1885c6.2168 0 14.8291 3.56738 19.2246 7.96289zM386.986 288.231
v0.00195312c4.39453 4.39551 7.96191 13.0078 7.96191 19.2236s-3.56738 14.8281 -7.96191 19.2236c-4.39648 4.39648 -13.0098 7.96387 -19.2266 7.96387c-15.0078 0 -27.1885 -12.1807 -27.1885 -27.1885s12.1807 -27.1885 27.1885 -27.1885
c6.2168 0 14.8301 3.56836 19.2266 7.96387z" />
    <glyph glyph-name="uniF1E0" unicode="&#xf1e0;" 
d="M256 -32c-123.648 0 -224 100.352 -224 224s100.352 224 224 224s224 -100.352 224 -224c-0.149414 -123.498 -100.502 -223.851 -224 -224zM256 352c-88.3203 0 -160 -71.6797 -160 -160s71.6797 -160 160 -160s160 71.6797 160 160
c-0.103516 88.2158 -71.7842 159.896 -160 160zM360.707 224h0.000976562c17.6641 0 32 -14.3359 32 -32c0 -17.6631 -14.3359 -31.999 -31.999 -32h-103.766c-7.26953 0.147461 -17.3213 4.45996 -22.4375 9.62695l-0.189453 0.112305l-67.8848 67.8584
c-5.14453 5.16113 -9.31934 15.2656 -9.31934 22.5527c0 17.6357 14.3125 31.9482 31.9473 31.9482c7.32227 0 17.459 -4.20898 22.6279 -9.39453l58.5078 -58.7041h90.5117z" />
    <glyph glyph-name="uniF235" unicode="&#xf235;" 
d="M262.995 363.479c2.24902 1.53125 6.2832 2.77441 9.00488 2.77441c8.83203 0 16 -7.16797 16 -16v-0.000976562v-316.5v-0.000976562c0 -8.83203 -7.16797 -16 -16 -16c-2.72168 0 -6.75684 1.24414 -9.00684 2.77637l-110.838 75.4727h-20.3672
c-0.493164 -0.00878906 -1.29395 -0.0166016 -1.78711 -0.0166016c-43.5049 0 -86.5752 34.4443 -96.1406 76.8838c-1.04395 5.18555 -1.8916 13.6885 -1.8916 18.9775c0 53.0098 43.0225 96.0869 96.0312 96.1553h24.124zM224 124.5v135l-52.1553 -35.5h-43.8447
c-17.6641 0 -32 -14.3359 -32 -32s14.3359 -32 32 -32h42.749z" />
    <glyph glyph-name="uniF1DF" unicode="&#xf1df;" 
d="M336 160c8.83203 0 16 -7.16797 16 -16s-7.16797 -16 -16 -16h-160c-8.83203 0 -16 7.16797 -16 16s7.16797 16 16 16h160zM336 96c8.83203 0 16 -7.16797 16 -16s-7.16797 -16 -16 -16h-160c-8.83203 0 -16 7.16797 -16 16s7.16797 16 16 16h160zM336 224
c8.83203 0 16 -7.16797 16 -16s-7.16797 -16 -16 -16h-160c-8.83203 0 -16 7.16797 -16 16s7.16797 16 16 16h160zM432 352c8.83203 0 16 -7.16797 16 -16v-352c0 -8.83203 -7.16797 -16 -16 -16h-352c-8.83203 0 -16 7.16797 -16 16v352c0 8.83203 7.16797 16 16 16h48v16
c0 8.83203 7.16797 16 16 16h48c0 17.6641 14.3359 32 32 32h64c17.6641 0 32 -14.3359 32 -32h48c8.83203 0 16 -7.16797 16 -16v-16h48zM240 384c-8.83203 0 -16 -7.16797 -16 -16s7.16797 -16 16 -16h32c8.83203 0 16 7.16797 16 16s-7.16797 16 -16 16h-32zM384 224v64
h-32v-16.0039v-0.000976562c0 -8.8291 -7.16504 -15.9941 -15.9941 -15.9951h-160.012c-8.8291 0 -15.9941 7.16602 -15.9941 15.9951v0.000976562v16.0039h-32v-256h256v192z" />
    <glyph glyph-name="uniF1D7" unicode="&#xf1d7;" 
d="M224.312 -32c-106.02 0.136719 -192.064 86.293 -192.064 192.312s86.0449 192.176 192.064 192.312h32v-160.312h160.312v-32c-0.126953 -106.029 -86.2832 -192.186 -192.312 -192.312zM192.312 284.594c-53.1641 -13.6963 -96.3125 -69.3682 -96.3125 -124.269
c0 -70.835 57.4902 -128.325 128.326 -128.325c54.8994 0 110.572 43.1475 124.268 96.3125h-156.281v156.281zM288 416c105.984 0 192 -86.0156 192 -192h-192v192z" />
    <glyph glyph-name="uniF20D" unicode="&#xf20d;" 
d="M256 -32c-123.504 0.144531 -223.855 100.496 -224 224c0 123.648 100.352 224 224 224s224 -100.352 224 -224s-100.352 -224 -224 -224zM256 352c-88.2168 -0.103516 -159.896 -71.7832 -160 -160c0 -88.3203 71.6797 -160 160 -160s160 71.6797 160 160
s-71.6797 160 -160 160zM224 208c0 16 0 16 16 16h32c16 0 16 0 16 -16v-128c0 -16 0 -16 -16 -16h-32c-16 0 -16 0 -16 16v128zM224 288c0 17.6729 14.3271 32 32 32s32 -14.3271 32 -32s-14.3271 -32 -32 -32s-32 14.3271 -32 32z" />
    <glyph glyph-name="uniF22C" unicode="&#xf22c;" 
d="M59.9453 179.877c-3.21973 2.69824 -5.83203 8.29688 -5.83203 12.498c0 5.93652 4.42969 12.6523 9.88672 14.9902l192.04 122.75c2.63672 1.29785 7.16113 2.35059 10.1006 2.35059c9.32031 0 19.1133 -7.22852 21.8594 -16.1357v-66.2754l135.877 80.0605
c2.0752 1.22266 5.71387 2.21582 8.12305 2.21582c8.83203 0 16 -7.16797 16 -16v-0.000976562v-248.33c0 -8.83203 -7.16797 -16 -16 -16c-2.45605 0 -6.15625 1.0293 -8.25977 2.29688l-135.74 81.8242v-68.1211c-2.73828 -8.90625 -12.5215 -16.1348 -21.8398 -16.1348
c-2.98926 0 -7.58398 1.08984 -10.2559 2.43164zM384 232.33l-66.5781 -39.2188l66.5781 -40.125v79.3438zM224 232.33l-66.5781 -39.2188l66.5781 -40.125v79.3438z" />
    <glyph glyph-name="uniF1C4" unicode="&#xf1c4;" 
d="M350.135 192c17.1484 -16.6494 32.2334 -49.5254 33.6709 -73.3838c0.0136719 -0.664062 0.0244141 -1.74316 0.0244141 -2.4082c0 -64.1553 -52.0684 -116.224 -116.224 -116.224c-0.53125 0 -1.39355 0.00683594 -1.9248 0.015625h-153.682
c-8.83203 0 -16 7.16797 -16 16v352c0 8.83203 7.16797 16 16 16h153.682c0.53125 0.00878906 1.39355 0.015625 1.9248 0.015625c64.1553 0 116.224 -52.0684 116.224 -116.224c0 -0.665039 -0.0107422 -1.74414 -0.0244141 -2.4082
c-1.4375 -23.8584 -16.5225 -56.7344 -33.6709 -73.3838zM160 320v-96h112c26.4961 0 48 21.5039 48 48s-21.5039 48 -48 48h-112zM272 64c26.4961 0 48 21.5039 48 48s-21.5039 48 -48 48h-112v-96h112z" />
    <glyph glyph-name="uniF1D4" unicode="&#xf1d4;" 
d="M463.984 352c8.83203 0 16 -7.16797 16 -16c0 -1.7002 -0.512695 -4.3623 -1.14453 -5.94141l-69.1445 -224c-2.2207 -5.55176 -8.87598 -10.0576 -14.8555 -10.0586h-218.84c-8.83203 0 -16 -7.16797 -16 -16s7.16797 -16 16 -16h192c8.83203 0 16 -7.16797 16 -16v-48
c0 -17.6641 -14.3359 -32 -32 -32s-32 14.3359 -32 32h-96c0 -17.6641 -14.3359 -32 -32 -32s-32 14.3359 -32 32v2.78418c-30.9766 6.61719 -59.459 37.4766 -63.5762 68.8838c-0.234375 2.26465 -0.425781 5.95117 -0.425781 8.22852
c0 22.0635 14.3369 50.7002 32.002 63.9199v208.184h-48c-8.83203 0 -16 7.16797 -16 16v32c0 8.83203 7.16797 16 16 16h96c8.83203 0 16 -7.16797 16 -16v-48h271.984zM362.328 160l30.7559 128h-201.084v-128h170.328z" />
    <glyph glyph-name="uniF22E" unicode="&#xf22e;" 
d="M352 350.252v-152.967l-149.463 90.7148h5.39453l114.969 75.4785c2.56445 1.57812 7.08887 2.85938 10.0996 2.85938c9.00293 0 17.5146 -7.20605 19 -16.0859zM89.668 172.867c-1.01758 5.11426 -1.84277 13.498 -1.84277 18.7129
c0 13.6777 5.37598 34.4922 11.999 46.46l252.176 -153.056v-51.2324c-1.48535 -8.87891 -9.99707 -16.0859 -19 -16.0859c-3.01172 0 -7.53711 1.28223 -10.1016 2.86133l-114.936 75.4727h-20.3672c-0.493164 -0.00878906 -1.29395 -0.0166016 -1.78809 -0.0166016
c-43.5039 0 -86.5742 34.4443 -96.1396 76.8838zM408.299 125.682c4.25 -2.5791 7.69922 -8.70801 7.69922 -13.6787c0 -2.46973 -1.04004 -6.1875 -2.32031 -8.29883h-0.00195312c-2.57812 -4.25293 -8.70508 -7.70312 -13.6777 -7.70312
c-2.4707 0 -6.19043 1.04102 -8.30273 2.32422l-183.357 111.287l-88.2051 53.5352v0l-43.7441 26.5508c-4.25 2.58008 -7.69922 8.70801 -7.69922 13.6787c0 8.83301 7.16797 16.001 16.001 16.001c2.4707 0 6.18945 -1.04004 8.30176 -2.32227z" />
    <glyph glyph-name="uniF21B" unicode="&#xf21b;" 
d="M237.729 160c-7.63867 0.0957031 -13.8398 6.375 -13.8398 14.0146c0 0.485352 0.0498047 1.27051 0.110352 1.75195v32c-0.0634766 0.500977 -0.115234 1.31738 -0.115234 1.82227c0 7.64746 6.20117 14.1045 13.8428 14.4111h119.998l-24.8047 24.6885
c-2.58691 2.56836 -4.68555 7.61035 -4.68555 11.2549c0 3.64551 2.09863 8.6875 4.68555 11.2549l22.6279 22.6279c2.58691 2.58691 7.65527 4.68652 11.3135 4.68652s8.72656 -2.09961 11.3135 -4.68652l56.5693 -56.5684l45.2549 -45.251l-101.82 -101.817
c-2.58594 -2.58203 -7.65137 -4.67871 -11.3066 -4.67871c-3.66211 0 -8.7334 2.10254 -11.3213 4.69336l-22.6299 22.6582c-2.58691 2.59668 -4.68555 7.67871 -4.68555 11.3428c0 3.66504 2.09863 8.74707 4.68555 11.3438l24.334 24.4512h-119.526zM288 256h-64v64h-128
v-256h128v64h64v-112c0 -8.83203 -7.16797 -16 -16 -16h-224c-8.83203 0 -16 7.16797 -16 16v352c0 8.83203 7.16797 16 16 16h224c8.83203 0 16 -7.16797 16 -16v-112z" />
    <glyph glyph-name="uniF221" unicode="&#xf221;" 
d="M368 384c8.83203 0 16 -7.16797 16 -16v-352c0 -8.83203 -7.16797 -16 -16 -16h-224c-8.83203 0 -16 7.16797 -16 16v352c0 8.83203 7.16797 16 16 16h224zM272 32c8.83203 0 16 7.16797 16 16s-7.16797 16 -16 16h-32c-8.83203 0 -16 -7.16797 -16 -16
s7.16797 -16 16 -16h32zM320 96v224h-128v-224h128z" />
    <glyph glyph-name="uniF210" unicode="&#xf210;" 
d="M464 320c8.83203 0 16 -7.16797 16 -16v-131.883c0 -3.6582 -2.09961 -8.72559 -4.68555 -11.3125l-60.1191 -60.1172c-2.58594 -2.58789 -7.65332 -4.6875 -11.3125 -4.6875v0h-78.3926l-5.49023 5.49023l-5.49023 -5.49023h-48.2656
c-21.8613 -17.6709 -62.417 -32.0117 -90.5264 -32.0117c-79.4912 0 -144.006 64.5146 -144.006 144.006s64.5146 144.006 144.006 144.006h0.282227c0.108398 0 0.285156 0.000976562 0.394531 0.000976562c27.9434 0 68.1953 -14.3369 89.8477 -32.001h197.758zM416 224
v32h-176.361c-13.248 17.6641 -41.9199 32 -64 32c-44.1602 0 -80 -35.8398 -80 -80s35.8398 -80 80 -80c22.0801 0 50.752 14.3359 64 32h48.3613l32 32l32 -32h32l32 32v32zM160 208c0 8.83691 7.16309 16 16 16s16 -7.16309 16 -16s-7.16309 -16 -16 -16
s-16 7.16309 -16 16z" />
    <glyph glyph-name="uniF226" unicode="&#xf226;" 
d="M432 352c8.83203 0 16 -7.16797 16 -16v-155.594l-177 -212.406h-191c-8.83203 0 -16 7.16797 -16 16v352c0 8.83203 7.16797 16 16 16h48v16c0 8.83203 7.16797 16 16 16h48c0 17.6641 14.3359 32 32 32h64c17.6641 0 32 -14.3359 32 -32h48
c8.83203 0 16 -7.16797 16 -16v-16h48zM128 288v-256h96v176c0 8.83203 7.16797 16 16 16h144v64h-256zM347.67 160h-59.6699v-71.6016z" />
    <glyph glyph-name="uniF259" unicode="&#xf259;" 
d="M256 1.8418c-0.116211 -0.000976562 -0.305664 -0.000976562 -0.421875 -0.000976562c-65.3594 0 -118.404 53.0449 -118.404 118.404c0 13.3701 4.26074 34.2002 9.51074 46.4961l94.46 204.122c2.2207 5.55176 8.87598 10.0576 14.8555 10.0576
s12.6348 -4.50586 14.8555 -10.0576l94.46 -204.122c5.25 -12.2959 9.51074 -33.126 9.51074 -46.4961c0 -65.3594 -53.0449 -118.404 -118.404 -118.404c-0.116211 0 -0.305664 0 -0.421875 0.000976562zM256 235.686l-50.75 -94.875
c-2.21191 -5.41211 -4.00684 -14.5498 -4.00684 -20.3965c0 -9.25391 4.25879 -22.9502 9.50684 -30.5723c9.29688 -12.6279 29.5693 -22.876 45.25 -22.876s35.9531 10.248 45.25 22.876c5.24805 7.62207 9.50781 21.3184 9.50781 30.5723
c0 5.84668 -1.7959 14.9844 -4.00781 20.3965z" />
    <glyph glyph-name="uniF242" unicode="&#xf242;" 
d="M174.059 155.313c11.3145 11.3135 11.3145 11.3135 22.6279 0l22.627 -22.6279c11.3145 -11.3135 11.3145 -11.3135 0 -22.627l-137.372 -137.373c-11.3145 -11.3135 -11.3145 -11.3135 -22.6279 0l-22.627 22.6279c-11.3145 11.3135 -11.3145 11.3135 0 22.6279zM304 64
c-97.1523 0 -176 78.8477 -176 176s78.8477 176 176 176s176 -78.8477 176 -176c-0.115234 -97.0371 -78.9629 -175.885 -176 -176zM304 352c-61.8242 0 -112 -50.1758 -112 -112s50.1758 -112 112 -112s112 50.1758 112 112c-0.0751953 61.749 -50.251 111.925 -112 112z
" />
    <glyph glyph-name="uniF20C" unicode="&#xf20c;" 
d="M96 336c0 16 0 16 16 16h288c16 0 16 0 16 -16v-32c0 -16 0 -16 -16 -16h-288c-16 0 -16 0 -16 16v32zM224 240c0 16 0 16 16 16h160c16 0 16 0 16 -16v-32c0 -16 0 -16 -16 -16h-160c-16 0 -16 0 -16 16v32zM224 144c0 16 0 16 16 16h160c16 0 16 0 16 -16v-32
c0 -16 0 -16 -16 -16h-160c-16 0 -16 0 -16 16v32zM96 48c0 16 0 16 16 16h288c16 0 16 0 16 -16v-32c0 -16 0 -16 -16 -16h-288c-16 0 -16 0 -16 16v32zM96 221.84c0.000976562 8.83105 7.16895 15.998 16 15.998c3.19727 0 7.78613 -1.66113 10.2432 -3.70801
l55.0078 -45.8398c3.17773 -2.64844 5.75684 -8.1543 5.75684 -12.291s-2.5791 -9.64355 -5.75684 -12.292l-55.0078 -45.8389c-2.45703 -2.04688 -7.0459 -3.70898 -10.2432 -3.70898c-8.83203 0 -16 7.16797 -16 16v91.6807z" />
    <glyph glyph-name="uniF1DA" unicode="&#xf1da;" 
d="M257.138 64l-124.45 124.437c-2.58789 2.58691 -4.6875 7.65527 -4.6875 11.3135c0 3.65918 2.09961 8.72754 4.6875 11.3145l22.624 22.624c2.58594 2.58691 7.6543 4.68555 11.3125 4.68555s8.72656 -2.09863 11.3135 -4.68555l79.2002 -79.1885l178.181 178.181
c2.58691 2.58691 7.65625 4.68652 11.3145 4.68652s8.72656 -2.09961 11.3135 -4.68652l22.624 -22.624c2.58691 -2.58691 4.68652 -7.65527 4.68652 -11.3135s-2.09961 -8.72656 -4.68652 -11.3135zM400 -32h-352c-8.83203 0 -16 7.16797 -16 16v352
c0 8.83203 7.16797 16 16 16h336l-64 -64h-224v-256h256v64l64 64v-176c0 -8.83203 -7.16797 -16 -16 -16z" />
    <glyph glyph-name="uniF232" unicode="&#xf232;" 
d="M96 128v188.33v0c0 8.83203 7.16797 16 16 16c2.45605 0 6.15625 -1.0293 8.25977 -2.29688l199.877 -125.58c4.27246 -2.5752 7.74023 -8.71484 7.74023 -13.7031c0 -5.04785 -3.52832 -11.2227 -7.87695 -13.7852l-199.877 -122.75
c-2.0752 -1.22266 -5.71387 -2.21582 -8.12305 -2.21582c-8.83203 0 -16 7.16797 -16 16v0.000976562v60zM160 152l66.5781 39.2188l-66.5781 40.125v-79.3438zM352 336c0 16 0 16 16 16h32c16 0 16 0 16 -16v-288c0 -16 0 -16 -16 -16h-32c-16 0 -16 0 -16 16v288z" />
    <glyph glyph-name="uniF245" unicode="&#xf245;" 
d="M246.4 -32.7998l-144 108c-3.5332 2.64941 -6.40039 8.38379 -6.40039 12.7998v312c0 8.83203 7.16797 16 16 16h288c8.83203 0 16 -7.16797 16 -16v-312c0 -4.41602 -2.86719 -10.1504 -6.40039 -12.7998l-144 -108c-2.35449 -1.7666 -6.65527 -3.2002 -9.59961 -3.2002
s-7.24512 1.43359 -9.59961 3.2002zM160 112l96 -72l96 72v240h-192v-240zM256 80l-64 48v192h64v-240z" />
    <glyph glyph-name="uniF1CC" unicode="&#xf1cc;" 
d="M464 384c8.83203 0 16 -7.16797 16 -16v-384c0 -8.83203 -7.16797 -16 -16 -16h-416c-8.83203 0 -16 7.16797 -16 16v384c0 8.83203 7.16797 16 16 16h48v-48c0 -26.4961 21.5039 -48 48 -48s48 21.5039 48 48v48h128v-48c0 -26.4961 21.5039 -48 48 -48
s48 21.5039 48 48v48h48zM416 224v32h-320v-224h320v192zM128 160v64h64v-64h-64zM224 160v64h64v-64h-64zM320 160v64h64v-64h-64zM128 64v64h64v-64h-64zM224 64v64h64v-64h-64zM320 64v64h64v-64h-64zM128 400c0 16 0 16 16 16v0c16 0 16 0 16 -16v-64
c0 -16 0 -16 -16 -16v0c-16 0 -16 0 -16 16v64zM352 400c0 16 0 16 16 16v0c16 0 16 0 16 -16v-64c0 -16 0 -16 -16 -16v0c-16 0 -16 0 -16 16v64z" />
    <glyph glyph-name="uniF1E8" unicode="&#xf1e8;" 
d="M32 0v304c0 8.83203 7.16797 16 16 16h320c8.83203 0 16 -7.16797 16 -16v-192c0 -8.83203 -7.16797 -16 -16 -16h-165.328l-145.072 -108.8c-2.35449 -1.7666 -6.65527 -3.2002 -9.59961 -3.2002c-8.83203 0 -16 7.16797 -16 16zM96 256v-160l85.3281 64h138.672v96
h-224zM464 192h-48v160h-288v48c0 8.83203 7.16797 16 16 16h320c8.83203 0 16 -7.16797 16 -16v-192c0 -8.83203 -7.16797 -16 -16 -16z" />
    <glyph glyph-name="uniF237" unicode="&#xf237;" 
d="M224 336c0 16 0 16 16 16h32c16 0 16 0 16 -16v-288c0 -16 0 -16 -16 -16h-32c-16 0 -16 0 -16 16v288zM96 208c0 16 0 16 16 16h288c16 0 16 0 16 -16v-32c0 -16 0 -16 -16 -16h-288c-16 0 -16 0 -16 16v32z" />
    <glyph glyph-name="uniF218" unicode="&#xf218;" 
d="M160 336c0 16 0 16 16 16h256c16 0 16 0 16 -16v-32c0 -16 0 -16 -16 -16h-256c-16 0 -16 0 -16 16v32zM160 208c0 16 0 16 16 16h256c16 0 16 0 16 -16v-32c0 -16 0 -16 -16 -16h-256c-16 0 -16 0 -16 16v32zM160 80c0 16 0 16 16 16h256c16 0 16 0 16 -16v-32
c0 -16 0 -16 -16 -16h-256c-16 0 -16 0 -16 16v32zM64 320c0 17.6729 14.3271 32 32 32s32 -14.3271 32 -32s-14.3271 -32 -32 -32s-32 14.3271 -32 32zM64 192c0 17.6729 14.3271 32 32 32s32 -14.3271 32 -32s-14.3271 -32 -32 -32s-32 14.3271 -32 32zM64 64
c0 17.6729 14.3271 32 32 32s32 -14.3271 32 -32s-14.3271 -32 -32 -32s-32 14.3271 -32 32z" />
    <glyph glyph-name="uniF1E5" unicode="&#xf1e5;" 
d="M192 192c0 35.3467 28.6533 64 64 64s64 -28.6533 64 -64s-28.6533 -64 -64 -64s-64 28.6533 -64 64zM318.729 -32h-125.457v0c-8.12793 0 -15.2715 6.57422 -15.9453 14.6738l-5.31152 63.8574l-57.9658 -27.3184
c-1.78809 -0.842773 -4.84473 -1.52734 -6.82129 -1.52734c-5.09863 0 -11.3057 3.58398 -13.8555 7.99902l-62.7275 108.627c-1.18359 2.0498 -2.14355 5.63379 -2.14355 8c0 4.62109 3.08105 10.5098 6.87695 13.1445l52.6543 36.5439l-52.6543 36.5439
c-3.7959 2.63477 -6.87695 8.52344 -6.87695 13.1445c0 2.36621 0.959961 5.9502 2.14355 8l62.7285 108.627c2.5498 4.41504 8.75684 7.99902 13.8555 7.99902c1.97754 0 5.0332 -0.68457 6.82129 -1.52734l57.9658 -27.3184l5.3125 63.8574
c0.672852 8.09961 7.81543 14.6729 15.9434 14.6738h125.457v0c8.12793 0 15.2715 -6.57422 15.9453 -14.6738l5.31152 -63.8574l57.9658 27.3184c1.78809 0.842773 4.84473 1.52734 6.82129 1.52734c5.09863 0 11.3057 -3.58398 13.8555 -7.99902l62.7285 -108.627
c1.18359 -2.0498 2.14453 -5.63477 2.14453 -8.00195c0 -4.62109 -3.08105 -10.5098 -6.87695 -13.1445l-52.6562 -36.542l52.6543 -36.5439c3.7959 -2.63477 6.87695 -8.52344 6.87695 -13.1445c0 -2.36719 -0.960938 -5.95215 -2.14453 -8.00098l-62.7285 -108.627
c-2.5498 -4.41602 -8.75684 -7.99902 -13.8555 -7.99902c-1.97656 0 -5.0332 0.683594 -6.82129 1.52637l-57.9658 27.3184l-5.31152 -63.8574c-0.674805 -8.09766 -7.81738 -14.6709 -15.9434 -14.6719zM176.496 264.608l-49.792 23.4561l-15.2256 -32.1289
l48.5215 -31.3789v-65.1133l-48.5215 -31.3789l16.8857 -32.1289l48.9629 23.4561l55.9707 -32.5625l4.15527 -54.8291h37.0938l4.57031 54.8291l56.3867 32.5635l49.792 -23.4561l15.2256 32.1279l-48.5215 31.3789v65.1133l48.5215 31.3789l-16.8857 32.1289
l-48.9629 -23.4561l-55.9707 32.5625l-4.15527 54.8291h-37.0938l-4.57031 -54.8291z" />
    <glyph glyph-name="uniF21F" unicode="&#xf21f;" 
d="M96 336c0 16 0 16 16 16h288c16 0 16 0 16 -16v-32c0 -16 0 -16 -16 -16h-288c-16 0 -16 0 -16 16v32zM96 208c0 16 0 16 16 16h288c16 0 16 0 16 -16v-32c0 -16 0 -16 -16 -16h-288c-16 0 -16 0 -16 16v32zM96 80c0 16 0 16 16 16h288c16 0 16 0 16 -16v-32
c0 -16 0 -16 -16 -16h-288c-16 0 -16 0 -16 16v32z" />
    <glyph glyph-name="uniF256" unicode="&#xf256;" 
d="M325.451 180.766c78.6123 -25.7266 147.572 -113.539 153.928 -196.01c0.0107422 -0.212891 0.0185547 -0.557617 0.0185547 -0.770508c0 -8.82422 -7.16113 -15.9863 -15.9863 -15.9863c-0.0400391 0 -0.106445 0.000976562 -0.147461 0.000976562h-32.0547
c-8.26367 0.145508 -15.3984 6.95703 -15.9258 15.2051c-7.63379 79.9268 -78.9922 144.796 -159.283 144.796s-151.649 -64.8691 -159.283 -144.796c-0.527344 -8.24805 -7.66211 -15.0596 -15.9258 -15.2051h-32.0547
c-0.0410156 0 -0.106445 -0.000976562 -0.147461 -0.000976562c-8.82422 0 -15.9863 7.16211 -15.9863 15.9863c0 0.212891 0.00878906 0.557617 0.0185547 0.770508c6.35547 82.4707 75.3154 170.283 153.928 196.01c-32.3193 20.876 -58.5488 69.0449 -58.5488 107.521
c0 70.6553 57.3438 128 128 128s128 -57.3447 128 -128c0 -38.4756 -26.2295 -86.6445 -58.5488 -107.521zM256 352c-35.2881 -0.0400391 -63.96 -28.7119 -64 -64c0 -35.3281 28.6719 -64 64 -64s64 28.6719 64 64s-28.6719 64 -64 64z" />
    <glyph glyph-name="uniF1F4" unicode="&#xf1f4;" 
d="M160 0c-52.9922 0 -96 43.0078 -96 96s43.0078 96 96 96s96 -43.0078 96 -96c-0.0576172 -52.9346 -43.0654 -95.9424 -96 -96zM160 128c-17.6641 0 -32 -14.3359 -32 -32s14.3359 -32 32 -32s32 14.3359 32 32c-0.0224609 17.6406 -14.3594 31.9775 -32 32z
M222.726 409.937c115.615 -23.0527 228.157 -135.596 251.21 -251.211c3.35645 -17.0342 6.08008 -44.9512 6.08008 -62.3135c0 -23.8135 -5.08203 -61.7881 -11.3428 -84.7637c-1.85547 -6.43066 -8.79199 -11.6484 -15.4844 -11.6484h-0.108398h-33.8877
c-8.53711 0.108398 -15.4658 7.125 -15.4658 15.6631c0 1.44336 0.380859 3.72363 0.849609 5.08887c6.31348 20.3916 11.4385 54.2676 11.4385 75.6143c0 141.118 -114.53 255.648 -255.648 255.648c-21.3467 0 -55.2227 -5.125 -75.6143 -11.4385
c-1.36523 -0.46875 -3.64551 -0.849609 -5.08887 -0.849609c-8.53809 0 -15.5557 6.92871 -15.6631 15.4668v33.8877v0.108398c0 6.69238 5.21777 13.6289 11.6484 15.4844c22.9756 6.26074 60.9502 11.3428 84.7637 11.3428c17.3623 0 45.2783 -2.72363 62.3135 -6.08008z
M198.995 300.379c93.2988 -17.6885 169.019 -109.112 169.019 -204.072c0 -25.2227 -8.59082 -64.2734 -19.1758 -87.167c-2.43457 -5.0459 -8.95703 -9.14062 -14.5596 -9.14062c-0.0390625 0 -0.104492 0.000976562 -0.143555 0.000976562h-36.207
c-8.75879 0.078125 -15.8672 7.25098 -15.8672 16.0098c0 2.56348 1.1123 6.40039 2.4834 8.56543c10.7197 18.4404 19.4209 50.7158 19.4209 72.0449c0 79.126 -64.2188 143.344 -143.344 143.344c-21.3291 0 -53.6055 -8.7002 -72.0449 -19.4199
c-2.16504 -1.37109 -6.00293 -2.48438 -8.56641 -2.48438c-8.75879 0 -15.9316 7.10938 -16.0098 15.8682v36.207c0 0.0390625 -0.000976562 0.104492 -0.000976562 0.143555c0 5.60254 4.09473 12.125 9.14062 14.5596c22.875 10.5957 61.8994 19.1943 87.1094 19.1943
c10.7891 0 28.1475 -1.63672 38.7461 -3.65332z" />
    <glyph glyph-name="uniF23A" unicode="&#xf23a;" 
d="M256 -32c-123.504 0.144531 -223.855 100.496 -224 224c0 123.648 100.352 224 224 224s224 -100.352 224 -224s-100.352 -224 -224 -224zM256 352c-88.2168 -0.103516 -159.896 -71.7832 -160 -160c0 -88.3203 71.6797 -160 160 -160s160 71.6797 160 160
s-71.6797 160 -160 160zM233.413 73.2676c-5.40039 5.28027 -9.7832 15.6953 -9.7832 23.249c0 17.9482 14.5674 32.5156 32.5166 32.5156s32.5156 -14.5674 32.5156 -32.5156c0 -17.9492 -14.5664 -32.5166 -32.5156 -32.5166
c-0.18457 -0.00390625 -0.483398 -0.00683594 -0.667969 -0.00683594c-7.16602 0 -17.0508 4.1543 -22.0654 9.27441zM274.661 143.5h-32.4756c-0.0527344 -0.000976562 -0.137695 -0.000976562 -0.189453 -0.000976562c-8.80176 0 -15.9453 7.14258 -15.9453 15.9443
c0 0.935547 0.160156 2.4375 0.356445 3.35254c5.67969 22.667 27.5605 48.8965 48.8428 58.5479c5.01465 1.38281 9.08496 6.72656 9.08496 11.9287c0 1.0625 -0.261719 2.74609 -0.584961 3.75879c-3.40332 10.4922 -15.1172 19.0078 -26.1475 19.0078
c-0.40332 0 -1.05859 -0.0175781 -1.46191 -0.0390625c-12.4707 -0.0126953 -25.9844 -9.55859 -30.1641 -21.3076c-2.01074 -5.86816 -8.67773 -10.6582 -14.8799 -10.6924h-33.1328c-8.92871 0.0117188 -16.1748 7.26758 -16.1748 16.1963
c0 0.860352 0.133789 2.24316 0.296875 3.08789c8.73242 42.293 50.8691 76.6621 94.0547 76.7158c0.537109 0.0117188 1.41016 0.0205078 1.94824 0.0205078c42.0449 0 81.9893 -33.623 89.1611 -75.0518c0.545898 -3.3418 0.990234 -8.80273 0.990234 -12.1885
c0 -28.2246 -21.2686 -59.6406 -47.4746 -70.124c-3.91602 -1.8877 -8.60742 -6.60547 -10.4727 -10.5322c-2.73633 -4.76855 -9.41992 -8.63867 -14.918 -8.63867c-0.197266 0 -0.516602 0.00585938 -0.713867 0.0146484z" />
    <glyph glyph-name="uniF1C2" unicode="&#xf1c2;" 
d="M460.352 88.2676c1.69141 -2.23633 3.06348 -6.32715 3.06348 -9.12988c0 -8.35742 -6.7832 -15.1406 -15.1396 -15.1406c-0.0761719 0 -0.199219 0.00195312 -0.275391 0.00292969h-384c-0.0751953 -0.000976562 -0.198242 -0.00292969 -0.274414 -0.00292969
c-8.35742 0 -15.1396 6.7832 -15.1396 15.1406c0 2.80371 1.37305 6.89551 3.06445 9.13184l76.3496 110.099v57.6318c0.173828 53.9277 42.584 109.05 94.666 123.04v4.29395c0 18.0322 14.6348 32.667 32.667 32.667s32.667 -14.6348 32.667 -32.667v-3.87793
c52.8271 -13.5986 95.835 -68.9072 96 -123.456v-57.5996zM154.748 128h202.5l-37.248 50.6797v77.3203c0 35.3281 -28.6719 64 -64 64s-64 -28.6719 -64 -64v-76.2236zM256 -32c-35.3281 0 -64 28.6719 -64 64h128c0 -35.3281 -28.6719 -64 -64 -64z" />
    <glyph glyph-name="uniF209" unicode="&#xf209;" 
d="M464 384c8.83203 0 16 -7.16797 16 -16v-352c0 -8.83203 -7.16797 -16 -16 -16h-416c-8.83203 0 -16 7.16797 -16 16v352c0 8.83203 7.16797 16 16 16h416zM141.25 64h165.5l-82.75 82.75zM416 64v128c-70.5859 0.0703125 -127.93 57.4141 -128 128h-192v-210.75
l116.686 116.688c2.58691 2.58691 7.65625 4.68555 11.3145 4.68555s8.72754 -2.09863 11.3145 -4.68555l161.936 -161.938h18.75zM416 256v64h-64c0.0458984 -35.2822 28.7178 -63.9541 64 -64z" />
    <glyph glyph-name="uniF1F2" unicode="&#xf1f2;" 
d="M472.299 61.6816c4.25 -2.5791 7.69824 -8.70801 7.69824 -13.6787c0 -2.46973 -1.03906 -6.1875 -2.31934 -8.29883h-0.00195312c-2.57812 -4.25195 -8.70508 -7.70312 -13.6777 -7.70312c-2.4707 0 -6.19043 1.04102 -8.30273 2.32422l-411.307 287.373
c-4.25 2.58008 -7.69922 8.70801 -7.69922 13.6787c0 8.83301 7.16797 16.001 16.001 16.001c2.4707 0 6.18945 -1.04004 8.30176 -2.32227zM215.34 280.252l-59.3896 41.4951c101.199 58.7881 205.6 27.9541 303.412 -92.8643
c0.25 -0.207031 0.623047 -0.232422 0.853516 -0.462891l19.709 -25.1055c2.57617 -2.5918 4.66699 -7.66016 4.66699 -11.3135c0 -3.6543 -2.09082 -8.72266 -4.66699 -11.3135l-22.4844 -28.5469c-0.196289 -0.109375 -0.524414 -0.267578 -0.731445 -0.354492
c-7.25 -8.8418 -14.541 -17.0293 -21.8496 -24.9062l-52.7324 36.8408c8.36523 8.6875 16.7637 17.9023 25.248 28.2793c-66.2969 81.0918 -128.627 110.361 -192.035 88.252zM256 128c-28.4941 0.0146484 -56.4971 22.6318 -62.5078 50.4844l71.0273 -49.625
c-2.33496 -0.396484 -6.15234 -0.782227 -8.51953 -0.859375zM299.076 104.715l59.7324 -41.7344c-25.9561 -16.5791 -72.0137 -30.459 -102.809 -30.9805c-68.375 0 -135.791 40.6035 -200.709 119.785c-0.207031 0.0869141 -0.535156 0.246094 -0.731445 0.355469
l-22.4824 28.5469c-2.57617 2.59082 -4.66699 7.65918 -4.66699 11.3135c0 3.65332 2.09082 8.72168 4.66699 11.3135l19.709 25.1055c0.230469 0.230469 0.603516 0.255859 0.853516 0.462891c8.63379 10.666 17.3271 20.541 26.0576 29.8057l52.7285 -36.8389
c-8.875 -9.11523 -17.791 -18.8301 -26.8008 -29.8496c67.1387 -82.1211 130.211 -111.002 194.451 -87.2852zM256 256c26.8779 -0.0576172 54.4102 -21.1553 61.4551 -47.0938l-66.6543 46.5703c1.74316 0.142578 3.41797 0.523438 5.19922 0.523438z" />
    <glyph glyph-name="uniF20B" unicode="&#xf20b;" 
d="M464 416c8.83203 0 16 -7.16797 16 -16v-416c0 -8.83203 -7.16797 -16 -16 -16h-416c-8.83203 0 -16 7.16797 -16 16v416c0 8.83203 7.16797 16 16 16h416zM416 352h-320v-224h64v-48c0 -8.83203 7.16797 -16 16 -16h160c8.83203 0 16 7.16797 16 16v48h64v224z" />
    <glyph glyph-name="uniF20A" unicode="&#xf20a;" 
d="M464 416c8.83203 0 16 -7.16797 16 -16v-288c0 -8.83203 -7.16797 -16 -16 -16h-48v256h-288v48c0 8.83203 7.16797 16 16 16h320zM32 304c0 8.83203 7.16797 16 16 16h336v-304c0 -8.83203 -7.16797 -16 -16 -16h-320c-8.83203 0 -16 7.16797 -16 16v288zM141.25 64
h101.5l-50.75 50.75zM320 218.242v37.7578h-37.7578c2.63867 -18.2041 19.5537 -35.1191 37.7578 -37.7578zM218.242 256h-122.242v-146.75l84.6855 84.6875c2.58691 2.58691 7.65625 4.68555 11.3145 4.68555s8.72754 -2.09863 11.3145 -4.68555l116.686 -116.688v76.9922
c-53.0244 3.14648 -98.6113 48.7334 -101.758 101.758z" />
    <glyph glyph-name="uniF21D" unicode="&#xf21d;" 
d="M268.505 -21.5361c-2.62793 -3.37109 -8.23047 -6.10742 -12.5049 -6.10742s-9.87695 2.73633 -12.5049 6.10742c-37.6709 47.9678 -147.495 212.655 -147.495 277.536c0 88.3203 71.6797 160 160 160s160 -71.6797 160 -160
c0 -64.8809 -109.824 -229.568 -147.495 -277.536zM256 352c-52.9346 -0.0576172 -95.9424 -43.0654 -96 -96c0 -34.4062 50.2188 -132.25 96 -192c45.7656 59.7812 96 157.656 96 192c-0.0576172 52.9346 -43.0654 95.9424 -96 96zM224 256c0 17.6729 14.3271 32 32 32
s32 -14.3271 32 -32s-14.3271 -32 -32 -32s-32 14.3271 -32 32z" />
    <glyph glyph-name="uniF241" unicode="&#xf241;" 
d="M231.146 257.792l-44.248 -45.2529l-122.898 123.898v51.9229c-0.0078125 0.180664 -0.0136719 0.474609 -0.0136719 0.655273c0 8.44629 6.85449 15.3008 15.2998 15.3008c3.57812 0 8.50293 -2.08594 10.9922 -4.65723zM408.92 156.526
c39.2715 -10.5303 71.1445 -52.0762 71.1445 -92.7344c0 -52.998 -43.0127 -96.0107 -96.0107 -96.0107c-42.499 0 -84.4844 33.667 -93.7178 75.1504c-1.29297 5.7168 -2.3418 15.1143 -2.3418 20.9766c0 11.0781 3.63281 28.2939 8.10742 38.4277l-42.2578 42.2578
l-39.4619 -39.4629c5.30078 -10.7246 9.60254 -29.1377 9.60254 -41.1006c0 -7.30859 -1.66016 -18.9365 -3.70508 -25.9541c-9.29688 -32.2529 -43.6816 -63.0986 -76.752 -68.8506c-4.21973 -0.683594 -11.1133 -1.23926 -15.3887 -1.23926
c-53.0742 0 -96.1504 43.0752 -96.1504 96.1504c0 4.27539 0.555664 11.1689 1.24023 15.3887c5.75195 33.0703 36.5977 67.4551 68.8516 76.752c7.01758 2.0459 18.6455 3.70508 25.9551 3.70508c11.9629 0 30.376 -4.30176 41.1006 -9.60156l39.4678 39.4629
l-0.0595703 0.0683594l45.2705 45.25l0.107422 -0.0683594l166.644 166.565c2.59863 2.58594 7.68262 4.68359 11.3477 4.68359c8.82227 0 16.0293 -7.16016 16.0869 -15.9824v-51.9229l-148.75 -148.594l40.8242 -40.9805c11.335 6.13086 30.9941 11.1055 43.8809 11.1055
c7.02148 0 18.2061 -1.54199 24.9648 -3.44238zM128 32c17.6523 0.0117188 31.9883 14.3477 32 32c0 17.6641 -14.3359 32 -32 32s-32 -14.3359 -32 -32s14.3359 -32 32 -32zM384 32c17.6523 0.0117188 31.9883 14.3477 32 32c0 17.6641 -14.3359 32 -32 32
s-32 -14.3359 -32 -32s14.3359 -32 32 -32z" />
    <glyph glyph-name="uniF23C" unicode="&#xf23c;" 
d="M122.654 316.941c24.5957 19.0312 69.7959 34.4775 100.895 34.4775c38.6113 0 91.7236 -22.5342 118.555 -50.2988l9.94727 -9.94727l0.34375 44.9395c0.0615234 8.77051 7.22949 15.8877 16 15.8877h0.109375l31.8027 -0.21875
c8.66406 -0.0966797 15.6953 -7.20703 15.6953 -15.8711c0 -0.0664062 -0.000976562 -0.173828 -0.00195312 -0.240234v-143.67h-143.67h-0.109375c-8.77246 0 -15.9404 7.11914 -16.002 15.8906l-0.21875 32.002v0.109375c0 8.77148 7.11816 15.9395 15.8887 16
l24.5273 0.306641l-4.61914 4.61914c-15.5586 15.501 -46.0098 28.0811 -67.9727 28.0811c-32.7666 0 -71.3105 -23.7568 -86.0352 -53.0303c-5.76758 -11.1533 -10.4482 -30.3965 -10.4482 -42.9531c0 -12.5654 4.6875 -31.8213 10.4619 -42.9805
c14.7559 -29.2363 53.3096 -52.9639 86.0586 -52.9639c17.5771 0 43.2998 8.49609 57.4189 18.9658c2.34961 1.92285 6.72168 3.4834 9.75879 3.4834c3.38672 0 8.13281 -1.88965 10.5928 -4.21777l23.4277 -23.4297c2.66016 -2.5791 4.81836 -7.67871 4.81836 -11.3828
c0 -3.98535 -2.43945 -9.34277 -5.44531 -11.959c-24.3135 -19.7021 -69.4453 -35.6924 -100.739 -35.6924c-88.3281 0 -160.014 71.6865 -160.014 160.014c0 41.9824 26.4209 97.5703 58.9746 124.079z" />
    <glyph glyph-name="uniF1E1" unicode="&#xf1e1;" 
d="M270.545 272c-0.648438 0.0175781 -1.70312 0.0322266 -2.35254 0.0322266c-35.6162 0 -72.5713 -27.7627 -82.4883 -61.9707c-8.01953 4.75 -22.0908 8.60547 -31.4111 8.60547h-0.111328c-0.640625 0.0263672 -1.68164 0.0478516 -2.32324 0.0478516
c-29.4971 0 -54.5215 -23.915 -55.8584 -53.3818c1.33691 -29.4658 26.3623 -53.3809 55.8594 -53.3809c0.641602 0 1.68164 0.0214844 2.32227 0.0478516h218.183c0.480469 -0.0195312 1.26074 -0.0361328 1.74219 -0.0361328c22.1221 0 40.8906 17.9365 41.8936 40.0361
c-1.00293 22.0996 -19.7715 40.0361 -41.8936 40.0361c-0.481445 0 -1.26172 -0.0166016 -1.74219 -0.0361328c-4.20605 -0.03125 -10.8467 -1.16406 -14.8252 -2.52832c0.0302734 0.860352 0.279297 1.66211 0.279297 2.52832
c-2.00586 44.2002 -39.542 80.0723 -83.7881 80.0723c-0.961914 0 -2.52344 -0.0322266 -3.48535 -0.0722656zM270.545 336v0c0.43457 0.00488281 1.14062 0.0078125 1.5752 0.0078125c52.7979 0 114.171 -38.6406 136.994 -86.251
c38.6797 -13.1201 70.4365 -56.915 70.8857 -97.7568c-1.06738 -57.415 -48.54 -104.013 -105.966 -104.013c-0.460938 0 -1.20898 0.00585938 -1.66992 0.0126953h-218.183c-0.619141 -0.0117188 -1.62305 -0.0205078 -2.24219 -0.0205078
c-64.7949 0 -118.528 52.5742 -119.939 117.354c1.39648 64.7686 55.1074 117.333 119.891 117.333c0.30957 0 0.814453 -0.00195312 1.12402 -0.00488281c25.3682 29.4453 77.499 53.3438 116.364 53.3438c0.322266 0 0.844727 -0.00195312 1.16602 -0.00488281z" />
    <glyph glyph-name="uniF1F1" unicode="&#xf1f1;" 
d="M256 256v0c35.3281 0 64 -28.6719 64 -64s-28.6719 -64 -64 -64s-64 28.6719 -64 64s28.6719 64 64 64zM479.924 203.314c2.57617 -2.59082 4.66699 -7.66016 4.66699 -11.3135c0 -3.6543 -2.08984 -8.72266 -4.66602 -11.3135l-22.4844 -28.5469
c-0.196289 -0.109375 -0.524414 -0.268555 -0.731445 -0.355469c-64.918 -79.1816 -132.334 -119.785 -200.709 -119.785s-135.791 40.6035 -200.709 119.785c-0.207031 0.0869141 -0.535156 0.246094 -0.731445 0.355469l-22.4834 28.5469
c-2.57617 2.5918 -4.66699 7.66016 -4.66699 11.3135c0 3.6543 2.09082 8.72266 4.66699 11.3135l19.709 25.1055c0.230469 0.231445 0.603516 0.255859 0.853516 0.462891c131.596 162.547 275.127 162.547 406.723 0
c0.25 -0.207031 0.623047 -0.232422 0.853516 -0.462891zM104.625 192c104.188 -127.438 198.562 -127.438 302.75 0c-104.188 127.438 -198.562 127.438 -302.75 0z" />
    <glyph glyph-name="uniF1C6" unicode="&#xf1c6;" 
d="M390.4 -12.7998l-134.4 100.8l-134.4 -100.8c-2.35449 -1.7666 -6.65527 -3.2002 -9.59961 -3.2002c-8.83203 0 -16 7.16797 -16 16v400c0 8.83203 7.16797 16 16 16h288c8.83203 0 16 -7.16797 16 -16v-400c0 -8.83203 -7.16797 -16 -16 -16
c-2.94434 0 -7.24512 1.43359 -9.59961 3.2002zM256 168l96 -72v256h-192v-256z" />
    <glyph glyph-name="uniF1B4" unicode="&#xf1b4;" 
d="M96 336c0 16 0 16 16 16h288c16 0 16 0 16 -16v-32c0 -16 0 -16 -16 -16h-288c-16 0 -16 0 -16 16v32zM224 240c0 16 0 16 16 16h160c16 0 16 0 16 -16v-32c0 -16 0 -16 -16 -16h-160c-16 0 -16 0 -16 16v32zM160 144c0 16 0 16 16 16h224c16 0 16 0 16 -16v-32
c0 -16 0 -16 -16 -16h-224c-16 0 -16 0 -16 16v32zM288 48c0 16 0 16 16 16h96c16 0 16 0 16 -16v-32c0 -16 0 -16 -16 -16h-96c-16 0 -16 0 -16 16v32z" />
    <glyph glyph-name="uniF1CE" unicode="&#xf1ce;" 
d="M256 96c-52.9346 0.0576172 -95.9424 43.0654 -96 96c0 52.9922 43.0078 96 96 96s96 -43.0078 96 -96s-43.0078 -96 -96 -96zM256 224c-17.6465 -0.0175781 -31.9824 -14.3535 -32 -32c0 -17.6641 14.3359 -32 32 -32s32 14.3359 32 32s-14.3359 32 -32 32zM464 384
c8.83203 0 16 -7.16797 16 -16v-352c0 -8.83203 -7.16797 -16 -16 -16h-416c-8.83203 0 -16 7.16797 -16 16v352c0 8.83203 7.16797 16 16 16h272v16c0 8.83203 7.16797 16 16 16h64c8.83203 0 16 -7.16797 16 -16v-16h48zM416 64v256h-320v-256h320z" />
    <glyph glyph-name="uniF20F" unicode="&#xf20f;" 
d="M239.372 0h-31.3662v-0c-8.83203 0 -16 7.16797 -16 16c0 0.875 0.138672 2.28027 0.310547 3.1377l64.6221 352c1.41992 7.09961 8.44922 12.8623 15.6895 12.8623h31.3662v0c8.83203 0 16 -7.16797 16 -16c0 -0.875 -0.138672 -2.28027 -0.310547 -3.1377
l-64.6221 -352c-1.41992 -7.09961 -8.44922 -12.8623 -15.6895 -12.8623z" />
    <glyph glyph-name="uniF21E" unicode="&#xf21e;" 
d="M461.904 224c8.83203 0 16 -7.16797 16 -16v-32c0 -8.83203 -7.16797 -16 -16 -16h-13.9043v-157.797c-2.95996 -8.99316 -13.0459 -16.292 -22.5137 -16.292c-3.30469 0 -8.34766 1.27344 -11.2559 2.84277l-119.6 75.2461h-70.6309v-80
c0 -8.83203 -7.16797 -16 -16 -16h-64c-8.83203 0 -16 7.16797 -16 16v85.9395c-50.5166 14.834 -91.5156 69.6035 -91.5156 122.253c0 68.2119 55.335 125.268 123.516 127.354v0.453125h134.6l119.633 77.4551c10.6211 7.23047 33.7676 1.59766 33.7676 -11.252v-162.203
h13.9043zM384 92.9512v202.5l-69.6797 -39.4512h-90.3203v-128h89.2246z" />
    <glyph glyph-name="uniF253" unicode="&#xf253;" 
d="M448 368.008v-112.008l-0.0957031 0.142578c0.00195312 -0.326172 0.0957031 -0.628906 0.0957031 -0.955078l-0.892578 -86.9844c-3.95312 -43.5381 -32.5342 -103.676 -63.7959 -134.234c-36.2891 -36.4512 -107.485 -66.0342 -158.92 -66.0342
c-5.84277 0 -15.3047 0.446289 -21.1211 0.99707c-46.9609 5.20312 -111.683 37.0371 -144.469 71.0586l-11 10.9961c-2.60352 2.58496 -4.71582 7.65918 -4.71582 11.3271c0 5.8457 4.37109 12.4346 9.75586 14.708c18.4922 7.78711 42.7686 18.0684 47.9062 20.5254
c-55.5137 53.4062 -85.8926 111.547 -68.7676 189.453l10.4902 45.5098c1.52832 6.87695 8.48633 12.458 15.5312 12.458c2.55273 0 6.37402 -1.11035 8.5293 -2.47949c33.5898 -22.3584 90.1494 -55.1348 126.25 -73.1602c6.95703 62.8506 63.9248 113.859 127.159 113.859
c21.5928 0 53.6455 -9.7998 71.5459 -21.876l37.0742 22.3213c0.938477 0.206055 2.47852 0.374023 3.43945 0.374023c8.83105 0 15.999 -7.16797 16 -15.999zM384 215.531v39.6562v0.000976562c0 35.3281 -28.6719 64 -64 64c-35.3271 0 -63.999 -28.6719 -64 -63.999
v-0.242188c0 -21.8623 14.335 -50.0625 31.998 -62.9463c0 0 -32.9883 0.1875 -41.3672 0.244141c-19.9434 0.702148 -51.1689 7.28223 -69.6992 14.6885c-23.127 8.47656 -59.1045 25.5303 -80.3076 38.0654c4.0918 -45.7539 39.6602 -101.601 79.3916 -124.656
l47.5469 -27.7188l-47.6094 -27.6094c-8.95312 -5.1875 -17.8125 -10.0781 -26.5781 -14.6719c19.3652 -10.0977 52.8066 -18.293 74.6465 -18.293c36.8604 0 87.9502 21.1309 114.041 47.168c25.2549 24.3965 45.752 72.6943 45.752 107.808
c0 1.0498 -0.0224609 2.75293 -0.0488281 3.80176zM288 256c0 17.6729 14.3271 32 32 32s32 -14.3271 32 -32s-14.3271 -32 -32 -32s-32 14.3271 -32 32z" />
    <glyph glyph-name="uniF227" unicode="&#xf227;" 
d="M459.98 282.84c2.58691 -2.58691 4.68555 -7.65527 4.68555 -11.3135s-2.09863 -8.72656 -4.68555 -11.3135l-52.1191 -52.1211l-0.00195312 0.00195312l-204.075 -204.075c-2.58691 -2.58691 -7.65527 -4.68652 -11.3135 -4.68652
c-0.0263672 0 -0.0683594 0.000976562 -0.0947266 0.000976562l-112.376 0.666992c-8.83203 0.0527344 -16 7.26367 -16 16.0957v0v113.039c0 3.6582 2.09961 8.72656 4.68652 11.3135l238.784 238.784h0.00195312l16.7441 16.7441
c2.58691 2.58691 7.65527 4.68652 11.3135 4.68652s8.72656 -2.09961 11.3135 -4.68652zM154.508 45.2539l208.098 208.096l-45.2539 45.2539l-208.096 -208.096z" />
    <glyph glyph-name="uniF1DD" unicode="&#xf1dd;" 
d="M205.592 360.622l168.093 -168.136l-169.124 -169.124c-2.58594 -2.58691 -7.65527 -4.68652 -11.3135 -4.68652s-8.72656 2.09961 -11.3135 4.68652l-17.248 17.248c-2.58691 2.58594 -4.68652 7.65527 -4.68652 11.3135s2.09961 8.72656 4.68652 11.3135
l129.248 129.248l-128.221 128.265c-2.58496 2.58691 -4.68359 7.6543 -4.68359 11.3115c0 3.6582 2.09961 8.72656 4.68555 11.3125l17.248 17.248c2.58691 2.58789 7.65625 4.6875 11.3145 4.6875c3.65918 0 8.72754 -2.09961 11.3145 -4.6875z" />
    <glyph glyph-name="uniF1F6" unicode="&#xf1f6;" 
d="M388.051 270.368c32.1973 -30.7861 58.3281 -91.9258 58.3281 -136.473c0 -39.0713 -20.8457 -94.6787 -46.5303 -124.122c-25.7178 -23.3867 -74.8037 -42.3672 -109.565 -42.3672c-3.84375 0 -10.0703 0.265625 -13.8994 0.59375
c-12.3916 0 -25.2744 0.632812 -40.5459 1.99414c-61.7803 5.37305 -122.132 59.0176 -134.713 119.742c-43.7344 224.264 198.217 321.425 200.454 322.933c2.2373 1.50684 6.24219 2.73145 8.94043 2.73145c8.8291 0 15.9951 -7.16602 15.9951 -15.9961
c0 -0.416992 -0.0322266 -1.09375 -0.0712891 -1.50879l-7.26562 -59.5205zM353.754 54.1709v0.000976562c15.7061 19.1602 28.4531 54.8174 28.4531 79.5918c0 29.7734 -17.5273 70.5703 -39.123 91.0654c0.00976562 -0.463867 0.0175781 -1.21875 0.0175781 -1.68262
c0 -20.7246 -12.9678 -48.2549 -28.9453 -61.4531c-70.7129 55.8945 -61.0078 158.307 -61.0078 158.307c-124.127 -83.6562 -124.529 -276.205 -11.6328 -286.259c1.63867 -0.146484 3.59766 -0.251953 5.33203 -0.390625
c-27.041 28.0195 -45.3066 78.4648 -21.7891 158.365c0 0 9.33203 -78.6133 61.332 -94.793c24.2109 -5.69922 45.7041 -30.4268 47.9766 -55.1953c6.03809 2.36328 14.7236 7.9375 19.3867 12.4434z" />
    <glyph glyph-name="uniF1CA" unicode="&#xf1ca;" 
d="M288 160c0 17.6729 14.3271 32 32 32s32 -14.3271 32 -32s-14.3271 -32 -32 -32s-32 14.3271 -32 32zM160 160c0 17.6729 14.3271 32 32 32s32 -14.3271 32 -32s-14.3271 -32 -32 -32s-32 14.3271 -32 32zM432 416c8.83203 0 16 -7.16797 16 -16v-352
c0 -8.83203 -7.16797 -16 -16 -16h-48v-48c0 -8.83203 -7.16797 -16 -16 -16h-32c-8.83203 0 -16 7.16797 -16 16v48h-128v-48c0 -8.83203 -7.16797 -16 -16 -16h-32c-8.83203 0 -16 7.16797 -16 16v48h-48c-8.83203 0 -16 7.16797 -16 16v352c0 8.83203 7.16797 16 16 16
h352zM240 384c-8.83203 0 -16 -7.16797 -16 -16s7.16797 -16 16 -16h32c8.83203 0 16 7.16797 16 16s-7.16797 16 -16 16h-32zM384 96v256h-32v-112c0 -8.83203 -7.16797 -16 -16 -16h-160c-8.83203 0 -16 7.16797 -16 16v112h-32v-256h256z" />
    <glyph glyph-name="uniF25C" unicode="&#xf25c;" 
d="M324.465 352c-0.633789 0.015625 -1.66211 0.0283203 -2.2959 0.0283203c-20.2598 0 -48.5908 -11.3584 -63.2402 -25.3545c-14.9424 -15.1357 -27.0693 -44.6826 -27.0693 -65.9521c0 -11.2939 3.81445 -28.7949 8.51367 -39.0645l-135.321 -136.458
c-4.99609 -5.05566 -9.05176 -14.9277 -9.05176 -22.0361s4.05566 -16.9805 9.05176 -22.0361c4.97949 -5.03809 14.7695 -9.12695 21.8525 -9.12695s16.873 4.08887 21.8525 9.12695l135.027 136.163c10.5742 -5.11328 28.6885 -9.26367 40.4346 -9.26367h0.00683594
h0.180664c21.0527 0 50.1514 12.1504 64.9531 27.1221c14.7441 15.1709 26.7109 44.6543 26.7109 65.8096c0 11.751 -4.0918 29.9033 -9.13477 40.5176l-61.5088 -62.0254l-42.8047 -0.908203l-0.900391 44.9775l60.9404 61.4541
c-10.0742 3.87891 -27.0127 7.02734 -37.8076 7.02734c-0.107422 0 -0.282227 -0.000976562 -0.389648 -0.000976562zM409.745 395.2l46.0625 -47.1875l9.08203 -19.3887c8.35156 -17.7275 15.1299 -48.0205 15.1299 -67.6172
c0 -35.7031 -20.2578 -85.3965 -45.2178 -110.924c-25.2139 -25.4238 -74.7383 -46.0576 -110.545 -46.0576c-5.96582 0 -15.6035 0.668945 -21.5127 1.49316l-108.544 -109.456c-15.3438 -15.4912 -45.4922 -28.0635 -67.2959 -28.0635s-51.9521 12.5723 -67.2959 28.0635
c-15.1914 15.4043 -27.5195 45.4658 -27.5195 67.1006s12.3281 51.6963 27.5195 67.1016l109.603 110.522c-0.685547 5.44336 -1.24219 14.3125 -1.24219 19.7979c0 35.8232 20.3916 85.6201 45.5166 111.155c24.8711 24.4443 73.3594 44.2842 108.233 44.2842
c0.758789 0 1.99023 -0.0107422 2.74902 -0.0244141v0h0.303711c17.5342 0 45.0322 -5.14746 61.3789 -11.4912z" />
    <glyph glyph-name="uniF1EE" unicode="&#xf1ee;" 
d="M432 320c8.83203 0 16 -7.16797 16 -16v-29.25l-9.37598 -9.37598l-54.624 -54.624l-116.685 -116.685c-2.58691 -2.58691 -7.65625 -4.68555 -11.3145 -4.68555s-8.72754 2.09863 -11.3145 4.68555l-171.311 171.311v0l-9.37598 9.37598v29.248
c0 8.83203 7.16797 16 16 16h352zM256 173.25l82.75 82.75h-165.5zM384 64v101.496l64 64v-213.496c0 -8.83203 -7.16797 -16 -16 -16h-352c-8.83203 0 -16 7.16797 -16 16v213.496l64 -64v-101.496h256z" />
    <glyph glyph-name="uniF248" unicode="&#xf248;" 
d="M135 -0.0322266c-26.4639 0.120117 -47.9414 21.6963 -47.9414 48.1602c0 3.87402 0.897461 10.0332 2.00391 13.7471l30.5625 101.766l-63.9365 45.1406c-11.2422 6.80371 -20.3662 22.9922 -20.3662 36.1328c0 3.84961 1.00391 9.93262 2.24121 13.5781
c5.79492 16.3789 24.5977 29.6709 41.9707 29.6709c1.05371 0 2.75977 -0.0732422 3.80957 -0.163086h90.2812l38.3105 92.7266c6.68066 16.3477 26.4209 30.2266 44.0645 30.9805c17.751 -1.13281 37.4922 -15.4668 44.0645 -31.9951l38.3105 -91.7119h90.2812
c1.0498 0.0898438 2.75684 0.163086 3.81055 0.163086c17.374 0 36.1768 -13.292 41.9707 -29.6709c1.24512 -3.7832 2.25488 -10.085 2.25488 -14.0674c0 -13.4404 -9.12988 -30.3174 -20.3799 -37.6709l-63.9365 -44.1113l30.5625 -101.282
c1.09668 -3.68555 1.98633 -9.79785 1.98633 -13.6426c0 -26.4199 -21.4424 -47.8623 -47.8623 -47.8623c-7.80176 0 -19.4482 3.43848 -25.998 7.67578l-95.0645 60.9688l-95.0938 -60.875c-6.52734 -4.2207 -18.1338 -7.65039 -25.9062 -7.65723z" />
    <glyph glyph-name="uniF1CB" unicode="&#xf1cb;" 
d="M448 400v-416c0 -8.83203 -7.16797 -16 -16 -16h-352c-8.83203 0 -16 7.16797 -16 16v416c0 8.83203 7.16797 16 16 16h352c8.83203 0 16 -7.16797 16 -16zM384 352h-256v-128h256v128zM128 32h256v128h-256v-128zM208 288c-8.83203 0 -16 7.16797 -16 16
s7.16797 16 16 16h96c8.83203 0 16 -7.16797 16 -16s-7.16797 -16 -16 -16h-96zM304 128c8.83203 0 16 -7.16797 16 -16s-7.16797 -16 -16 -16h-96c-8.83203 0 -16 7.16797 -16 16s7.16797 16 16 16h96z" />
    <glyph glyph-name="uniF229" unicode="&#xf229;" 
d="M137.582 327.414l-10.584 -10.582l10.584 10.583l67.8818 -67.8828l-33.3359 -33.3359c-2.58691 -2.58691 -4.68652 -7.65527 -4.68652 -11.3135c0 -3.65332 2.09473 -8.71777 4.67578 -11.3037l90.3574 -90.6611c2.58789 -2.59277 7.66113 -4.69727 11.3252 -4.69727
c3.6582 0 8.72656 2.09961 11.3135 4.68652l33.4883 33.4873l67.8818 -67.8818l-24.7979 -24.7979c-34.9717 -34.9717 -88.8643 -19.1865 -121.509 13.541l-113.13 113.59c-15.5342 15.5586 -28.1416 46.0303 -28.1416 68.0176c0 21.9229 12.5459 52.333 28.0039 67.8789z
M104.707 385.049l21.5615 21.5615c2.58691 2.58691 7.65527 4.68555 11.3135 4.68555s8.72754 -2.09863 11.3145 -4.68555l135.763 -135.767c2.58691 -2.58691 4.68652 -7.65527 4.68652 -11.3135s-2.09961 -8.72656 -4.68652 -11.3135l-22.0654 -22.0654
c-2.58691 -2.58691 -4.68652 -7.65527 -4.68652 -11.3135c0 -3.65332 2.09473 -8.71777 4.67578 -11.3027l-0.0644531 -0.0644531c2.58789 -2.59277 7.66113 -4.69727 11.3252 -4.69727c3.6582 0 8.72656 2.09961 11.3135 4.68652l22.1309 22.1309
c2.58691 2.58691 7.65527 4.68555 11.3135 4.68555s8.72656 -2.09863 11.3135 -4.68555l135.765 -135.766c2.58691 -2.58691 4.68555 -7.65527 4.68555 -11.3135s-2.09863 -8.72656 -4.68555 -11.3135l-22.2236 -22.2236l-36.5156 -36.5146l-3.8877 -3.8877
l-4.88379 -2.77832c-22.3145 -15.9404 -62.6816 -28.877 -90.1045 -28.877c-37.3154 0 -88.207 22.1934 -113.598 49.5391l-112.867 113.327c-25.8086 25.874 -46.7549 76.5332 -46.7549 113.079c0 36.6113 21.0107 87.335 46.8984 113.223z" />
    <glyph glyph-name="uniF1ED" unicode="&#xf1ed;" 
d="M416 288v64h48.3398c8.64551 -0.0283203 15.6631 -7.06836 15.6631 -15.7139c0 -0.0791016 -0.00195312 -0.207031 -0.00292969 -0.286133v-352c0.000976562 -0.0791016 0.00292969 -0.208984 0.00292969 -0.288086c0 -8.64648 -7.01758 -15.6846 -15.6631 -15.7119h-320
h-0.0498047c-8.83301 0 -16.1309 7.16797 -16.29 16v48h288v256zM368.34 416c8.64551 -0.0283203 15.6631 -7.06836 15.6631 -15.7139c0 -0.0791016 -0.00195312 -0.207031 -0.00292969 -0.286133v-320c0.000976562 -0.0791016 0.00292969 -0.208984 0.00292969 -0.288086
c0 -8.64551 -7.01758 -15.6846 -15.6631 -15.7119h-288h-0.0498047c-8.83301 0 -16.1309 7.16797 -16.29 16v320c0 8.83203 7.16797 16 16 16h288.34zM320 128v224h-96l-96 -96v-128h192z" />
    <glyph glyph-name="uniF250" unicode="&#xf250;" 
d="M432 416c8.83203 0 16 -7.16797 16 -16v-320c0 -8.83203 -7.16797 -16 -16 -16h-352c-8.83203 0 -16 7.16797 -16 16v320c0 8.83203 7.16797 16 16 16h352zM384 128v224h-256v-224h256zM128 32h64l-64 -64h-64zM320 32h64l64 -64h-64zM160 192
c0 17.6729 14.3271 32 32 32s32 -14.3271 32 -32s-14.3271 -32 -32 -32s-32 14.3271 -32 32zM288 192c0 17.6729 14.3271 32 32 32s32 -14.3271 32 -32s-14.3271 -32 -32 -32s-32 14.3271 -32 32zM160 304c0 16 0 16 16 16h160c16 0 16 0 16 -16v-32c0 -16 0 -16 -16 -16
h-160c-16 0 -16 0 -16 16v32zM224 0h64l32 -32h-128z" />
    </font>
</defs>
</svg>
