<svg xmlns="http://www.w3.org/2000/svg" width="97" height="16" viewBox="0 0 97 16"><title>Untitled-6</title><rect x="21" width="2" height="14" rx="0.5" ry="0.5" fill="#56585A"/><rect x="51" width="2" height="14" rx="0.5" ry="0.5" fill="#56585A"/><path d="M14.5,1H1.5a0.5,0.5,0,0,0-.5.5v13a0.5,0.5,0,0,0,.5.5h1A0.5,0.5,0,0,0,3,14.5V9h7.5A0.5,0.5,0,0,0,11,8.5v-1A0.5,0.5,0,0,0,10.5,7H3V3H14.5A0.5,0.5,0,0,0,15,2.5v-1A0.5,0.5,0,0,0,14.5,1Z" transform="translate(-1 -1)" fill="#56585A"/><path d="M74.5,1h-13a0.5,0.5,0,0,0-.5.5v1a0.5,0.5,0,0,0,.5.5h5.57916V14.5a0.5,0.5,0,0,0,.5.5h1a0.5,0.5,0,0,0,.5-0.5V3H74.5A0.5,0.5,0,0,0,75,2.5v-1A0.5,0.5,0,0,0,74.5,1Z" transform="translate(-1 -1)" fill="#56585A"/><path d="M95.5,3A0.5,0.5,0,0,0,96,2.5v-1A0.5,0.5,0,0,0,95.5,1h-13a0.5,0.5,0,0,0-.5.5v13a0.5,0.5,0,0,0,.5.5h13a0.5,0.5,0,0,0,.5-0.5v-1a0.5,0.5,0,0,0-.5-0.5H84V9h7.5A0.5,0.5,0,0,0,92,8.5v-1A0.5,0.5,0,0,0,91.5,7H84V3H95.5Z" transform="translate(-1 -1)" fill="#56585A"/><path d="M44.5,1h-1a0.5,0.5,0,0,0-.5.5v9.36523L31.82013,1.54816A0.5,0.5,0,0,0,31,1.93231V14.5a0.5,0.5,0,0,0,.5.5h1a0.5,0.5,0,0,0,.5-0.5V5.13525l11.17993,9.3161A0.5,0.5,0,0,0,45,14.06726V1.5A0.5,0.5,0,0,0,44.5,1Z" transform="translate(-1 -1)" fill="#56585A"/></svg>